<svg width="156" height="40" viewBox="0 0 156 40" fill="none" xmlns="http://www.w3.org/2000/svg">
<path d="M35.0038 9.8442C30.332 8.3686 30.2337 2.64445 30.2337 2.64445C24.1752 2.83261 20.8017 0.000244141 17.4971 0.000244141C14.1925 0.000244141 10.819 2.83261 4.77032 2.65435C4.77032 2.65435 4.67197 8.3785 0.000244141 9.8541C0.000244141 9.8541 2.21317 14.1918 1.56404 18.8068C0.924754 23.4217 2.09514 32.7111 17.4971 40C32.899 32.7111 34.0694 23.4217 33.4301 18.8068C32.7908 14.1918 35.0038 9.8442 35.0038 9.8442Z" fill="#A39232" fill-opacity="0.9"/>
<path d="M35.0034 9.84386C33.0757 9.22985 31.9249 7.8929 31.2365 6.53613C30.6857 7.92261 30.0759 9.28927 29.476 10.646C28.0892 13.7458 26.6139 16.8158 25.1878 19.8958C22.1881 26.3825 18.9916 32.7603 15.8936 39.1876C16.4148 39.455 16.9459 39.7223 17.5065 39.9897C32.9085 32.7009 34.0789 23.4115 33.4396 18.7965C32.8003 14.1815 35.0034 9.84386 35.0034 9.84386Z" fill="#74640B" fill-opacity="0.8"/>
<path d="M1.08212 12.2012C5.24241 11.1713 24.9817 6.49686 30.7058 5.24903C30.2435 3.82295 30.2238 2.64445 30.2238 2.64445C24.1752 2.83261 20.8017 0.000244141 17.4971 0.000244141C14.1925 0.000244141 10.819 2.83261 4.77032 2.65435C4.77032 2.65435 4.67197 8.3785 0.000244141 9.8541C0.000244141 9.8541 0.472334 10.7949 0.924754 12.2507C0.97393 12.2309 1.03294 12.221 1.08212 12.2012Z" fill="#74640B" fill-opacity="0.8"/>
<path d="M34.1872 11.8939C32.9184 13.627 17.2214 36.9098 15.8445 39.1678C16.3756 39.4451 16.9264 39.7224 17.5066 39.9898C32.9086 32.7009 34.079 23.4115 33.4397 18.7966C33.0659 16.1524 33.6364 13.5973 34.1872 11.8939Z" fill="#FFE655" fill-opacity="0.9"/>
<path d="M33.5668 20.7078C33.5668 20.0047 33.5176 19.3709 33.4389 18.7965C32.7997 14.1815 35.0025 9.84382 35.0025 9.84382C30.3313 8.36822 30.233 2.64406 30.233 2.64406C29.3676 2.67377 28.5612 2.63416 27.804 2.55493C28.1481 3.38682 33.0062 18.945 33.5668 20.7078Z" fill="#B19A13" fill-opacity="0.9"/>
<path opacity="0.5" d="M35.0033 9.8439C34.423 9.66564 33.9214 9.41805 33.4788 9.12095C33.5378 8.99221 27.4695 29.9478 25.6697 35.0084C33.3313 28.8683 33.9411 22.4014 33.4395 18.7966C32.7904 14.1816 35.0033 9.8439 35.0033 9.8439Z" fill="white" fill-opacity="0.9"/>
<path d="M9.66772 35.2758C11.743 36.89 14.3198 38.4844 17.4965 39.9898C19.6111 38.9895 21.4503 37.9497 23.0633 36.8999C21.1061 36.7415 12.1659 35.662 9.66772 35.2758Z" fill="#74640B" fill-opacity="0.8"/>
<path d="M3.96359 8.12068C3.79639 7.77406 3.63903 7.42744 3.48166 7.07092C2.77353 8.23952 1.68182 9.31899 0 9.84387C0 9.84387 2.21292 14.1815 1.5638 18.7965C0.973686 23.0055 1.90803 31.1163 13.789 38.0388C12.7563 34.9687 4.58321 9.43783 3.96359 8.12068Z" fill="white" fill-opacity="0.9"/>
<path d="M3.58002 13.3201C6.24536 9.33891 8.97955 5.40727 11.7727 1.52515C9.84505 2.15896 7.60262 2.73336 4.77008 2.65413C4.77008 2.65413 4.67173 8.37828 0 9.85389C0 9.85389 1.44578 12.6962 1.66215 16.2317C2.2916 15.2512 2.93089 14.2906 3.58002 13.3201Z" fill="#B19A13" fill-opacity="0.9"/>
<path d="M6.43191 2.62439C5.90081 2.6541 5.35004 2.664 4.7796 2.6442C4.7796 2.6442 4.68125 8.36835 0.00952148 9.84395C0.00952148 9.84395 2.22244 14.1816 1.57332 18.7966C1.02255 22.7778 1.8192 30.235 11.9298 36.8901C11.0741 32.3444 6.43191 2.62439 6.43191 2.62439Z" fill="#917E4F" fill-opacity="0.9"/>
<path d="M1.89795 24.3721C3.09784 29.096 6.97292 35.0083 17.4966 39.9897C20.5357 38.5537 23.0141 37.0385 25.0402 35.4936C23.8895 34.939 2.71427 24.7484 1.89795 24.3721Z" fill="#74640B" fill-opacity="0.8"/>
<path d="M33.9314 12.7555C34.4133 11.0027 35.0034 9.84396 35.0034 9.84396C30.3317 8.36835 30.2333 2.6442 30.2333 2.6442C24.1749 2.83237 20.8014 0 17.4967 0C15.4805 0 13.4348 1.05966 10.7793 1.83212C11.8808 2.36691 32.8692 12.2406 33.9314 12.7555Z" fill="#74640B" fill-opacity="0.8"/>
<path d="M1.56404 18.7969C1.41651 19.8268 1.36734 21.0944 1.54437 22.5205C4.62279 20.7775 7.74055 19.1138 10.7796 17.3113C16.2873 14.0432 21.8344 10.8543 27.4011 7.68527C28.5519 7.03164 29.7026 6.36812 30.8533 5.70459C30.2435 4.09034 30.214 2.64445 30.214 2.64445C24.1752 2.83261 20.8017 0.000244141 17.4971 0.000244141C14.1925 0.000244141 10.819 2.83261 4.77032 2.65435C4.77032 2.65435 4.67197 8.3785 0.000244141 9.85411C0.000244141 9.8442 2.21317 14.1819 1.56404 18.7969Z" fill="#74640B" fill-opacity="0.8"/>
<path d="M16.2671 39.3856C16.6703 39.5837 17.0736 39.7917 17.4965 39.9897C26.6531 35.662 30.7839 30.6211 32.4854 26.2736C29.8102 28.3137 17.408 38.5339 16.2671 39.3856Z" fill="#F1D742" fill-opacity="0.5"/>
<path opacity="0.5" d="M35.0035 9.84396C30.3318 8.36835 30.2334 2.6442 30.2334 2.6442C24.1749 2.83237 20.8015 0 17.4968 0V39.9898C32.8988 32.7009 34.0692 23.4116 33.4299 18.7966C32.7906 14.1816 35.0035 9.84396 35.0035 9.84396Z" fill="white" fill-opacity="0.9"/>
<path d="M1.5638 18.7967C1.48512 19.3909 1.42611 20.0544 1.43594 20.7873C2.70468 17.8163 8.77301 3.11965 9.1074 2.25806C7.81899 2.52545 6.39289 2.69381 4.77008 2.64429C4.77008 2.64429 4.67172 8.36844 0 9.84404C0 9.84404 2.21292 14.1817 1.5638 18.7967Z" fill="#F1D742" fill-opacity="0.5"/>
<path fill-rule="evenodd" clip-rule="evenodd" d="M5.04571 19.2151C5.01024 19.3062 4.98657 19.4088 4.98657 19.5C4.98657 19.7052 5.06935 19.8761 5.22306 20.0243C5.37676 20.1725 5.57774 20.2523 5.79056 20.2523C5.94427 20.2523 6.08615 20.2181 6.20439 20.1383C6.32262 20.0585 6.41722 19.9445 6.47634 19.8192C7.58775 17.9727 9.11297 16.4681 11.052 15.3169C13.0857 14.0973 15.2139 13.4932 17.4604 13.4932C19.7305 13.4932 21.8232 14.0403 23.7741 15.1573C25.654 16.2287 27.1319 17.6877 28.2552 19.5114C27.1556 21.3351 25.6777 22.7941 23.7741 23.8655C21.835 24.9825 19.7305 25.5296 17.4604 25.5296C16.4199 25.5296 15.4031 25.3929 14.4099 25.1763C13.4285 24.9483 12.5181 24.595 11.6314 24.139C11.4895 24.0593 11.3831 24.0251 11.2175 24.0251C11.0047 24.0251 10.8274 24.1049 10.6737 24.253C10.52 24.4012 10.4372 24.5722 10.4372 24.7774C10.4372 24.9483 10.4963 25.0965 10.5909 25.2105C10.6855 25.3473 10.8274 25.4385 10.9811 25.4726C11.9624 25.9628 12.9911 26.3617 14.067 26.6011C15.1784 26.8632 16.3135 27 17.4722 27C20.1679 27 22.6508 26.3047 24.8973 24.9027C27.0847 23.5692 28.7636 21.7568 29.9223 19.4772C28.7518 17.2204 27.0728 15.4081 24.8973 14.0517C22.6154 12.6953 20.1443 12 17.4249 12C14.8237 12 12.3999 12.6383 10.1889 13.9263C8.03702 15.1687 6.3581 16.8442 5.14028 18.9529C5.11664 19.0327 5.05753 19.1239 5.04571 19.2151ZM8.3208 22.7257C8.47451 22.5775 8.65185 22.4977 8.86467 22.4977C9.0775 22.4977 9.25484 22.5775 9.40854 22.7257C9.56225 22.8739 9.64503 23.0448 9.64503 23.25C9.64503 23.4552 9.56225 23.6262 9.40854 23.7743C9.25484 23.9225 9.0775 24.0023 8.86467 24.0023C8.65185 24.0023 8.47451 23.9225 8.3208 23.7743C8.1671 23.6262 8.08432 23.4552 8.08432 23.25C8.08432 23.0448 8.1671 22.8511 8.3208 22.7257ZM19.6477 17.3686C19.8014 17.5167 19.9788 17.5965 20.1916 17.5965C20.4044 17.5965 20.5818 17.5167 20.7355 17.3686C20.8892 17.2204 20.9719 17.0494 20.9719 16.8442C20.9719 16.6391 20.8892 16.4453 20.7355 16.3199C20.5818 16.1717 20.4044 16.0919 20.1916 16.0919C19.9788 16.0919 19.8014 16.1717 19.6477 16.3199C19.494 16.4681 19.4112 16.6619 19.4112 16.8442C19.4112 17.0494 19.4822 17.2204 19.6477 17.3686ZM17.9806 15.2029C18.1343 15.3511 18.217 15.5449 18.217 15.7272C18.217 15.9324 18.1343 16.1034 17.9806 16.2515C17.8269 16.3997 17.6495 16.4795 17.4131 16.4795C16.9992 16.4795 16.609 16.5593 16.2425 16.6847C15.876 16.8328 15.5213 17.0608 15.2257 17.3457C14.6227 17.9271 14.3035 18.6451 14.3035 19.4772C14.3035 20.3093 14.6109 21.0045 15.2257 21.6087C15.8287 22.19 16.5736 22.4977 17.4367 22.4977C18.2998 22.4977 19.0447 22.2014 19.6477 21.6087C19.9551 21.3237 20.1798 20.9818 20.3335 20.6056C20.4872 20.2523 20.5699 19.8875 20.5699 19.4886C20.5699 19.2606 20.6527 19.0897 20.8064 18.9415C20.9601 18.7933 21.1374 18.7135 21.3503 18.7135C21.5631 18.7135 21.7405 18.7933 21.8942 18.9415C22.0479 19.0897 22.1306 19.2607 22.1306 19.4658C22.1306 20.0699 22.0124 20.6284 21.7996 21.1641C21.5631 21.734 21.2084 22.2242 20.7591 22.6573C19.8369 23.5464 18.7491 23.9795 17.4604 23.9795C16.1716 23.9795 15.072 23.5464 14.1616 22.6573C13.2394 21.7682 12.7901 20.7196 12.7901 19.4772C12.7901 18.2348 13.2394 17.1634 14.1616 16.2971C14.6109 15.864 15.1193 15.5221 15.7105 15.2941C16.278 15.0661 16.8692 14.9521 17.4722 14.9521V14.9863C17.6732 14.9977 17.8387 15.0775 17.9806 15.2029Z" fill="white"/>
<path fill-rule="evenodd" clip-rule="evenodd" d="M72.6536 14.074C72.9376 14.1284 73.1869 14.2643 73.3601 14.4887C73.5263 14.7402 73.6163 14.985 73.554 15.2637C73.4986 15.5424 73.36 15.76 73.1315 15.9572C72.9029 16.1203 72.6259 16.2087 72.342 16.1475C72.1134 16.1203 71.8918 16.0931 71.6633 16.0931C70.5067 16.0931 69.4955 16.5078 68.6783 17.3101C67.861 18.1123 67.4386 19.0777 67.4386 20.2402C67.4386 21.3756 67.8333 22.3682 68.6783 23.1704C69.4955 23.9726 70.479 24.3873 71.6633 24.3873C72.8475 24.3873 73.831 23.9726 74.6482 23.1704C75.3546 22.4497 75.7771 21.6203 75.8602 20.6821V20.6549C75.8879 20.519 75.8879 20.3762 75.8879 20.2402C75.8879 20.213 75.8879 20.1858 75.8879 20.1586C75.8602 19.8799 75.9433 19.608 76.1165 19.3836C76.3104 19.1593 76.5389 19.0233 76.8506 18.9961C77.1345 18.9689 77.3839 19.0505 77.6401 19.2204C77.8687 19.3836 78.0072 19.6351 78.0349 19.9139C78.0626 20.0227 78.0626 20.1043 78.0626 20.2198C78.0626 20.4442 78.0349 20.6617 78.0349 20.8861V20.8589C77.8964 22.2934 77.3008 23.5647 76.2065 24.6457C74.9668 25.8626 73.4778 26.4677 71.6979 26.4677C69.918 26.4677 68.4289 25.8626 67.1962 24.6457C65.9565 23.4287 65.3401 21.9399 65.3401 20.2198C65.3401 18.5066 65.9565 17.0381 67.1962 15.828C68.4359 14.611 69.9249 14.006 71.6979 14.006C71.9749 13.9856 72.3143 14.0196 72.6536 14.074Z" fill="#B19A13"/>
<path fill-rule="evenodd" clip-rule="evenodd" d="M74.6462 16.3509C74.6462 15.8964 74.8737 15.5376 75.3366 15.2824C75.4991 15.2187 75.6696 15.1868 75.8321 15.1868H75.897C76.36 15.1868 76.693 15.41 76.9529 15.8964C77.0179 16.0559 77.0504 16.2234 77.0504 16.3828C77.0504 16.8373 76.823 17.228 76.36 17.4513C76.1976 17.5151 76.027 17.547 75.897 17.547H75.7671C75.4016 17.547 75.0767 17.3556 74.7762 16.9649C74.7112 16.7416 74.6462 16.5423 74.6462 16.3509Z" fill="#B19A13"/>
<path fill-rule="evenodd" clip-rule="evenodd" d="M155.942 23.9792C155.713 23.5917 155.409 23.4013 155.014 23.4013C154.848 23.4013 154.647 23.4557 154.481 23.5373C153.691 24.1424 152.846 24.4483 151.946 24.4483C151.212 24.4483 150.512 24.2579 149.834 23.8976C149.605 23.7888 149.328 23.5645 148.989 23.2314C148.227 22.4019 147.86 21.5181 147.86 20.5256C147.86 20.1109 147.943 19.669 148.088 19.1999C148.345 18.3704 148.85 17.7042 149.577 17.2079C149.944 16.9835 150.138 16.7116 150.138 16.3513C150.138 16.2153 150.111 16.0725 150.055 15.9094C149.827 15.549 149.522 15.3587 149.155 15.3587H149.072C148.843 15.3587 148.538 15.5219 148.144 15.855C147.95 15.9638 147.693 16.2153 147.382 16.5484C147.042 16.9359 146.793 17.2691 146.62 17.5682C146.114 18.5336 145.858 19.5058 145.858 20.5256C145.858 21.4094 146.087 22.266 146.502 23.1226C147.292 24.5843 148.386 25.5837 149.799 26.08C150.533 26.3043 151.094 26.4131 151.461 26.4131H152.361C152.618 26.4131 153.012 26.3315 153.546 26.1887C153.83 26.1071 154.107 25.9984 154.418 25.8556C154.675 25.7468 154.979 25.5497 155.291 25.3321C155.741 25.0806 155.97 24.7542 155.97 24.3395C156.025 24.2579 155.997 24.122 155.942 23.9792ZM152.195 14.3389C152.535 14.3389 152.846 14.5021 153.068 14.808C153.179 14.9984 153.262 15.1955 153.262 15.4131C153.262 15.8006 153.068 16.1337 152.673 16.3513C152.507 16.4329 152.334 16.4601 152.167 16.4601C151.745 16.4601 151.406 16.2357 151.156 15.821C151.101 15.6578 151.073 15.5151 151.073 15.3791C151.073 14.9916 151.267 14.6584 151.662 14.4409C151.828 14.3593 152.001 14.3321 152.14 14.3321H152.195V14.3389ZM50.519 22.905C50.519 22.5175 50.3805 22.1572 50.0689 21.8241C49.7849 21.5181 49.3901 21.3822 48.8845 21.3822H45.9273V24.4211H48.9123C49.6464 24.4211 50.152 24.0608 50.4359 23.3401C50.4913 23.1838 50.519 23.041 50.519 22.905ZM51.2254 20.3352C51.9596 21.0015 52.3266 21.8581 52.3266 22.8778C52.3266 23.9588 51.8765 24.897 50.9484 25.6448C50.6368 25.8692 50.3597 26.0324 50.0758 26.1411C49.6256 26.3043 49.2862 26.3927 49.0646 26.3927H44.4452C44.279 26.3927 44.1058 26.2839 43.8842 26.0867C43.6903 25.8624 43.6003 25.6448 43.6003 25.3933V20.2808C43.6003 19.9205 43.7942 19.6146 44.1889 19.397C44.3551 19.3154 44.5006 19.2882 44.6114 19.2882C44.7776 19.2882 44.8677 19.2882 44.8954 19.2882H48.7807C49.0369 19.2882 49.314 19.1795 49.6533 18.9823C50.0481 18.622 50.242 18.2073 50.242 17.7382C50.242 17.3778 50.1035 17.0175 49.8195 16.6844C49.5079 16.3785 49.1408 16.2153 48.6906 16.2153H44.0712C43.5933 16.2153 43.254 15.9909 43.0601 15.549C43.0047 15.4403 43.0046 15.3247 43.0046 15.2159V15.1887C43.0046 14.8284 43.1709 14.5565 43.5102 14.3321C43.6764 14.2233 43.8773 14.1689 44.0712 14.1689H48.6629C49.7018 14.1689 50.6091 14.5565 51.364 15.3587C51.9803 16.0521 52.292 16.8544 52.292 17.7382C52.292 18.7851 51.9249 19.6146 51.2254 20.3352ZM59.5571 14.3933C59.6956 14.3389 59.8133 14.3389 59.8964 14.3389H59.9795C60.3466 14.3389 60.6582 14.5021 60.9076 14.8624C60.9907 15.0256 61.0184 15.1955 61.0184 15.3315V25.4477C61.0184 25.8896 60.7898 26.1955 60.3397 26.3859C60.2288 26.4131 60.1735 26.4403 60.1111 26.4403H59.7164C59.5501 26.4403 59.3216 26.3315 59.1 26.1071C58.9337 25.9168 58.8437 25.6652 58.8437 25.4137V15.3519C58.8853 14.9168 59.1069 14.5837 59.5571 14.3933ZM82.5642 14.6652C82.7304 14.5837 82.9036 14.5565 83.0698 14.5565H83.0975C83.4646 14.5565 83.7485 14.7196 84.0256 15.0528C84.1087 15.1887 85.293 16.6572 87.5715 19.4786L88.1048 20.1448C89.7669 18.1257 91.1729 16.3581 92.3295 14.9236C92.5857 14.706 92.8073 14.5905 93.0913 14.5905H93.1744C93.5415 14.5905 93.8531 14.7808 94.1024 15.1139C94.2132 15.2771 94.2687 15.4743 94.2687 15.6374C94.2687 15.9434 94.1301 16.2765 93.8185 16.5756L88.922 22.6807C88.6935 22.905 88.4441 22.9866 88.1325 22.9866C87.7377 22.9866 87.3984 22.7963 87.149 22.4359L84.2472 18.8395V25.3321C84.2472 25.8556 83.9909 26.2431 83.4854 26.4403C83.4299 26.4675 83.3745 26.4675 83.3191 26.4675H82.9521C82.7858 26.4675 82.5573 26.3587 82.3357 26.1615C82.1141 25.9372 82.024 25.6652 82.024 25.3593V15.9638L81.9686 15.685C81.9686 15.2227 82.1695 14.8896 82.5642 14.6652ZM126.148 15.4403C126.148 15.0528 126.314 14.7196 126.681 14.5021C126.875 14.3933 127.048 14.3389 127.242 14.3389H127.353C127.775 14.3389 128.142 14.5905 128.454 15.0867C128.959 15.8346 129.216 16.664 129.216 17.5478V17.575C129.216 18.6832 128.849 19.6485 128.087 20.5324C127.692 20.9199 127.436 21.1374 127.297 21.1986C127.069 21.3618 126.847 21.4774 126.619 21.5861C128.08 23.4353 128.897 24.4619 129.043 24.6523C129.153 24.8426 129.209 25.0398 129.209 25.2029V25.3389C129.209 25.7264 129.015 26.0595 128.592 26.3315C128.399 26.4131 128.253 26.4675 128.17 26.4675H127.747C127.519 26.4403 127.297 26.3315 127.069 26.1343C124.873 23.3673 123.772 21.96 123.717 21.9057C123.634 21.7153 123.578 21.5181 123.578 21.3278V21.219C123.578 20.7771 123.807 20.3624 124.229 20.0293C124.513 19.8389 124.763 19.7505 125.019 19.7505C125.247 19.7233 125.414 19.6689 125.58 19.5874C126.085 19.363 126.452 18.9823 126.709 18.4792C126.819 18.1733 126.875 17.9285 126.875 17.7042V17.677V17.6226V17.541C126.875 17.1535 126.736 16.7388 126.452 16.3513V16.3241C126.265 16.0521 126.148 15.7734 126.148 15.4403ZM118.239 14.3389C118.578 14.3389 118.855 14.5021 119.083 14.8352C119.167 14.9984 119.222 15.1955 119.222 15.3587C119.222 15.719 119.056 16.0249 118.661 16.2425C118.495 16.3241 118.349 16.3513 118.211 16.3513H118.128C117.761 16.3513 117.477 16.1881 117.255 15.8278C117.172 15.6646 117.117 15.4947 117.117 15.3315C117.117 14.9712 117.283 14.6652 117.65 14.4477C117.816 14.3661 117.961 14.3389 118.128 14.3389H118.239ZM138.261 14.3933C138.372 14.3389 138.517 14.3389 138.6 14.3389H138.683C139.05 14.3389 139.362 14.5021 139.611 14.8624C139.694 15.0256 139.722 15.1955 139.722 15.3315V25.4477C139.722 25.8896 139.493 26.1955 139.043 26.3859C138.932 26.4131 138.877 26.4403 138.815 26.4403H138.42C138.254 26.4403 138.025 26.3315 137.804 26.1071C137.637 25.9168 137.547 25.6652 137.547 25.4137V15.3519C137.554 14.9168 137.776 14.5837 138.261 14.3933ZM98.8119 14.3389H104.837H104.865H104.893C105.26 14.3389 105.571 14.5293 105.793 14.8896C105.876 15.0256 105.904 15.1955 105.904 15.3587C105.904 15.7462 105.71 16.0521 105.315 16.2697C105.177 16.3241 105.031 16.3513 104.893 16.3513H98.7565C98.4726 16.3513 98.2232 16.2153 97.9947 15.9638C97.8562 15.7734 97.7661 15.5762 97.7661 15.3859V15.3043C97.7661 14.9984 97.9324 14.7264 98.244 14.5021C98.4102 14.3933 98.5834 14.3389 98.7496 14.3389H98.7773H98.8119ZM98.7842 19.397H101.908C102.136 19.397 102.33 19.5058 102.586 19.7029C102.78 19.9273 102.87 20.1448 102.87 20.3964C102.87 20.7567 102.704 21.0354 102.365 21.253C102.199 21.3346 102.025 21.389 101.887 21.389H98.7357C98.4241 21.389 98.1748 21.253 97.9462 20.9199C97.8354 20.7567 97.78 20.5867 97.78 20.4236V20.342C97.78 20.0089 97.9462 19.7369 98.2856 19.5126C98.4449 19.4514 98.6111 19.397 98.7842 19.397ZM108.917 15.3315C108.917 14.9712 109.083 14.6992 109.394 14.4749C109.561 14.3661 109.734 14.3389 109.9 14.3389H114.097C114.436 14.3389 114.748 14.5021 114.97 14.8624C115.053 15.0256 115.08 15.1955 115.08 15.3315V25.4749C115.08 25.8352 114.886 26.1411 114.492 26.3587C114.353 26.4131 114.263 26.4403 114.208 26.4403H113.868C113.702 26.4403 113.501 26.3315 113.307 26.1615C113.113 25.9712 112.996 25.6924 112.996 25.3593V16.3513H109.872C109.561 16.3513 109.256 16.1881 109.027 15.855C108.972 15.6646 108.917 15.4947 108.917 15.3315ZM103.819 20.4168C103.819 20.0293 104.013 19.7233 104.408 19.5058C104.546 19.4514 104.692 19.4242 104.83 19.4242H104.886C105.281 19.4242 105.592 19.6146 105.786 20.0293C105.841 20.1652 105.869 20.308 105.869 20.444C105.869 20.8315 105.675 21.1646 105.281 21.355C105.142 21.4094 104.997 21.4366 104.886 21.4366H104.775C104.463 21.4366 104.186 21.2734 103.93 20.9403C103.882 20.7499 103.819 20.5799 103.819 20.4168ZM105.059 24.4823C105.315 24.5367 105.509 24.6455 105.62 24.8154C105.786 25.0058 105.876 25.2301 105.876 25.4817C105.876 25.8692 105.682 26.1751 105.287 26.3927C105.149 26.4471 105.059 26.4471 105.031 26.4471H98.5834C98.4171 26.4471 98.2163 26.3383 97.9947 26.1139C97.8562 25.8896 97.7661 25.6992 97.7661 25.5089V25.4545C97.7661 25.0942 97.9323 24.8154 98.2994 24.5979C98.4102 24.5435 98.5834 24.4891 98.805 24.4619H104.83C104.837 24.4551 104.92 24.4551 105.059 24.4823Z" fill="#B19A13"/>
</svg>
