<svg width="168" height="186" viewBox="0 0 168 186" fill="none" xmlns="http://www.w3.org/2000/svg">
<path d="M6.65 97.918C7.098 98.1327 7.45267 98.4407 7.714 98.842C7.98467 99.2433 8.12 99.7053 8.12 100.228C8.12 101.012 7.84467 101.67 7.294 102.202C6.74333 102.734 6.07133 103 5.278 103H1.05V93.2H4.97C5.73533 93.2 6.384 93.4567 6.916 93.97C7.448 94.4833 7.714 95.118 7.714 95.874C7.714 96.742 7.35933 97.4233 6.65 97.918ZM4.97 94.418H2.352V97.414H4.97C5.38067 97.414 5.726 97.2693 6.006 96.98C6.286 96.6907 6.426 96.336 6.426 95.916C6.426 95.5053 6.28133 95.1553 5.992 94.866C5.712 94.5673 5.37133 94.418 4.97 94.418ZM5.278 101.782C5.71667 101.782 6.08533 101.628 6.384 101.32C6.68267 101.012 6.832 100.634 6.832 100.186C6.832 99.7473 6.678 99.374 6.37 99.066C6.07133 98.758 5.70733 98.604 5.278 98.604H2.352V101.782H5.278ZM15.4863 102.118C14.7676 102.827 13.895 103.182 12.8683 103.182C11.8416 103.182 10.969 102.827 10.2503 102.118C9.54096 101.409 9.1863 100.536 9.1863 99.5C9.1863 98.464 9.54096 97.5913 10.2503 96.882C10.969 96.1727 11.8416 95.818 12.8683 95.818C13.895 95.818 14.7676 96.1727 15.4863 96.882C16.205 97.5913 16.5643 98.464 16.5643 99.5C16.5643 100.536 16.205 101.409 15.4863 102.118ZM12.8683 101.992C13.5683 101.992 14.1563 101.754 14.6323 101.278C15.1083 100.802 15.3463 100.209 15.3463 99.5C15.3463 98.7907 15.1083 98.198 14.6323 97.722C14.1563 97.246 13.5683 97.008 12.8683 97.008C12.1776 97.008 11.5943 97.246 11.1183 97.722C10.6423 98.198 10.4043 98.7907 10.4043 99.5C10.4043 100.209 10.6423 100.802 11.1183 101.278C11.5943 101.754 12.1776 101.992 12.8683 101.992ZM21.5067 99.416C22.2814 99.7333 22.6687 100.289 22.6687 101.082C22.6687 101.67 22.4354 102.169 21.9687 102.58C21.5021 102.981 20.8394 103.182 19.9807 103.182C18.5807 103.182 17.6427 102.622 17.1667 101.502L18.1887 100.9C18.4594 101.665 19.0614 102.048 19.9947 102.048C20.4614 102.048 20.8207 101.95 21.0727 101.754C21.3341 101.549 21.4647 101.287 21.4647 100.97C21.4647 100.69 21.3574 100.461 21.1427 100.284C20.9374 100.107 20.6574 100.018 20.3027 100.018H19.2807V98.912H20.0367C20.3914 98.912 20.6667 98.828 20.8627 98.66C21.0587 98.4827 21.1567 98.2447 21.1567 97.946C21.1567 97.6473 21.0401 97.4047 20.8067 97.218C20.5827 97.0313 20.2701 96.938 19.8687 96.938C19.0847 96.938 18.5527 97.2693 18.2727 97.932L17.2787 97.358C17.7734 96.3313 18.6367 95.818 19.8687 95.818C20.6341 95.818 21.2361 96.014 21.6747 96.406C22.1227 96.798 22.3467 97.2787 22.3467 97.848C22.3467 98.5573 22.0667 99.08 21.5067 99.416ZM30.9885 96V103H29.7985V97.918L27.5725 101.502H27.4185L25.1925 97.918V103H23.9885V96H25.2905L27.4885 99.542L29.6865 96H30.9885ZM38.7558 102.118C38.0372 102.827 37.1645 103.182 36.1378 103.182C35.1112 103.182 34.2385 102.827 33.5198 102.118C32.8105 101.409 32.4558 100.536 32.4558 99.5C32.4558 98.464 32.8105 97.5913 33.5198 96.882C34.2385 96.1727 35.1112 95.818 36.1378 95.818C37.1645 95.818 38.0372 96.1727 38.7558 96.882C39.4745 97.5913 39.8338 98.464 39.8338 99.5C39.8338 100.536 39.4745 101.409 38.7558 102.118ZM36.1378 101.992C36.8378 101.992 37.4258 101.754 37.9018 101.278C38.3778 100.802 38.6158 100.209 38.6158 99.5C38.6158 98.7907 38.3778 98.198 37.9018 97.722C37.4258 97.246 36.8378 97.008 36.1378 97.008C35.4472 97.008 34.8638 97.246 34.3878 97.722C33.9118 98.198 33.6738 98.7907 33.6738 99.5C33.6738 100.209 33.9118 100.802 34.3878 101.278C34.8638 101.754 35.4472 101.992 36.1378 101.992ZM49.3192 103H47.8912L45.2732 99.682V103H44.0692V99.682L41.4512 103H40.0372L42.9632 99.388L40.1772 96H41.5912L44.0692 99.094V96H45.2732V99.094L47.7512 96H49.1792L46.3792 99.388L49.3192 103ZM55.3285 96H56.5465V103H55.3285V100.074H51.7025V103H50.4845V96H51.7025V98.912H55.3285V96ZM64.3086 102.118C63.5899 102.827 62.7172 103.182 61.6906 103.182C60.6639 103.182 59.7912 102.827 59.0726 102.118C58.3632 101.409 58.0086 100.536 58.0086 99.5C58.0086 98.464 58.3632 97.5913 59.0726 96.882C59.7912 96.1727 60.6639 95.818 61.6906 95.818C62.7172 95.818 63.5899 96.1727 64.3086 96.882C65.0272 97.5913 65.3866 98.464 65.3866 99.5C65.3866 100.536 65.0272 101.409 64.3086 102.118ZM61.6906 101.992C62.3906 101.992 62.9786 101.754 63.4546 101.278C63.9306 100.802 64.1686 100.209 64.1686 99.5C64.1686 98.7907 63.9306 98.198 63.4546 97.722C62.9786 97.246 62.3906 97.008 61.6906 97.008C60.9999 97.008 60.4166 97.246 59.9406 97.722C59.4646 98.198 59.2266 98.7907 59.2266 99.5C59.2266 100.209 59.4646 100.802 59.9406 101.278C60.4166 101.754 60.9999 101.992 61.6906 101.992ZM70.1124 103.182C69.0578 103.182 68.1804 102.832 67.4804 102.132C66.7804 101.423 66.4304 100.545 66.4304 99.5C66.4304 98.4547 66.7804 97.582 67.4804 96.882C68.1804 96.1727 69.0578 95.818 70.1124 95.818C70.8031 95.818 71.4238 95.986 71.9744 96.322C72.5251 96.6487 72.9358 97.092 73.2064 97.652L72.1844 98.24C72.0071 97.8667 71.7318 97.568 71.3584 97.344C70.9944 97.12 70.5791 97.008 70.1124 97.008C69.4124 97.008 68.8244 97.246 68.3484 97.722C67.8818 98.198 67.6484 98.7907 67.6484 99.5C67.6484 100.2 67.8818 100.788 68.3484 101.264C68.8244 101.74 69.4124 101.978 70.1124 101.978C70.5791 101.978 70.9991 101.871 71.3724 101.656C71.7458 101.432 72.0304 101.133 72.2264 100.76L73.2624 101.362C72.9638 101.913 72.5344 102.356 71.9744 102.692C71.4144 103.019 70.7938 103.182 70.1124 103.182ZM79.5636 96V97.176H77.1836V103H75.9656V97.176H73.5716V96H79.5636ZM83.585 98.52C84.285 98.52 84.8637 98.73 85.321 99.15C85.7877 99.5607 86.021 100.097 86.021 100.76C86.021 101.423 85.7877 101.964 85.321 102.384C84.8637 102.795 84.285 103 83.585 103H80.631V96H81.849V98.52H83.585ZM83.585 101.866C83.9304 101.866 84.2197 101.768 84.453 101.572C84.6957 101.367 84.817 101.096 84.817 100.76C84.817 100.424 84.6957 100.153 84.453 99.948C84.2197 99.7427 83.9304 99.64 83.585 99.64H81.849V101.866H83.585ZM6.006 112H6.986V119H5.782V114.086L1.904 119H0.924V112H2.128V116.914L6.006 112ZM12.13 119.182C11.0753 119.182 10.198 118.832 9.49802 118.132C8.79802 117.423 8.44802 116.545 8.44802 115.5C8.44802 114.455 8.79802 113.582 9.49802 112.882C10.198 112.173 11.0753 111.818 12.13 111.818C12.8207 111.818 13.4413 111.986 13.992 112.322C14.5427 112.649 14.9533 113.092 15.224 113.652L14.202 114.24C14.0247 113.867 13.7493 113.568 13.376 113.344C13.012 113.12 12.5967 113.008 12.13 113.008C11.43 113.008 10.842 113.246 10.366 113.722C9.89935 114.198 9.66602 114.791 9.66602 115.5C9.66602 116.2 9.89935 116.788 10.366 117.264C10.842 117.74 11.43 117.978 12.13 117.978C12.5967 117.978 13.0167 117.871 13.39 117.656C13.7633 117.432 14.048 117.133 14.244 116.76L15.28 117.362C14.9813 117.913 14.552 118.356 13.992 118.692C13.432 119.019 12.8113 119.182 12.13 119.182ZM22.5583 112V119H21.3403V113.162H17.7143V119H16.4963V112H22.5583ZM30.3203 118.118C29.6016 118.827 28.7289 119.182 27.7023 119.182C26.6756 119.182 25.8029 118.827 25.0843 118.118C24.3749 117.409 24.0203 116.536 24.0203 115.5C24.0203 114.464 24.3749 113.591 25.0843 112.882C25.8029 112.173 26.6756 111.818 27.7023 111.818C28.7289 111.818 29.6016 112.173 30.3203 112.882C31.0389 113.591 31.3983 114.464 31.3983 115.5C31.3983 116.536 31.0389 117.409 30.3203 118.118ZM27.7023 117.992C28.4023 117.992 28.9903 117.754 29.4663 117.278C29.9423 116.802 30.1803 116.209 30.1803 115.5C30.1803 114.791 29.9423 114.198 29.4663 113.722C28.9903 113.246 28.4023 113.008 27.7023 113.008C27.0116 113.008 26.4283 113.246 25.9523 113.722C25.4763 114.198 25.2383 114.791 25.2383 115.5C25.2383 116.209 25.4763 116.802 25.9523 117.278C26.4283 117.754 27.0116 117.992 27.7023 117.992ZM38.4261 112V119H37.2081V113.176H34.4501V116.032C34.4501 117.18 34.2167 117.983 33.7501 118.44C33.2927 118.888 32.6441 119.075 31.8041 119V117.852C32.2801 117.917 32.6347 117.815 32.8681 117.544C33.1107 117.264 33.2321 116.751 33.2321 116.004V112H38.4261ZM43.2257 114.52C43.9257 114.52 44.5043 114.73 44.9617 115.15C45.4283 115.561 45.6617 116.097 45.6617 116.76C45.6617 117.423 45.4283 117.964 44.9617 118.384C44.5043 118.795 43.9257 119 43.2257 119H40.2717V112H41.4897V114.52H43.2257ZM43.2257 117.866C43.571 117.866 43.8603 117.768 44.0937 117.572C44.3363 117.367 44.4577 117.096 44.4577 116.76C44.4577 116.424 44.3363 116.153 44.0937 115.948C43.8603 115.743 43.571 115.64 43.2257 115.64H41.4897V117.866H43.2257ZM50.6005 115.416C51.3752 115.733 51.7625 116.289 51.7625 117.082C51.7625 117.67 51.5292 118.169 51.0625 118.58C50.5958 118.981 49.9332 119.182 49.0745 119.182C47.6745 119.182 46.7365 118.622 46.2605 117.502L47.2825 116.9C47.5532 117.665 48.1552 118.048 49.0885 118.048C49.5552 118.048 49.9145 117.95 50.1665 117.754C50.4278 117.549 50.5585 117.287 50.5585 116.97C50.5585 116.69 50.4512 116.461 50.2365 116.284C50.0312 116.107 49.7512 116.018 49.3965 116.018H48.3745V114.912H49.1305C49.4852 114.912 49.7605 114.828 49.9565 114.66C50.1525 114.483 50.2505 114.245 50.2505 113.946C50.2505 113.647 50.1338 113.405 49.9005 113.218C49.6765 113.031 49.3638 112.938 48.9625 112.938C48.1785 112.938 47.6465 113.269 47.3665 113.932L46.3725 113.358C46.8672 112.331 47.7305 111.818 48.9625 111.818C49.7278 111.818 50.3298 112.014 50.7685 112.406C51.2165 112.798 51.4405 113.279 51.4405 113.848C51.4405 114.557 51.1605 115.08 50.6005 115.416ZM58.9902 118.118C58.2715 118.827 57.3989 119.182 56.3722 119.182C55.3455 119.182 54.4729 118.827 53.7542 118.118C53.0449 117.409 52.6902 116.536 52.6902 115.5C52.6902 114.464 53.0449 113.591 53.7542 112.882C54.4729 112.173 55.3455 111.818 56.3722 111.818C57.3989 111.818 58.2715 112.173 58.9902 112.882C59.7089 113.591 60.0682 114.464 60.0682 115.5C60.0682 116.536 59.7089 117.409 58.9902 118.118ZM56.3722 117.992C57.0722 117.992 57.6602 117.754 58.1362 117.278C58.6122 116.802 58.8502 116.209 58.8502 115.5C58.8502 114.791 58.6122 114.198 58.1362 113.722C57.6602 113.246 57.0722 113.008 56.3722 113.008C55.6815 113.008 55.0982 113.246 54.6222 113.722C54.1462 114.198 53.9082 114.791 53.9082 115.5C53.9082 116.209 54.1462 116.802 54.6222 117.278C55.0982 117.754 55.6815 117.992 56.3722 117.992ZM66.1661 115.402C66.8847 115.701 67.2441 116.242 67.2441 117.026C67.2441 117.605 67.0481 118.081 66.6561 118.454C66.2734 118.818 65.7227 119 65.0041 119H61.5041V112H64.7241C65.4241 112 65.9654 112.177 66.3481 112.532C66.7307 112.877 66.9221 113.335 66.9221 113.904C66.9221 114.576 66.6701 115.075 66.1661 115.402ZM64.6681 113.092H62.6941V114.926H64.6681C65.3774 114.926 65.7321 114.613 65.7321 113.988C65.7321 113.391 65.3774 113.092 64.6681 113.092ZM64.9341 117.894C65.2887 117.894 65.5594 117.81 65.7461 117.642C65.9421 117.474 66.0401 117.236 66.0401 116.928C66.0401 116.639 65.9421 116.415 65.7461 116.256C65.5594 116.088 65.2887 116.004 64.9341 116.004H62.6941V117.894H64.9341ZM74.3548 112H75.5728V119H74.3548V117.796C73.7481 118.72 72.8661 119.182 71.7088 119.182C70.7288 119.182 69.8934 118.827 69.2028 118.118C68.5121 117.399 68.1668 116.527 68.1668 115.5C68.1668 114.473 68.5121 113.605 69.2028 112.896C69.8934 112.177 70.7288 111.818 71.7088 111.818C72.8661 111.818 73.7481 112.28 74.3548 113.204V112ZM71.8628 118.006C72.5721 118.006 73.1648 117.768 73.6408 117.292C74.1168 116.807 74.3548 116.209 74.3548 115.5C74.3548 114.791 74.1168 114.198 73.6408 113.722C73.1648 113.237 72.5721 112.994 71.8628 112.994C71.1628 112.994 70.5748 113.237 70.0988 113.722C69.6228 114.198 69.3848 114.791 69.3848 115.5C69.3848 116.209 69.6228 116.807 70.0988 117.292C70.5748 117.768 71.1628 118.006 71.8628 118.006ZM82.2621 112H83.4801V119H82.2621V116.074H78.6361V119H77.4181V112H78.6361V114.912H82.2621V112ZM90.4162 112H91.3962V119H90.1922V114.086L86.3142 119H85.3342V112H86.5382V116.914L90.4162 112ZM98.4862 112V119H97.2822V116.48H96.2602L94.3002 119H92.8162L94.8602 116.41C94.3375 116.279 93.9128 116.018 93.5862 115.626C93.2595 115.234 93.0962 114.777 93.0962 114.254C93.0962 113.61 93.3248 113.073 93.7822 112.644C94.2395 112.215 94.8135 112 95.5042 112H98.4862ZM95.5462 115.388H97.2822V113.134H95.5462C95.2008 113.134 94.9068 113.237 94.6642 113.442C94.4215 113.647 94.3002 113.923 94.3002 114.268C94.3002 114.604 94.4215 114.875 94.6642 115.08C94.9068 115.285 95.2008 115.388 95.5462 115.388ZM109.754 119H108.242L105.05 115.682V119H103.832V112H105.05V115.094L108.074 112H109.642L106.296 115.388L109.754 119ZM116.04 112H117.258V119H116.04V117.796C115.434 118.72 114.552 119.182 113.394 119.182C112.414 119.182 111.579 118.827 110.888 118.118C110.198 117.399 109.852 116.527 109.852 115.5C109.852 114.473 110.198 113.605 110.888 112.896C111.579 112.177 112.414 111.818 113.394 111.818C114.552 111.818 115.434 112.28 116.04 113.204V112ZM113.548 118.006C114.258 118.006 114.85 117.768 115.326 117.292C115.802 116.807 116.04 116.209 116.04 115.5C116.04 114.791 115.802 114.198 115.326 113.722C114.85 113.237 114.258 112.994 113.548 112.994C112.848 112.994 112.26 113.237 111.784 113.722C111.308 114.198 111.07 114.791 111.07 115.5C111.07 116.209 111.308 116.807 111.784 117.292C112.26 117.768 112.848 118.006 113.548 118.006ZM122.968 111.818C123.948 111.818 124.783 112.177 125.474 112.896C126.164 113.605 126.51 114.473 126.51 115.5C126.51 116.527 126.164 117.399 125.474 118.118C124.783 118.827 123.948 119.182 122.968 119.182C121.81 119.182 120.928 118.72 120.322 117.796V121.8H119.104V112H120.322V113.204C120.928 112.28 121.81 111.818 122.968 111.818ZM122.814 118.006C123.514 118.006 124.102 117.768 124.578 117.292C125.054 116.807 125.292 116.209 125.292 115.5C125.292 114.791 125.054 114.198 124.578 113.722C124.102 113.237 123.514 112.994 122.814 112.994C122.104 112.994 121.512 113.237 121.036 113.722C120.56 114.198 120.322 114.791 120.322 115.5C120.322 116.209 120.56 116.807 121.036 117.292C121.512 117.768 122.104 118.006 122.814 118.006ZM132.898 112V113.176H130.518V119H129.3V113.176H126.906V112H132.898ZM136.919 114.52C137.619 114.52 138.198 114.73 138.655 115.15C139.122 115.561 139.355 116.097 139.355 116.76C139.355 117.423 139.122 117.964 138.655 118.384C138.198 118.795 137.619 119 136.919 119H133.965V112H135.183V114.52H136.919ZM140.265 112H141.483V119H140.265V112ZM136.919 117.866C137.264 117.866 137.554 117.768 137.787 117.572C138.03 117.367 138.151 117.096 138.151 116.76C138.151 116.424 138.03 116.153 137.787 115.948C137.554 115.743 137.264 115.64 136.919 115.64H135.183V117.866H136.919ZM6.944 133.838H7.91V136.876H6.706V135H1.456V136.876H0.252V133.838H1.106C1.554 133.222 1.778 132.359 1.778 131.248V128H6.944V133.838ZM2.492 133.838H5.74V129.134H2.982V131.248C2.982 132.293 2.81867 133.157 2.492 133.838ZM15.0608 128V135H13.8428V129.176H11.0848V132.032C11.0848 133.18 10.8515 133.983 10.3848 134.44C9.92749 134.888 9.27883 135.075 8.43883 135V133.852C8.91483 133.917 9.26949 133.815 9.50283 133.544C9.74549 133.264 9.86683 132.751 9.86683 132.004V128H15.0608ZM22.1424 128V135H20.9384V132.48H19.9164L17.9564 135H16.4724L18.5164 132.41C17.9938 132.279 17.5691 132.018 17.2424 131.626C16.9158 131.234 16.7524 130.777 16.7524 130.254C16.7524 129.61 16.9811 129.073 17.4384 128.644C17.8958 128.215 18.4698 128 19.1604 128H22.1424ZM19.2024 131.388H20.9384V129.134H19.2024C18.8571 129.134 18.5631 129.237 18.3204 129.442C18.0778 129.647 17.9564 129.923 17.9564 130.268C17.9564 130.604 18.0778 130.875 18.3204 131.08C18.5631 131.285 18.8571 131.388 19.2024 131.388ZM33.3965 134.118C32.6778 134.827 31.8051 135.182 30.7785 135.182C29.7518 135.182 28.8791 134.827 28.1605 134.118C27.4511 133.409 27.0965 132.536 27.0965 131.5C27.0965 130.464 27.4511 129.591 28.1605 128.882C28.8791 128.173 29.7518 127.818 30.7785 127.818C31.8051 127.818 32.6778 128.173 33.3965 128.882C34.1151 129.591 34.4745 130.464 34.4745 131.5C34.4745 132.536 34.1151 133.409 33.3965 134.118ZM30.7785 133.992C31.4785 133.992 32.0665 133.754 32.5425 133.278C33.0185 132.802 33.2565 132.209 33.2565 131.5C33.2565 130.791 33.0185 130.198 32.5425 129.722C32.0665 129.246 31.4785 129.008 30.7785 129.008C30.0878 129.008 29.5045 129.246 29.0285 129.722C28.5525 130.198 28.3145 130.791 28.3145 131.5C28.3145 132.209 28.5525 132.802 29.0285 133.278C29.5045 133.754 30.0878 133.992 30.7785 133.992ZM41.9723 128V135H40.7543V129.162H37.1283V135H35.9103V128H41.9723ZM49.6643 128V135H48.4463V129.176H45.6883V132.032C45.6883 133.18 45.455 133.983 44.9883 134.44C44.531 134.888 43.8823 135.075 43.0423 135V133.852C43.5183 133.917 43.873 133.815 44.1063 133.544C44.349 133.264 44.4703 132.751 44.4703 132.004V128H49.6643ZM57.3059 128H58.5239V135H57.3059V133.796C56.6993 134.72 55.8173 135.182 54.6599 135.182C53.6799 135.182 52.8446 134.827 52.1539 134.118C51.4633 133.399 51.1179 132.527 51.1179 131.5C51.1179 130.473 51.4633 129.605 52.1539 128.896C52.8446 128.177 53.6799 127.818 54.6599 127.818C55.8173 127.818 56.6993 128.28 57.3059 129.204V128ZM54.8139 134.006C55.5233 134.006 56.1159 133.768 56.5919 133.292C57.0679 132.807 57.3059 132.209 57.3059 131.5C57.3059 130.791 57.0679 130.198 56.5919 129.722C56.1159 129.237 55.5233 128.994 54.8139 128.994C54.1139 128.994 53.5259 129.237 53.0499 129.722C52.5739 130.198 52.3359 130.791 52.3359 131.5C52.3359 132.209 52.5739 132.807 53.0499 133.292C53.5259 133.768 54.1139 134.006 54.8139 134.006ZM65.5773 128V129.176H63.1973V135H61.9793V129.176H59.5853V128H65.5773ZM69.5987 130.52C70.2987 130.52 70.8774 130.73 71.3347 131.15C71.8014 131.561 72.0347 132.097 72.0347 132.76C72.0347 133.423 71.8014 133.964 71.3347 134.384C70.8774 134.795 70.2987 135 69.5987 135H66.6447V128H67.8627V130.52H69.5987ZM72.9447 128H74.1627V135H72.9447V128ZM69.5987 133.866C69.944 133.866 70.2334 133.768 70.4667 133.572C70.7094 133.367 70.8307 133.096 70.8307 132.76C70.8307 132.424 70.7094 132.153 70.4667 131.948C70.2334 131.743 69.944 131.64 69.5987 131.64H67.8627V133.866H69.5987ZM85.5856 128V135H84.3676V129.162H80.7416V135H79.5236V128H85.5856ZM91.3036 127.818C92.2836 127.818 93.119 128.177 93.8096 128.896C94.5003 129.605 94.8456 130.473 94.8456 131.5C94.8456 132.527 94.5003 133.399 93.8096 134.118C93.119 134.827 92.2836 135.182 91.3036 135.182C90.1463 135.182 89.2643 134.72 88.6576 133.796V137.8H87.4396V128H88.6576V129.204C89.2643 128.28 90.1463 127.818 91.3036 127.818ZM91.1496 134.006C91.8496 134.006 92.4376 133.768 92.9136 133.292C93.3896 132.807 93.6276 132.209 93.6276 131.5C93.6276 130.791 93.3896 130.198 92.9136 129.722C92.4376 129.237 91.8496 128.994 91.1496 128.994C90.4403 128.994 89.8476 129.237 89.3716 129.722C88.8956 130.198 88.6576 130.791 88.6576 131.5C88.6576 132.209 88.8956 132.807 89.3716 133.292C89.8476 133.768 90.4403 134.006 91.1496 134.006ZM102.207 134.118C101.488 134.827 100.616 135.182 99.589 135.182C98.5623 135.182 97.6897 134.827 96.971 134.118C96.2617 133.409 95.907 132.536 95.907 131.5C95.907 130.464 96.2617 129.591 96.971 128.882C97.6897 128.173 98.5623 127.818 99.589 127.818C100.616 127.818 101.488 128.173 102.207 128.882C102.926 129.591 103.285 130.464 103.285 131.5C103.285 132.536 102.926 133.409 102.207 134.118ZM99.589 133.992C100.289 133.992 100.877 133.754 101.353 133.278C101.829 132.802 102.067 132.209 102.067 131.5C102.067 130.791 101.829 130.198 101.353 129.722C100.877 129.246 100.289 129.008 99.589 129.008C98.8983 129.008 98.315 129.246 97.839 129.722C97.363 130.198 97.125 130.791 97.125 131.5C97.125 132.209 97.363 132.802 97.839 133.278C98.315 133.754 98.8983 133.992 99.589 133.992ZM105.575 132.06C105.696 132.685 105.981 133.171 106.429 133.516C106.886 133.861 107.446 134.034 108.109 134.034C109.033 134.034 109.705 133.693 110.125 133.012L111.161 133.6C110.48 134.655 109.453 135.182 108.081 135.182C106.97 135.182 106.065 134.837 105.365 134.146C104.674 133.446 104.329 132.564 104.329 131.5C104.329 130.445 104.67 129.568 105.351 128.868C106.032 128.168 106.914 127.818 107.997 127.818C109.024 127.818 109.859 128.182 110.503 128.91C111.156 129.629 111.483 130.497 111.483 131.514C111.483 131.691 111.469 131.873 111.441 132.06H105.575ZM107.997 128.966C107.344 128.966 106.802 129.153 106.373 129.526C105.944 129.89 105.678 130.38 105.575 130.996H110.251C110.148 130.333 109.887 129.829 109.467 129.484C109.047 129.139 108.557 128.966 107.997 128.966ZM116.513 131.416C117.287 131.733 117.675 132.289 117.675 133.082C117.675 133.67 117.441 134.169 116.975 134.58C116.508 134.981 115.845 135.182 114.987 135.182C113.587 135.182 112.649 134.622 112.173 133.502L113.195 132.9C113.465 133.665 114.067 134.048 115.001 134.048C115.467 134.048 115.827 133.95 116.079 133.754C116.34 133.549 116.471 133.287 116.471 132.97C116.471 132.69 116.363 132.461 116.149 132.284C115.943 132.107 115.663 132.018 115.309 132.018H114.287V130.912H115.043C115.397 130.912 115.673 130.828 115.869 130.66C116.065 130.483 116.163 130.245 116.163 129.946C116.163 129.647 116.046 129.405 115.813 129.218C115.589 129.031 115.276 128.938 114.875 128.938C114.091 128.938 113.559 129.269 113.279 129.932L112.285 129.358C112.779 128.331 113.643 127.818 114.875 127.818C115.64 127.818 116.242 128.014 116.681 128.406C117.129 128.798 117.353 129.279 117.353 129.848C117.353 130.557 117.073 131.08 116.513 131.416ZM124.905 133.838H125.871V136.876H124.667V135H119.417V136.876H118.213V133.838H119.067C119.515 133.222 119.739 132.359 119.739 131.248V128H124.905V133.838ZM120.453 133.838H123.701V129.134H120.943V131.248C120.943 132.293 120.78 133.157 120.453 133.838ZM132.706 128H133.924V135H132.706V133.796C132.1 134.72 131.218 135.182 130.06 135.182C129.08 135.182 128.245 134.827 127.554 134.118C126.864 133.399 126.518 132.527 126.518 131.5C126.518 130.473 126.864 129.605 127.554 128.896C128.245 128.177 129.08 127.818 130.06 127.818C131.218 127.818 132.1 128.28 132.706 129.204V128ZM130.214 134.006C130.924 134.006 131.516 133.768 131.992 133.292C132.468 132.807 132.706 132.209 132.706 131.5C132.706 130.791 132.468 130.198 131.992 129.722C131.516 129.237 130.924 128.994 130.214 128.994C129.514 128.994 128.926 129.237 128.45 129.722C127.974 130.198 127.736 130.791 127.736 131.5C127.736 132.209 127.974 132.807 128.45 133.292C128.926 133.768 129.514 134.006 130.214 134.006ZM5.81 144H7.112L4.256 151.434C3.95733 152.227 3.53733 152.829 2.996 153.24C2.45467 153.66 1.83867 153.847 1.148 153.8V152.666C2.00667 152.731 2.63667 152.265 3.038 151.266L3.15 151.014L0.112 144H1.4L3.794 149.488L5.81 144ZM12.5391 144H13.7571V151H12.5391V148.48C11.9791 148.723 11.3491 148.844 10.6491 148.844C9.75308 148.844 9.05774 148.634 8.56308 148.214C8.07774 147.785 7.83508 147.155 7.83508 146.324V144H9.05308V146.254C9.05308 146.777 9.19308 147.15 9.47308 147.374C9.76241 147.598 10.1824 147.71 10.7331 147.71C11.3957 147.71 11.9977 147.589 12.5391 147.346V144ZM21.4036 144H22.6216V151H21.4036V149.796C20.7969 150.72 19.9149 151.182 18.7576 151.182C17.7776 151.182 16.9423 150.827 16.2516 150.118C15.5609 149.399 15.2156 148.527 15.2156 147.5C15.2156 146.473 15.5609 145.605 16.2516 144.896C16.9423 144.177 17.7776 143.818 18.7576 143.818C19.9149 143.818 20.7969 144.28 21.4036 145.204V144ZM18.9116 150.006C19.6209 150.006 20.2136 149.768 20.6896 149.292C21.1656 148.807 21.4036 148.209 21.4036 147.5C21.4036 146.791 21.1656 146.198 20.6896 145.722C20.2136 145.237 19.6209 144.994 18.9116 144.994C18.2116 144.994 17.6236 145.237 17.1476 145.722C16.6716 146.198 16.4336 146.791 16.4336 147.5C16.4336 148.209 16.6716 148.807 17.1476 149.292C17.6236 149.768 18.2116 150.006 18.9116 150.006ZM33.987 149.838H34.953V152.876H33.749V151H24.467V144H25.685V149.838H28.625V144H29.843V149.838H32.769V144H33.987V149.838ZM41.3478 144H42.3278V151H41.1238V146.086L37.2458 151H36.2658V144H37.4698V148.914L41.3478 144ZM50.2578 151H48.8298L46.8698 148.354L44.8958 151H43.4678L46.1558 147.402L43.6218 144H45.0638L46.8698 146.436L48.6758 144H50.1038L47.5838 147.388L50.2578 151ZM54.1847 151.182C53.13 151.182 52.2527 150.832 51.5527 150.132C50.8527 149.423 50.5027 148.545 50.5027 147.5C50.5027 146.455 50.8527 145.582 51.5527 144.882C52.2527 144.173 53.13 143.818 54.1847 143.818C54.8754 143.818 55.496 143.986 56.0467 144.322C56.5974 144.649 57.008 145.092 57.2787 145.652L56.2567 146.24C56.0794 145.867 55.804 145.568 55.4307 145.344C55.0667 145.12 54.6514 145.008 54.1847 145.008C53.4847 145.008 52.8967 145.246 52.4207 145.722C51.954 146.198 51.7207 146.791 51.7207 147.5C51.7207 148.2 51.954 148.788 52.4207 149.264C52.8967 149.74 53.4847 149.978 54.1847 149.978C54.6514 149.978 55.0714 149.871 55.4447 149.656C55.818 149.432 56.1027 149.133 56.2987 148.76L57.3347 149.362C57.036 149.913 56.6067 150.356 56.0467 150.692C55.4867 151.019 54.866 151.182 54.1847 151.182ZM63.6366 144V151H62.4326V148.48H61.4106L59.4506 151H57.9666L60.0106 148.41C59.4879 148.279 59.0632 148.018 58.7366 147.626C58.4099 147.234 58.2466 146.777 58.2466 146.254C58.2466 145.61 58.4752 145.073 58.9326 144.644C59.3899 144.215 59.9639 144 60.6546 144H63.6366ZM60.6966 147.388H62.4326V145.134H60.6966C60.3512 145.134 60.0572 145.237 59.8146 145.442C59.5719 145.647 59.4506 145.923 59.4506 146.268C59.4506 146.604 59.5719 146.875 59.8146 147.08C60.0572 147.285 60.3512 147.388 60.6966 147.388ZM5.586 163.402C6.30467 163.701 6.664 164.242 6.664 165.026C6.664 165.605 6.468 166.081 6.076 166.454C5.69333 166.818 5.14267 167 4.424 167H0.924V160H4.144C4.844 160 5.38533 160.177 5.768 160.532C6.15067 160.877 6.342 161.335 6.342 161.904C6.342 162.576 6.09 163.075 5.586 163.402ZM4.088 161.092H2.114V162.926H4.088C4.79733 162.926 5.152 162.613 5.152 161.988C5.152 161.391 4.79733 161.092 4.088 161.092ZM4.354 165.894C4.70867 165.894 4.97933 165.81 5.166 165.642C5.362 165.474 5.46 165.236 5.46 164.928C5.46 164.639 5.362 164.415 5.166 164.256C4.97933 164.088 4.70867 164.004 4.354 164.004H2.114V165.894H4.354ZM17.3867 166.118C16.668 166.827 15.7954 167.182 14.7687 167.182C13.742 167.182 12.8694 166.827 12.1507 166.118C11.4414 165.409 11.0867 164.536 11.0867 163.5C11.0867 162.464 11.4414 161.591 12.1507 160.882C12.8694 160.173 13.742 159.818 14.7687 159.818C15.7954 159.818 16.668 160.173 17.3867 160.882C18.1054 161.591 18.4647 162.464 18.4647 163.5C18.4647 164.536 18.1054 165.409 17.3867 166.118ZM14.7687 165.992C15.4687 165.992 16.0567 165.754 16.5327 165.278C17.0087 164.802 17.2467 164.209 17.2467 163.5C17.2467 162.791 17.0087 162.198 16.5327 161.722C16.0567 161.246 15.4687 161.008 14.7687 161.008C14.078 161.008 13.4947 161.246 13.0187 161.722C12.5427 162.198 12.3047 162.791 12.3047 163.5C12.3047 164.209 12.5427 164.802 13.0187 165.278C13.4947 165.754 14.078 165.992 14.7687 165.992ZM23.0786 167.182C22.0426 167.182 21.1886 166.841 20.5166 166.16C19.8446 165.479 19.5086 164.601 19.5086 163.528C19.5086 162.333 19.6812 161.414 20.0266 160.77C20.3812 160.126 21.0999 159.543 22.1826 159.02C22.3786 158.927 22.6446 158.805 22.9806 158.656C23.3259 158.507 23.5779 158.395 23.7366 158.32C23.8952 158.236 24.0726 158.129 24.2686 157.998C24.4646 157.858 24.6092 157.709 24.7026 157.55C24.8052 157.382 24.8799 157.191 24.9266 156.976L25.9066 157.536C25.8786 157.685 25.8412 157.825 25.7946 157.956C25.7479 158.077 25.6779 158.199 25.5846 158.32C25.5006 158.432 25.4259 158.53 25.3606 158.614C25.2952 158.698 25.1832 158.791 25.0246 158.894C24.8752 158.987 24.7632 159.057 24.6886 159.104C24.6232 159.151 24.4879 159.221 24.2826 159.314C24.0866 159.407 23.9512 159.473 23.8766 159.51C23.8112 159.538 23.6572 159.603 23.4146 159.706C23.1719 159.799 23.0226 159.86 22.9666 159.888C22.3319 160.159 21.8652 160.434 21.5666 160.714C21.2772 160.994 21.0672 161.349 20.9366 161.778C21.2352 161.405 21.6086 161.129 22.0566 160.952C22.5046 160.775 22.9526 160.686 23.4006 160.686C24.2779 160.686 25.0199 160.985 25.6266 161.582C26.2426 162.179 26.5506 162.949 26.5506 163.892C26.5506 164.844 26.2239 165.633 25.5706 166.258C24.9172 166.874 24.0866 167.182 23.0786 167.182ZM21.4406 165.39C21.8792 165.801 22.4252 166.006 23.0786 166.006C23.7319 166.006 24.2686 165.805 24.6886 165.404C25.1179 165.003 25.3326 164.499 25.3326 163.892C25.3326 163.267 25.1272 162.758 24.7166 162.366C24.3152 161.965 23.7832 161.764 23.1206 161.764C22.5232 161.764 21.9819 161.955 21.4966 162.338C21.0206 162.711 20.7826 163.206 20.7826 163.822C20.7826 164.457 21.0019 164.979 21.4406 165.39ZM37.3639 165.838H38.3299V168.876H37.1259V167H27.8439V160H29.0619V165.838H32.0019V160H33.2199V165.838H36.1459V160H37.3639V165.838ZM40.2233 164.06C40.3446 164.685 40.6293 165.171 41.0773 165.516C41.5346 165.861 42.0946 166.034 42.7573 166.034C43.6813 166.034 44.3533 165.693 44.7733 165.012L45.8093 165.6C45.128 166.655 44.1013 167.182 42.7293 167.182C41.6186 167.182 40.7133 166.837 40.0133 166.146C39.3226 165.446 38.9773 164.564 38.9773 163.5C38.9773 162.445 39.318 161.568 39.9993 160.868C40.6806 160.168 41.5626 159.818 42.6453 159.818C43.672 159.818 44.5073 160.182 45.1513 160.91C45.8046 161.629 46.1313 162.497 46.1313 163.514C46.1313 163.691 46.1173 163.873 46.0893 164.06H40.2233ZM42.6453 160.966C41.992 160.966 41.4506 161.153 41.0213 161.526C40.592 161.89 40.326 162.38 40.2233 162.996H44.8993C44.7966 162.333 44.5353 161.829 44.1153 161.484C43.6953 161.139 43.2053 160.966 42.6453 160.966ZM50.8078 167.182C49.7531 167.182 48.8758 166.832 48.1758 166.132C47.4758 165.423 47.1258 164.545 47.1258 163.5C47.1258 162.455 47.4758 161.582 48.1758 160.882C48.8758 160.173 49.7531 159.818 50.8078 159.818C51.4984 159.818 52.1191 159.986 52.6698 160.322C53.2204 160.649 53.6311 161.092 53.9018 161.652L52.8798 162.24C52.7024 161.867 52.4271 161.568 52.0538 161.344C51.6898 161.12 51.2744 161.008 50.8078 161.008C50.1078 161.008 49.5198 161.246 49.0438 161.722C48.5771 162.198 48.3438 162.791 48.3438 163.5C48.3438 164.2 48.5771 164.788 49.0438 165.264C49.5198 165.74 50.1078 165.978 50.8078 165.978C51.2744 165.978 51.6944 165.871 52.0678 165.656C52.4411 165.432 52.7258 165.133 52.9218 164.76L53.9578 165.362C53.6591 165.913 53.2298 166.356 52.6698 166.692C52.1098 167.019 51.4891 167.182 50.8078 167.182ZM60.259 160V161.176H57.879V167H56.661V161.176H54.267V160H60.259ZM65.9883 163.402C66.707 163.701 67.0663 164.242 67.0663 165.026C67.0663 165.605 66.8703 166.081 66.4783 166.454C66.0957 166.818 65.545 167 64.8263 167H61.3263V160H64.5463C65.2463 160 65.7877 160.177 66.1703 160.532C66.553 160.877 66.7443 161.335 66.7443 161.904C66.7443 162.576 66.4923 163.075 65.9883 163.402ZM64.4903 161.092H62.5163V162.926H64.4903C65.1997 162.926 65.5543 162.613 65.5543 161.988C65.5543 161.391 65.1997 161.092 64.4903 161.092ZM64.7563 165.894C65.111 165.894 65.3817 165.81 65.5683 165.642C65.7643 165.474 65.8623 165.236 65.8623 164.928C65.8623 164.639 65.7643 164.415 65.5683 164.256C65.3817 164.088 65.111 164.004 64.7563 164.004H62.5163V165.894H64.7563ZM69.235 164.06C69.3564 164.685 69.641 165.171 70.089 165.516C70.5464 165.861 71.1064 166.034 71.769 166.034C72.693 166.034 73.365 165.693 73.785 165.012L74.821 165.6C74.1397 166.655 73.113 167.182 71.741 167.182C70.6304 167.182 69.725 166.837 69.025 166.146C68.3344 165.446 67.989 164.564 67.989 163.5C67.989 162.445 68.3297 161.568 69.011 160.868C69.6924 160.168 70.5744 159.818 71.657 159.818C72.6837 159.818 73.519 160.182 74.163 160.91C74.8164 161.629 75.143 162.497 75.143 163.514C75.143 163.691 75.129 163.873 75.101 164.06H69.235ZM71.657 160.966C71.0037 160.966 70.4624 161.153 70.033 161.526C69.6037 161.89 69.3377 162.38 69.235 162.996H73.911C73.8084 162.333 73.547 161.829 73.127 161.484C72.707 161.139 72.217 160.966 71.657 160.966ZM81.3871 160H82.6051V167H81.3871V164.074H77.7611V167H76.5431V160H77.7611V162.912H81.3871V160ZM89.3032 160H90.5212V167H89.3032V164.074H85.6772V167H84.4592V160H85.6772V162.912H89.3032V160ZM98.2832 166.118C97.5645 166.827 96.6918 167.182 95.6652 167.182C94.6385 167.182 93.7658 166.827 93.0472 166.118C92.3378 165.409 91.9832 164.536 91.9832 163.5C91.9832 162.464 92.3378 161.591 93.0472 160.882C93.7658 160.173 94.6385 159.818 95.6652 159.818C96.6918 159.818 97.5645 160.173 98.2832 160.882C99.0018 161.591 99.3612 162.464 99.3612 163.5C99.3612 164.536 99.0018 165.409 98.2832 166.118ZM95.6652 165.992C96.3652 165.992 96.9532 165.754 97.4292 165.278C97.9052 164.802 98.1432 164.209 98.1432 163.5C98.1432 162.791 97.9052 162.198 97.4292 161.722C96.9532 161.246 96.3652 161.008 95.6652 161.008C94.9745 161.008 94.3912 161.246 93.9152 161.722C93.4392 162.198 93.2012 162.791 93.2012 163.5C93.2012 164.209 93.4392 164.802 93.9152 165.278C94.3912 165.754 94.9745 165.992 95.6652 165.992ZM107.797 160V167H106.607V161.918L104.381 165.502H104.227L102.001 161.918V167H100.797V160H102.099L104.297 163.542L106.495 160H107.797ZM6.132 176V177.176H3.752V183H2.534V177.176H0.14V176H6.132ZM11.0634 175.818C12.0434 175.818 12.8787 176.177 13.5694 176.896C14.2601 177.605 14.6054 178.473 14.6054 179.5C14.6054 180.527 14.2601 181.399 13.5694 182.118C12.8787 182.827 12.0434 183.182 11.0634 183.182C9.90606 183.182 9.02406 182.72 8.41739 181.796V185.8H7.19939V176H8.41739V177.204C9.02406 176.28 9.90606 175.818 11.0634 175.818ZM10.9094 182.006C11.6094 182.006 12.1974 181.768 12.6734 181.292C13.1494 180.807 13.3874 180.209 13.3874 179.5C13.3874 178.791 13.1494 178.198 12.6734 177.722C12.1974 177.237 11.6094 176.994 10.9094 176.994C10.2001 176.994 9.60739 177.237 9.13139 177.722C8.65539 178.198 8.41739 178.791 8.41739 179.5C8.41739 180.209 8.65539 180.807 9.13139 181.292C9.60739 181.768 10.2001 182.006 10.9094 182.006ZM21.8548 176H23.0728V183H21.8548V181.796C21.2481 182.72 20.3661 183.182 19.2088 183.182C18.2288 183.182 17.3934 182.827 16.7028 182.118C16.0121 181.399 15.6668 180.527 15.6668 179.5C15.6668 178.473 16.0121 177.605 16.7028 176.896C17.3934 176.177 18.2288 175.818 19.2088 175.818C20.3661 175.818 21.2481 176.28 21.8548 177.204V176ZM19.3628 182.006C20.0721 182.006 20.6648 181.768 21.1408 181.292C21.6168 180.807 21.8548 180.209 21.8548 179.5C21.8548 178.791 21.6168 178.198 21.1408 177.722C20.6648 177.237 20.0721 176.994 19.3628 176.994C18.6628 176.994 18.0748 177.237 17.5988 177.722C17.1228 178.198 16.8848 178.791 16.8848 179.5C16.8848 180.209 17.1228 180.807 17.5988 181.292C18.0748 181.768 18.6628 182.006 19.3628 182.006ZM29.7621 176H30.9801V183H29.7621V180.074H26.1361V183H24.9181V176H26.1361V178.912H29.7621V176ZM36.1242 183.182C35.0695 183.182 34.1922 182.832 33.4922 182.132C32.7922 181.423 32.4422 180.545 32.4422 179.5C32.4422 178.455 32.7922 177.582 33.4922 176.882C34.1922 176.173 35.0695 175.818 36.1242 175.818C36.8148 175.818 37.4355 175.986 37.9862 176.322C38.5368 176.649 38.9475 177.092 39.2182 177.652L38.1962 178.24C38.0188 177.867 37.7435 177.568 37.3702 177.344C37.0062 177.12 36.5908 177.008 36.1242 177.008C35.4242 177.008 34.8362 177.246 34.3602 177.722C33.8935 178.198 33.6602 178.791 33.6602 179.5C33.6602 180.2 33.8935 180.788 34.3602 181.264C34.8362 181.74 35.4242 181.978 36.1242 181.978C36.5908 181.978 37.0108 181.871 37.3842 181.656C37.7575 181.432 38.0422 181.133 38.2382 180.76L39.2742 181.362C38.9755 181.913 38.5462 182.356 37.9862 182.692C37.4262 183.019 36.8055 183.182 36.1242 183.182ZM46.5524 176V183H45.3344V177.162H41.7084V183H40.4904V176H46.5524ZM54.3144 182.118C53.5958 182.827 52.7231 183.182 51.6964 183.182C50.6698 183.182 49.7971 182.827 49.0784 182.118C48.3691 181.409 48.0144 180.536 48.0144 179.5C48.0144 178.464 48.3691 177.591 49.0784 176.882C49.7971 176.173 50.6698 175.818 51.6964 175.818C52.7231 175.818 53.5958 176.173 54.3144 176.882C55.0331 177.591 55.3924 178.464 55.3924 179.5C55.3924 180.536 55.0331 181.409 54.3144 182.118ZM51.6964 181.992C52.3964 181.992 52.9844 181.754 53.4604 181.278C53.9364 180.802 54.1744 180.209 54.1744 179.5C54.1744 178.791 53.9364 178.198 53.4604 177.722C52.9844 177.246 52.3964 177.008 51.6964 177.008C51.0058 177.008 50.4224 177.246 49.9464 177.722C49.4704 178.198 49.2324 178.791 49.2324 179.5C49.2324 180.209 49.4704 180.802 49.9464 181.278C50.4224 181.754 51.0058 181.992 51.6964 181.992ZM60.6923 175.818C61.6723 175.818 62.5076 176.177 63.1983 176.896C63.889 177.605 64.2343 178.473 64.2343 179.5C64.2343 180.527 63.889 181.399 63.1983 182.118C62.5076 182.827 61.6723 183.182 60.6923 183.182C59.535 183.182 58.653 182.72 58.0463 181.796V185.8H56.8283V176H58.0463V177.204C58.653 176.28 59.535 175.818 60.6923 175.818ZM60.5383 182.006C61.2383 182.006 61.8263 181.768 62.3023 181.292C62.7783 180.807 63.0163 180.209 63.0163 179.5C63.0163 178.791 62.7783 178.198 62.3023 177.722C61.8263 177.237 61.2383 176.994 60.5383 176.994C59.829 176.994 59.2363 177.237 58.7603 177.722C58.2843 178.198 58.0463 178.791 58.0463 179.5C58.0463 180.209 58.2843 180.807 58.7603 181.292C59.2363 181.768 59.829 182.006 60.5383 182.006ZM70.6222 176V177.176H68.2422V183H67.0242V177.176H64.6302V176H70.6222ZM72.2702 180.06C72.3915 180.685 72.6762 181.171 73.1242 181.516C73.5815 181.861 74.1415 182.034 74.8042 182.034C75.7282 182.034 76.4002 181.693 76.8202 181.012L77.8562 181.6C77.1749 182.655 76.1482 183.182 74.7762 183.182C73.6655 183.182 72.7602 182.837 72.0602 182.146C71.3695 181.446 71.0242 180.564 71.0242 179.5C71.0242 178.445 71.3649 177.568 72.0462 176.868C72.7275 176.168 73.6095 175.818 74.6922 175.818C75.7189 175.818 76.5542 176.182 77.1982 176.91C77.8515 177.629 78.1782 178.497 78.1782 179.514C78.1782 179.691 78.1642 179.873 78.1362 180.06H72.2702ZM74.6922 176.966C74.0389 176.966 73.4975 177.153 73.0682 177.526C72.6389 177.89 72.3729 178.38 72.2702 178.996H76.9462C76.8435 178.333 76.5822 177.829 76.1622 177.484C75.7422 177.139 75.2522 176.966 74.6922 176.966ZM79.7878 183.154C79.5358 183.154 79.3211 183.065 79.1438 182.888C78.9664 182.711 78.8778 182.496 78.8778 182.244C78.8778 181.992 78.9664 181.777 79.1438 181.6C79.3211 181.423 79.5358 181.334 79.7878 181.334C80.0491 181.334 80.2638 181.423 80.4318 181.6C80.6091 181.777 80.6978 181.992 80.6978 182.244C80.6978 182.496 80.6091 182.711 80.4318 182.888C80.2638 183.065 80.0491 183.154 79.7878 183.154Z" fill="white"/>
<line x1="50" y1="46" y2="46" stroke="#ED564F" stroke-width="2"/>
<circle cx="55" cy="45" r="45" fill="url(#paint0_radial)"/>
<circle cx="55" cy="44" r="30" fill="#212121" fill-opacity="0.5"/>
<circle cx="55" cy="45" r="25" fill="#ED564F"/>
<path d="M69.0386 51.686C69.0386 53.8002 67.2016 55.6415 65.1575 55.6415H45.7518C43.7077 55.6415 41.8707 53.8684 41.8707 51.7542V38.1827C41.8707 36.0685 43.7077 34.2953 45.7518 34.2953H65.1575C67.2016 34.2953 69.0386 36.0685 69.0386 38.1827V51.686Z" stroke="white" stroke-width="2" stroke-miterlimit="10" stroke-linecap="round" stroke-linejoin="round"/>
<path d="M55.4545 51.7604V48.8495C55.4545 46.1702 53.2825 43.9981 50.6031 43.9981V43.9981C47.9238 43.9981 45.7517 46.1702 45.7517 48.8495V51.7604" stroke="white" stroke-width="2"/>
<circle cx="50.6032" cy="41.0873" r="2.91084" stroke="white" stroke-width="2"/>
<path d="M57.3953 40.117H65.1575" stroke="white" stroke-width="2" stroke-linecap="round"/>
<path d="M57.3953 43.9981H61.2764" stroke="white" stroke-width="2" stroke-linecap="round"/>
<defs>
<radialGradient id="paint0_radial" cx="0" cy="0" r="1" gradientUnits="userSpaceOnUse" gradientTransform="translate(55 45) rotate(90) scale(45)">
<stop stop-color="#ED564F"/>
<stop offset="1" stop-color="#ED564F" stop-opacity="0"/>
</radialGradient>
</defs>
</svg>
