<svg width="168" height="155" viewBox="0 0 168 155" fill="none" xmlns="http://www.w3.org/2000/svg">
<path d="M7.112 94.2H8.4V104H7.112V99.59H2.352V104H1.05V94.2H2.352V98.358H7.112V94.2ZM16.1673 97H17.3853V104H16.1673V102.796C15.5606 103.72 14.6786 104.182 13.5213 104.182C12.5413 104.182 11.7059 103.827 11.0153 103.118C10.3246 102.399 9.97927 101.527 9.97927 100.5C9.97927 99.4733 10.3246 98.6053 11.0153 97.896C11.7059 97.1773 12.5413 96.818 13.5213 96.818C14.6786 96.818 15.5606 97.28 16.1673 98.204V97ZM13.6753 103.006C14.3846 103.006 14.9773 102.768 15.4533 102.292C15.9293 101.807 16.1673 101.209 16.1673 100.5C16.1673 99.7907 15.9293 99.198 15.4533 98.722C14.9773 98.2367 14.3846 97.994 13.6753 97.994C12.9753 97.994 12.3873 98.2367 11.9113 98.722C11.4353 99.198 11.1973 99.7907 11.1973 100.5C11.1973 101.209 11.4353 101.807 11.9113 102.292C12.3873 102.768 12.9753 103.006 13.6753 103.006ZM25.2506 102.838H26.2166V105.876H25.0126V104H19.7626V105.876H18.5586V102.838H19.4126C19.8606 102.222 20.0846 101.359 20.0846 100.248V97H25.2506V102.838ZM20.7986 102.838H24.0466V98.134H21.2886V100.248C21.2886 101.293 21.1253 102.157 20.7986 102.838ZM28.11 101.06C28.2314 101.685 28.516 102.171 28.964 102.516C29.4214 102.861 29.9814 103.034 30.644 103.034C31.568 103.034 32.24 102.693 32.66 102.012L33.696 102.6C33.0147 103.655 31.988 104.182 30.616 104.182C29.5054 104.182 28.6 103.837 27.9 103.146C27.2094 102.446 26.864 101.564 26.864 100.5C26.864 99.4453 27.2047 98.568 27.886 97.868C28.5674 97.168 29.4494 96.818 30.532 96.818C31.5587 96.818 32.394 97.182 33.038 97.91C33.6914 98.6287 34.018 99.4967 34.018 100.514C34.018 100.691 34.004 100.873 33.976 101.06H28.11ZM30.532 97.966C29.8787 97.966 29.3374 98.1527 28.908 98.526C28.4787 98.89 28.2127 99.38 28.11 99.996H32.786C32.6834 99.3333 32.422 98.8293 32.002 98.484C31.582 98.1387 31.092 97.966 30.532 97.966ZM43.5906 104H42.1626L39.5446 100.682V104H38.3406V100.682L35.7226 104H34.3086L37.2346 100.388L34.4486 97H35.8626L38.3406 100.094V97H39.5446V100.094L42.0226 97H43.4506L40.6506 100.388L43.5906 104ZM49.6 97H50.818V104H49.6V101.074H45.974V104H44.756V97H45.974V99.912H49.6V97ZM58.468 97H59.686V104H58.468V102.796C57.8614 103.72 56.9794 104.182 55.822 104.182C54.842 104.182 54.0067 103.827 53.316 103.118C52.6254 102.399 52.28 101.527 52.28 100.5C52.28 99.4733 52.6254 98.6053 53.316 97.896C54.0067 97.1773 54.842 96.818 55.822 96.818C56.9794 96.818 57.8614 97.28 58.468 98.204V97ZM55.976 103.006C56.6854 103.006 57.278 102.768 57.754 102.292C58.23 101.807 58.468 101.209 58.468 100.5C58.468 99.7907 58.23 99.198 57.754 98.722C57.278 98.2367 56.6854 97.994 55.976 97.994C55.276 97.994 54.688 98.2367 54.212 98.722C53.736 99.198 53.498 99.7907 53.498 100.5C53.498 101.209 53.736 101.807 54.212 102.292C54.688 102.768 55.276 103.006 55.976 103.006ZM66.7674 97V104H65.5634V101.48H64.5414L62.5814 104H61.0974L63.1414 101.41C62.6188 101.279 62.1941 101.018 61.8674 100.626C61.5408 100.234 61.3774 99.7767 61.3774 99.254C61.3774 98.61 61.6061 98.0733 62.0634 97.644C62.5208 97.2147 63.0948 97 63.7854 97H66.7674ZM63.8274 100.388H65.5634V98.134H63.8274C63.4821 98.134 63.1881 98.2367 62.9454 98.442C62.7028 98.6473 62.5814 98.9227 62.5814 99.268C62.5814 99.604 62.7028 99.8747 62.9454 100.08C63.1881 100.285 63.4821 100.388 63.8274 100.388ZM75.8935 100.416C76.6681 100.733 77.0555 101.289 77.0555 102.082C77.0555 102.67 76.8221 103.169 76.3555 103.58C75.8888 103.981 75.2261 104.182 74.3675 104.182C72.9675 104.182 72.0295 103.622 71.5535 102.502L72.5755 101.9C72.8461 102.665 73.4481 103.048 74.3815 103.048C74.8481 103.048 75.2075 102.95 75.4595 102.754C75.7208 102.549 75.8515 102.287 75.8515 101.97C75.8515 101.69 75.7441 101.461 75.5295 101.284C75.3241 101.107 75.0441 101.018 74.6895 101.018H73.6675V99.912H74.4235C74.7781 99.912 75.0535 99.828 75.2495 99.66C75.4455 99.4827 75.5435 99.2447 75.5435 98.946C75.5435 98.6473 75.4268 98.4047 75.1935 98.218C74.9695 98.0313 74.6568 97.938 74.2555 97.938C73.4715 97.938 72.9395 98.2693 72.6595 98.932L71.6655 98.358C72.1601 97.3313 73.0235 96.818 74.2555 96.818C75.0208 96.818 75.6228 97.014 76.0615 97.406C76.5095 97.798 76.7335 98.2787 76.7335 98.848C76.7335 99.5573 76.4535 100.08 75.8935 100.416ZM84.1712 97H85.3892V104H84.1712V102.796C83.5645 103.72 82.6825 104.182 81.5252 104.182C80.5452 104.182 79.7098 103.827 79.0192 103.118C78.3285 102.399 77.9832 101.527 77.9832 100.5C77.9832 99.4733 78.3285 98.6053 79.0192 97.896C79.7098 97.1773 80.5452 96.818 81.5252 96.818C82.6825 96.818 83.5645 97.28 84.1712 98.204V97ZM81.6792 103.006C82.3885 103.006 82.9812 102.768 83.4572 102.292C83.9332 101.807 84.1712 101.209 84.1712 100.5C84.1712 99.7907 83.9332 99.198 83.4572 98.722C82.9812 98.2367 82.3885 97.994 81.6792 97.994C80.9792 97.994 80.3912 98.2367 79.9152 98.722C79.4392 99.198 79.2012 99.7907 79.2012 100.5C79.2012 101.209 79.4392 101.807 79.9152 102.292C80.3912 102.768 80.9792 103.006 81.6792 103.006ZM96.7545 102.838H97.7205V105.876H96.5165V104H87.2345V97H88.4525V102.838H91.3925V97H92.6105V102.838H95.5365V97H96.7545V102.838ZM104.115 97H105.095V104H103.891V99.086L100.013 104H99.0334V97H100.237V101.914L104.115 97ZM112.157 97V98.176H109.777V104H108.559V98.176H106.165V97H112.157ZM118.747 97H119.965V104H118.747V102.796C118.141 103.72 117.259 104.182 116.101 104.182C115.121 104.182 114.286 103.827 113.595 103.118C112.905 102.399 112.559 101.527 112.559 100.5C112.559 99.4733 112.905 98.6053 113.595 97.896C114.286 97.1773 115.121 96.818 116.101 96.818C117.259 96.818 118.141 97.28 118.747 98.204V97ZM116.255 103.006C116.965 103.006 117.557 102.768 118.033 102.292C118.509 101.807 118.747 101.209 118.747 100.5C118.747 99.7907 118.509 99.198 118.033 98.722C117.557 98.2367 116.965 97.994 116.255 97.994C115.555 97.994 114.967 98.2367 114.491 98.722C114.015 99.198 113.777 99.7907 113.777 100.5C113.777 101.209 114.015 101.807 114.491 102.292C114.967 102.768 115.555 103.006 116.255 103.006ZM131.219 103.118C130.5 103.827 129.627 104.182 128.601 104.182C127.574 104.182 126.701 103.827 125.983 103.118C125.273 102.409 124.919 101.536 124.919 100.5C124.919 99.464 125.273 98.5913 125.983 97.882C126.701 97.1727 127.574 96.818 128.601 96.818C129.627 96.818 130.5 97.1727 131.219 97.882C131.937 98.5913 132.297 99.464 132.297 100.5C132.297 101.536 131.937 102.409 131.219 103.118ZM128.601 102.992C129.301 102.992 129.889 102.754 130.365 102.278C130.841 101.802 131.079 101.209 131.079 100.5C131.079 99.7907 130.841 99.198 130.365 98.722C129.889 98.246 129.301 98.008 128.601 98.008C127.91 98.008 127.327 98.246 126.851 98.722C126.375 99.198 126.137 99.7907 126.137 100.5C126.137 101.209 126.375 101.802 126.851 102.278C127.327 102.754 127.91 102.992 128.601 102.992ZM138.667 97V98.176H136.287V104H135.069V98.176H132.675V97H138.667ZM6.944 118.838H7.91V121.876H6.706V120H1.456V121.876H0.252V118.838H1.106C1.554 118.222 1.778 117.359 1.778 116.248V113H6.944V118.838ZM2.492 118.838H5.74V114.134H2.982V116.248C2.982 117.293 2.81867 118.157 2.492 118.838ZM14.8574 119.118C14.1387 119.827 13.2661 120.182 12.2394 120.182C11.2127 120.182 10.3401 119.827 9.62139 119.118C8.91206 118.409 8.55739 117.536 8.55739 116.5C8.55739 115.464 8.91206 114.591 9.62139 113.882C10.3401 113.173 11.2127 112.818 12.2394 112.818C13.2661 112.818 14.1387 113.173 14.8574 113.882C15.5761 114.591 15.9354 115.464 15.9354 116.5C15.9354 117.536 15.5761 118.409 14.8574 119.118ZM12.2394 118.992C12.9394 118.992 13.5274 118.754 14.0034 118.278C14.4794 117.802 14.7174 117.209 14.7174 116.5C14.7174 115.791 14.4794 115.198 14.0034 114.722C13.5274 114.246 12.9394 114.008 12.2394 114.008C11.5487 114.008 10.9654 114.246 10.4894 114.722C10.0134 115.198 9.77539 115.791 9.77539 116.5C9.77539 117.209 10.0134 117.802 10.4894 118.278C10.9654 118.754 11.5487 118.992 12.2394 118.992ZM20.6613 120.182C19.6066 120.182 18.7293 119.832 18.0293 119.132C17.3293 118.423 16.9793 117.545 16.9793 116.5C16.9793 115.455 17.3293 114.582 18.0293 113.882C18.7293 113.173 19.6066 112.818 20.6613 112.818C21.3519 112.818 21.9726 112.986 22.5233 113.322C23.0739 113.649 23.4846 114.092 23.7553 114.652L22.7333 115.24C22.5559 114.867 22.2806 114.568 21.9073 114.344C21.5433 114.12 21.1279 114.008 20.6613 114.008C19.9613 114.008 19.3733 114.246 18.8973 114.722C18.4306 115.198 18.1973 115.791 18.1973 116.5C18.1973 117.2 18.4306 117.788 18.8973 118.264C19.3733 118.74 19.9613 118.978 20.6613 118.978C21.1279 118.978 21.5479 118.871 21.9213 118.656C22.2946 118.432 22.5793 118.133 22.7753 117.76L23.8113 118.362C23.5126 118.913 23.0833 119.356 22.5233 119.692C21.9633 120.019 21.3426 120.182 20.6613 120.182ZM30.1125 113V114.176H27.7325V120H26.5145V114.176H24.1205V113H30.1125ZM36.1069 113H37.4089L34.5529 120.434C34.2542 121.227 33.8342 121.829 33.2929 122.24C32.7515 122.66 32.1355 122.847 31.4449 122.8V121.666C32.3035 121.731 32.9335 121.265 33.3349 120.266L33.4469 120.014L30.4089 113H31.6969L34.0909 118.488L36.1069 113ZM44.488 113V120H43.27V114.162H39.644V120H38.426V113H44.488ZM52.138 113H53.356V120H52.138V118.796C51.5313 119.72 50.6493 120.182 49.492 120.182C48.512 120.182 47.6766 119.827 46.986 119.118C46.2953 118.399 45.95 117.527 45.95 116.5C45.95 115.473 46.2953 114.605 46.986 113.896C47.6766 113.177 48.512 112.818 49.492 112.818C50.6493 112.818 51.5313 113.28 52.138 114.204V113ZM49.646 119.006C50.3553 119.006 50.948 118.768 51.424 118.292C51.9 117.807 52.138 117.209 52.138 116.5C52.138 115.791 51.9 115.198 51.424 114.722C50.948 114.237 50.3553 113.994 49.646 113.994C48.946 113.994 48.358 114.237 47.882 114.722C47.406 115.198 47.168 115.791 47.168 116.5C47.168 117.209 47.406 117.807 47.882 118.292C48.358 118.768 48.946 119.006 49.646 119.006ZM64.7633 113V120H63.5453V114.162H59.9193V120H58.7013V113H64.7633ZM72.5254 119.118C71.8067 119.827 70.934 120.182 69.9074 120.182C68.8807 120.182 68.008 119.827 67.2894 119.118C66.58 118.409 66.2254 117.536 66.2254 116.5C66.2254 115.464 66.58 114.591 67.2894 113.882C68.008 113.173 68.8807 112.818 69.9074 112.818C70.934 112.818 71.8067 113.173 72.5254 113.882C73.244 114.591 73.6034 115.464 73.6034 116.5C73.6034 117.536 73.244 118.409 72.5254 119.118ZM69.9074 118.992C70.6074 118.992 71.1954 118.754 71.6714 118.278C72.1474 117.802 72.3854 117.209 72.3854 116.5C72.3854 115.791 72.1474 115.198 71.6714 114.722C71.1954 114.246 70.6074 114.008 69.9074 114.008C69.2167 114.008 68.6334 114.246 68.1574 114.722C67.6814 115.198 67.4434 115.791 67.4434 116.5C67.4434 117.209 67.6814 117.802 68.1574 118.278C68.6334 118.754 69.2167 118.992 69.9074 118.992ZM78.3292 120.182C77.2746 120.182 76.3972 119.832 75.6972 119.132C74.9972 118.423 74.6472 117.545 74.6472 116.5C74.6472 115.455 74.9972 114.582 75.6972 113.882C76.3972 113.173 77.2746 112.818 78.3292 112.818C79.0199 112.818 79.6406 112.986 80.1912 113.322C80.7419 113.649 81.1526 114.092 81.4232 114.652L80.4012 115.24C80.2239 114.867 79.9486 114.568 79.5752 114.344C79.2112 114.12 78.7959 114.008 78.3292 114.008C77.6292 114.008 77.0412 114.246 76.5652 114.722C76.0986 115.198 75.8652 115.791 75.8652 116.5C75.8652 117.2 76.0986 117.788 76.5652 118.264C77.0412 118.74 77.6292 118.978 78.3292 118.978C78.7959 118.978 79.2159 118.871 79.5892 118.656C79.9626 118.432 80.2472 118.133 80.4432 117.76L81.4792 118.362C81.1806 118.913 80.7512 119.356 80.1912 119.692C79.6312 120.019 79.0106 120.182 78.3292 120.182ZM87.7804 113V114.176H85.4004V120H84.1824V114.176H81.7884V113H87.7804ZM94.4824 119.118C93.7637 119.827 92.8911 120.182 91.8644 120.182C90.8377 120.182 89.9651 119.827 89.2464 119.118C88.5371 118.409 88.1824 117.536 88.1824 116.5C88.1824 115.464 88.5371 114.591 89.2464 113.882C89.9651 113.173 90.8377 112.818 91.8644 112.818C92.8911 112.818 93.7637 113.173 94.4824 113.882C95.2011 114.591 95.5604 115.464 95.5604 116.5C95.5604 117.536 95.2011 118.409 94.4824 119.118ZM91.8644 118.992C92.5644 118.992 93.1524 118.754 93.6284 118.278C94.1044 117.802 94.3424 117.209 94.3424 116.5C94.3424 115.791 94.1044 115.198 93.6284 114.722C93.1524 114.246 92.5644 114.008 91.8644 114.008C91.1737 114.008 90.5904 114.246 90.1144 114.722C89.6384 115.198 89.4004 115.791 89.4004 116.5C89.4004 117.209 89.6384 117.802 90.1144 118.278C90.5904 118.754 91.1737 118.992 91.8644 118.992ZM100.86 112.818C101.84 112.818 102.676 113.177 103.366 113.896C104.057 114.605 104.402 115.473 104.402 116.5C104.402 117.527 104.057 118.399 103.366 119.118C102.676 119.827 101.84 120.182 100.86 120.182C99.7029 120.182 98.8209 119.72 98.2143 118.796V122.8H96.9963V113H98.2143V114.204C98.8209 113.28 99.7029 112.818 100.86 112.818ZM100.706 119.006C101.406 119.006 101.994 118.768 102.47 118.292C102.946 117.807 103.184 117.209 103.184 116.5C103.184 115.791 102.946 115.198 102.47 114.722C101.994 114.237 101.406 113.994 100.706 113.994C99.9969 113.994 99.4043 114.237 98.9283 114.722C98.4523 115.198 98.2143 115.791 98.2143 116.5C98.2143 117.209 98.4523 117.807 98.9283 118.292C99.4043 118.768 99.9969 119.006 100.706 119.006ZM111.764 119.118C111.045 119.827 110.172 120.182 109.146 120.182C108.119 120.182 107.246 119.827 106.528 119.118C105.818 118.409 105.464 117.536 105.464 116.5C105.464 115.464 105.818 114.591 106.528 113.882C107.246 113.173 108.119 112.818 109.146 112.818C110.172 112.818 111.045 113.173 111.764 113.882C112.482 114.591 112.842 115.464 112.842 116.5C112.842 117.536 112.482 118.409 111.764 119.118ZM109.146 118.992C109.846 118.992 110.434 118.754 110.91 118.278C111.386 117.802 111.624 117.209 111.624 116.5C111.624 115.791 111.386 115.198 110.91 114.722C110.434 114.246 109.846 114.008 109.146 114.008C108.455 114.008 107.872 114.246 107.396 114.722C106.92 115.198 106.682 115.791 106.682 116.5C106.682 117.209 106.92 117.802 107.396 118.278C107.872 118.754 108.455 118.992 109.146 118.992ZM119.122 113H120.34V120H119.122V117.074H115.496V120H114.278V113H115.496V115.912H119.122V113ZM127.038 113H128.256V120H127.038V117.074H123.412V120H122.194V113H123.412V115.912H127.038V113ZM135.192 113H136.172V120H134.968V115.086L131.09 120H130.11V113H131.314V117.914L135.192 113ZM144.102 120H142.674L140.714 117.354L138.74 120H137.312L140 116.402L137.466 113H138.908L140.714 115.436L142.52 113H143.948L141.428 116.388L144.102 120ZM2.352 137.4C1.32533 135.347 0.812 133.247 0.812 131.1C0.812 128.953 1.32533 126.853 2.352 124.8H3.57C2.54333 126.853 2.03 128.953 2.03 131.1C2.03 133.247 2.54333 135.347 3.57 137.4H2.352ZM9.50983 132.402C10.2285 132.701 10.5878 133.242 10.5878 134.026C10.5878 134.605 10.3918 135.081 9.99983 135.454C9.61716 135.818 9.06649 136 8.34783 136H4.84783V129H8.06783C8.76783 129 9.30916 129.177 9.69183 129.532C10.0745 129.877 10.2658 130.335 10.2658 130.904C10.2658 131.576 10.0138 132.075 9.50983 132.402ZM8.01183 130.092H6.03783V131.926H8.01183C8.72116 131.926 9.07583 131.613 9.07583 130.988C9.07583 130.391 8.72116 130.092 8.01183 130.092ZM8.27783 134.894C8.63249 134.894 8.90316 134.81 9.08983 134.642C9.28583 134.474 9.38383 134.236 9.38383 133.928C9.38383 133.639 9.28583 133.415 9.08983 133.256C8.90316 133.088 8.63249 133.004 8.27783 133.004H6.03783V134.894H8.27783ZM12.7565 133.06C12.8778 133.685 13.1625 134.171 13.6105 134.516C14.0678 134.861 14.6278 135.034 15.2905 135.034C16.2145 135.034 16.8865 134.693 17.3065 134.012L18.3425 134.6C17.6612 135.655 16.6345 136.182 15.2625 136.182C14.1518 136.182 13.2465 135.837 12.5465 135.146C11.8558 134.446 11.5105 133.564 11.5105 132.5C11.5105 131.445 11.8512 130.568 12.5325 129.868C13.2138 129.168 14.0958 128.818 15.1785 128.818C16.2052 128.818 17.0405 129.182 17.6845 129.91C18.3378 130.629 18.6645 131.497 18.6645 132.514C18.6645 132.691 18.6505 132.873 18.6225 133.06H12.7565ZM15.1785 129.966C14.5252 129.966 13.9838 130.153 13.5545 130.526C13.1252 130.89 12.8592 131.38 12.7565 131.996H17.4325C17.3298 131.333 17.0685 130.829 16.6485 130.484C16.2285 130.139 15.7385 129.966 15.1785 129.966ZM23.9286 128.818C24.9086 128.818 25.744 129.177 26.4346 129.896C27.1253 130.605 27.4706 131.473 27.4706 132.5C27.4706 133.527 27.1253 134.399 26.4346 135.118C25.744 135.827 24.9086 136.182 23.9286 136.182C22.7713 136.182 21.8893 135.72 21.2826 134.796V138.8H20.0646V129H21.2826V130.204C21.8893 129.28 22.7713 128.818 23.9286 128.818ZM23.7746 135.006C24.4746 135.006 25.0626 134.768 25.5386 134.292C26.0146 133.807 26.2526 133.209 26.2526 132.5C26.2526 131.791 26.0146 131.198 25.5386 130.722C25.0626 130.237 24.4746 129.994 23.7746 129.994C23.0653 129.994 22.4726 130.237 21.9966 130.722C21.5206 131.198 21.2826 131.791 21.2826 132.5C21.2826 133.209 21.5206 133.807 21.9966 134.292C22.4726 134.768 23.0653 135.006 23.7746 135.006ZM34.006 129H34.986V136H33.782V131.086L29.904 136H28.924V129H30.128V133.914L34.006 129ZM43.868 130.05C44.5213 130.722 44.848 131.539 44.848 132.5C44.848 133.461 44.5213 134.278 43.868 134.95C43.2147 135.622 42.342 136.019 41.25 136.14V138.8H40.046V136.14C38.954 136.019 38.0813 135.622 37.428 134.95C36.7747 134.278 36.448 133.461 36.448 132.5C36.448 131.539 36.7747 130.722 37.428 130.05C38.0813 129.378 38.954 128.981 40.046 128.86V126.2H41.25V128.86C42.342 128.981 43.2147 129.378 43.868 130.05ZM37.652 132.5C37.652 133.144 37.862 133.69 38.282 134.138C38.7113 134.586 39.2993 134.861 40.046 134.964V130.036C39.2993 130.129 38.7113 130.4 38.282 130.848C37.862 131.296 37.652 131.847 37.652 132.5ZM41.25 134.964C41.9967 134.861 42.58 134.586 43 134.138C43.42 133.69 43.63 133.144 43.63 132.5C43.63 131.856 43.42 131.31 43 130.862C42.58 130.414 41.9967 130.139 41.25 130.036V134.964ZM51.3693 129H52.3493V136H51.1453V131.086L47.2673 136H46.2873V129H47.4913V133.914L51.3693 129ZM60.1253 136H58.6133L55.4213 132.682V136H54.2033V129H55.4213V132.094L58.4453 129H60.0133L56.6673 132.388L60.1253 136ZM66.4114 129H67.6294V136H66.4114V134.796C65.8047 135.72 64.9227 136.182 63.7654 136.182C62.7854 136.182 61.9501 135.827 61.2594 135.118C60.5687 134.399 60.2234 133.527 60.2234 132.5C60.2234 131.473 60.5687 130.605 61.2594 129.896C61.9501 129.177 62.7854 128.818 63.7654 128.818C64.9227 128.818 65.8047 129.28 66.4114 130.204V129ZM63.9194 135.006C64.6287 135.006 65.2214 134.768 65.6974 134.292C66.1734 133.807 66.4114 133.209 66.4114 132.5C66.4114 131.791 66.1734 131.198 65.6974 130.722C65.2214 130.237 64.6287 129.994 63.9194 129.994C63.2194 129.994 62.6314 130.237 62.1554 130.722C61.6794 131.198 61.4414 131.791 61.4414 132.5C61.4414 133.209 61.6794 133.807 62.1554 134.292C62.6314 134.768 63.2194 135.006 63.9194 135.006ZM75.3548 134.838H76.5028V137.876H75.2988V136H69.4748V129H70.6928V134.838H74.1368V129H75.3548V134.838ZM82.883 129H83.863V136H82.659V131.086L78.781 136H77.801V129H79.005V133.914L82.883 129ZM90.953 129V136H89.749V133.48H88.727L86.767 136H85.283L87.327 133.41C86.8043 133.279 86.3796 133.018 86.053 132.626C85.7263 132.234 85.563 131.777 85.563 131.254C85.563 130.61 85.7916 130.073 86.249 129.644C86.7063 129.215 87.2803 129 87.971 129H90.953ZM88.013 132.388H89.749V130.134H88.013C87.6676 130.134 87.3736 130.237 87.131 130.442C86.8883 130.647 86.767 130.923 86.767 131.268C86.767 131.604 86.8883 131.875 87.131 132.08C87.3736 132.285 87.6676 132.388 88.013 132.388ZM102.361 129V136H101.143V130.162H97.517V136H96.299V129H102.361ZM110.123 135.118C109.404 135.827 108.532 136.182 107.505 136.182C106.478 136.182 105.606 135.827 104.887 135.118C104.178 134.409 103.823 133.536 103.823 132.5C103.823 131.464 104.178 130.591 104.887 129.882C105.606 129.173 106.478 128.818 107.505 128.818C108.532 128.818 109.404 129.173 110.123 129.882C110.842 130.591 111.201 131.464 111.201 132.5C111.201 133.536 110.842 134.409 110.123 135.118ZM107.505 134.992C108.205 134.992 108.793 134.754 109.269 134.278C109.745 133.802 109.983 133.209 109.983 132.5C109.983 131.791 109.745 131.198 109.269 130.722C108.793 130.246 108.205 130.008 107.505 130.008C106.814 130.008 106.231 130.246 105.755 130.722C105.279 131.198 105.041 131.791 105.041 132.5C105.041 133.209 105.279 133.802 105.755 134.278C106.231 134.754 106.814 134.992 107.505 134.992ZM122.059 136H120.547L117.355 132.682V136H116.137V129H117.355V132.094L120.379 129H121.947L118.601 132.388L122.059 136ZM128.345 129H129.563V136H128.345V134.796C127.738 135.72 126.856 136.182 125.699 136.182C124.719 136.182 123.884 135.827 123.193 135.118C122.502 134.399 122.157 133.527 122.157 132.5C122.157 131.473 122.502 130.605 123.193 129.896C123.884 129.177 124.719 128.818 125.699 128.818C126.856 128.818 127.738 129.28 128.345 130.204V129ZM125.853 135.006C126.562 135.006 127.155 134.768 127.631 134.292C128.107 133.807 128.345 133.209 128.345 132.5C128.345 131.791 128.107 131.198 127.631 130.722C127.155 130.237 126.562 129.994 125.853 129.994C125.153 129.994 124.565 130.237 124.089 130.722C123.613 131.198 123.375 131.791 123.375 132.5C123.375 133.209 123.613 133.807 124.089 134.292C124.565 134.768 125.153 135.006 125.853 135.006ZM135.272 128.818C136.252 128.818 137.088 129.177 137.778 129.896C138.469 130.605 138.814 131.473 138.814 132.5C138.814 133.527 138.469 134.399 137.778 135.118C137.088 135.827 136.252 136.182 135.272 136.182C134.115 136.182 133.233 135.72 132.626 134.796V138.8H131.408V129H132.626V130.204C133.233 129.28 134.115 128.818 135.272 128.818ZM135.118 135.006C135.818 135.006 136.406 134.768 136.882 134.292C137.358 133.807 137.596 133.209 137.596 132.5C137.596 131.791 137.358 131.198 136.882 130.722C136.406 130.237 135.818 129.994 135.118 129.994C134.409 129.994 133.816 130.237 133.34 130.722C132.864 131.198 132.626 131.791 132.626 132.5C132.626 133.209 132.864 133.807 133.34 134.292C133.816 134.768 134.409 135.006 135.118 135.006ZM145.202 129V130.176H142.822V136H141.604V130.176H139.21V129H145.202ZM146.85 133.06C146.972 133.685 147.256 134.171 147.704 134.516C148.162 134.861 148.722 135.034 149.384 135.034C150.308 135.034 150.98 134.693 151.4 134.012L152.436 134.6C151.755 135.655 150.728 136.182 149.356 136.182C148.246 136.182 147.34 135.837 146.64 135.146C145.95 134.446 145.604 133.564 145.604 132.5C145.604 131.445 145.945 130.568 146.626 129.868C147.308 129.168 148.19 128.818 149.272 128.818C150.299 128.818 151.134 129.182 151.778 129.91C152.432 130.629 152.758 131.497 152.758 132.514C152.758 132.691 152.744 132.873 152.716 133.06H146.85ZM149.272 129.966C148.619 129.966 148.078 130.153 147.648 130.526C147.219 130.89 146.953 131.38 146.85 131.996H151.526C151.424 131.333 151.162 130.829 150.742 130.484C150.322 130.139 149.832 129.966 149.272 129.966ZM162.74 129H163.72V136H162.516V131.086L158.638 136H157.658V129H158.862V133.914L162.74 129ZM5.586 148.402C6.30467 148.701 6.664 149.242 6.664 150.026C6.664 150.605 6.468 151.081 6.076 151.454C5.69333 151.818 5.14267 152 4.424 152H0.924V145H4.144C4.844 145 5.38533 145.177 5.768 145.532C6.15067 145.877 6.342 146.335 6.342 146.904C6.342 147.576 6.09 148.075 5.586 148.402ZM4.088 146.092H2.114V147.926H4.088C4.79733 147.926 5.152 147.613 5.152 146.988C5.152 146.391 4.79733 146.092 4.088 146.092ZM4.354 150.894C4.70867 150.894 4.97933 150.81 5.166 150.642C5.362 150.474 5.46 150.236 5.46 149.928C5.46 149.639 5.362 149.415 5.166 149.256C4.97933 149.088 4.70867 149.004 4.354 149.004H2.114V150.894H4.354ZM13.0607 145H14.0407V152H12.8367V147.086L8.95869 152H7.97869V145H9.18269V149.914L13.0607 145ZM21.9147 150.838H22.8807V153.876H21.6767V152H16.4267V153.876H15.2227V150.838H16.0767C16.5247 150.222 16.7487 149.359 16.7487 148.248V145H21.9147V150.838ZM17.4627 150.838H20.7107V146.134H17.9527V148.248C17.9527 149.293 17.7894 150.157 17.4627 150.838ZM24.7741 149.06C24.8954 149.685 25.1801 150.171 25.6281 150.516C26.0854 150.861 26.6454 151.034 27.3081 151.034C28.2321 151.034 28.9041 150.693 29.3241 150.012L30.3601 150.6C29.6788 151.655 28.6521 152.182 27.2801 152.182C26.1694 152.182 25.2641 151.837 24.5641 151.146C23.8734 150.446 23.5281 149.564 23.5281 148.5C23.5281 147.445 23.8688 146.568 24.5501 145.868C25.2314 145.168 26.1134 144.818 27.1961 144.818C28.2228 144.818 29.0581 145.182 29.7021 145.91C30.3554 146.629 30.6821 147.497 30.6821 148.514C30.6821 148.691 30.6681 148.873 30.6401 149.06H24.7741ZM27.1961 145.966C26.5428 145.966 26.0014 146.153 25.5721 146.526C25.1428 146.89 24.8768 147.38 24.7741 147.996H29.4501C29.3474 147.333 29.0861 146.829 28.6661 146.484C28.2461 146.139 27.7561 145.966 27.1961 145.966ZM37.9765 151.118C37.2579 151.827 36.3852 152.182 35.3585 152.182C34.3319 152.182 33.4592 151.827 32.7405 151.118C32.0312 150.409 31.6765 149.536 31.6765 148.5C31.6765 147.464 32.0312 146.591 32.7405 145.882C33.4592 145.173 34.3319 144.818 35.3585 144.818C36.3852 144.818 37.2579 145.173 37.9765 145.882C38.6952 146.591 39.0545 147.464 39.0545 148.5C39.0545 149.536 38.6952 150.409 37.9765 151.118ZM35.3585 150.992C36.0585 150.992 36.6465 150.754 37.1225 150.278C37.5985 149.802 37.8365 149.209 37.8365 148.5C37.8365 147.791 37.5985 147.198 37.1225 146.722C36.6465 146.246 36.0585 146.008 35.3585 146.008C34.6679 146.008 34.0845 146.246 33.6085 146.722C33.1325 147.198 32.8945 147.791 32.8945 148.5C32.8945 149.209 33.1325 149.802 33.6085 150.278C34.0845 150.754 34.6679 150.992 35.3585 150.992ZM41.1344 153.4H39.9164C40.9431 151.347 41.4564 149.247 41.4564 147.1C41.4564 144.953 40.9431 142.853 39.9164 140.8H41.1344C42.1611 142.853 42.6744 144.953 42.6744 147.1C42.6744 149.247 42.1611 151.347 41.1344 153.4Z" fill="white"/>
<line x1="50" y1="47" y2="47" stroke="#D2D1CD" stroke-width="2"/>
<circle cx="55" cy="45" r="25" fill="#2CBF56"/>
<path d="M50.1536 37.2627L49.0486 37.1986C48.6903 37.1665 48.3618 37.2947 48.0931 37.5511C47.5555 38.0638 46.6895 39.0252 46.4506 40.2749C46.0624 42.1656 46.6597 44.4409 48.2424 46.7482C49.8251 49.0554 52.7516 52.7086 57.9177 54.2789C59.59 54.7916 60.904 54.4391 61.9193 53.7341C62.7255 53.1893 63.2631 52.292 63.4721 51.2986L63.6513 50.4014C63.711 50.1129 63.5617 49.8245 63.3228 49.7284L59.59 47.8697C59.3511 47.7416 59.0525 47.8377 58.9032 48.062L57.4399 50.1129C57.3205 50.2732 57.1413 50.3373 56.9621 50.2732C55.9468 49.8886 52.6023 48.3825 50.7508 44.5691C50.6612 44.4088 50.6911 44.2166 50.8105 44.0563L52.214 42.3259C52.3634 42.1336 52.3932 41.9093 52.3036 41.6849L50.6911 37.6472C50.5716 37.4229 50.3626 37.2627 50.1536 37.2627Z" stroke="white" stroke-width="2" stroke-miterlimit="10" stroke-linecap="round" stroke-linejoin="round"/>
<path d="M39.8376 61.0204L41.9601 53.4922C40.607 51.186 39.8642 48.5353 39.8642 45.8315C39.8642 37.4815 46.6561 30.6955 55.0134 30.6955C63.3706 30.6955 70.1625 37.4815 70.1625 45.8315C70.1625 54.1814 63.3706 60.9674 55.0134 60.9674C52.4133 60.9674 49.8663 60.3047 47.6112 59.0323L39.8376 61.0204Z" stroke="white" stroke-width="2" stroke-miterlimit="10" stroke-linecap="round" stroke-linejoin="round"/>
<circle cx="55" cy="45" r="45" fill="url(#paint0_radial)"/>
<circle cx="55" cy="44" r="30" fill="#212121" fill-opacity="0.5"/>
<circle cx="55" cy="44" r="25" fill="#D2D1CD"/>
<path d="M59.6331 51.6801C62.3156 52.1678 64.9981 52.8994 64.9981 52.8994C64.9981 52.8994 67.1929 53.3871 67.6807 57.0451" stroke="#343736" stroke-width="2" stroke-miterlimit="10" stroke-linecap="round" stroke-linejoin="round"/>
<path d="M49.8784 38.5115C49.8784 38.5115 55.7312 38.9992 56.9505 36.3167C56.9505 36.3167 58.1699 38.5115 59.8769 38.5115" stroke="#343736" stroke-width="2" stroke-miterlimit="10" stroke-linecap="round" stroke-linejoin="round"/>
<path d="M59.6334 51.9238C59.1456 54.3625 57.4386 56.3134 54.9999 56.3134C52.3174 56.3134 50.6103 54.3625 50.3664 51.9238C47.6839 52.4116 45.0014 53.1432 45.0014 53.1432C45.0014 53.1432 42.8066 53.6309 42.3188 57.2889" stroke="#343736" stroke-width="2" stroke-miterlimit="10" stroke-linecap="round" stroke-linejoin="round"/>
<path d="M54.9999 32.6586C49.391 32.6586 49.1471 36.0728 49.6349 40.4624C50.1226 44.6081 52.5613 48.2661 54.9999 48.2661C57.4386 48.2661 60.1211 44.852 60.365 40.4624C60.8527 36.0728 60.365 32.6586 54.9999 32.6586Z" stroke="#343736" stroke-width="2" stroke-miterlimit="10" stroke-linejoin="round"/>
<path d="M44.7576 31.4392V29.4883H47.1962" stroke="#343736" stroke-width="2" stroke-miterlimit="10" stroke-linecap="round" stroke-linejoin="round"/>
<path d="M46.9526 48.5098L45.0017 48.5098L45.0017 46.0712" stroke="#343736" stroke-width="2" stroke-miterlimit="10" stroke-linecap="round" stroke-linejoin="round"/>
<path d="M63.291 29.4883H65.2419V31.4392" stroke="#343736" stroke-width="2" stroke-miterlimit="10" stroke-linecap="round" stroke-linejoin="round"/>
<path d="M65.2421 46.559V48.5099H62.8035" stroke="#343736" stroke-width="2" stroke-miterlimit="10" stroke-linecap="round" stroke-linejoin="round"/>
<defs>
<radialGradient id="paint0_radial" cx="0" cy="0" r="1" gradientUnits="userSpaceOnUse" gradientTransform="translate(55 45) rotate(90) scale(45)">
<stop stop-color="#D2D1CD"/>
<stop offset="1" stop-color="#D2D1CD" stop-opacity="0"/>
</radialGradient>
</defs>
</svg>
