<svg width="168" height="170" viewBox="0 0 168 170" fill="none" xmlns="http://www.w3.org/2000/svg">
<path d="M7.14 103V95.692L2.1 103H1.05V93.2H2.352V100.522L7.392 93.2H8.442V103H7.14ZM15.2563 96H16.4743V103H15.2563V100.074H11.6303V103H10.4123V96H11.6303V98.912H15.2563V96ZM25.3563 97.05C26.0096 97.722 26.3363 98.5387 26.3363 99.5C26.3363 100.461 26.0096 101.278 25.3563 101.95C24.703 102.622 23.8303 103.019 22.7383 103.14V105.8H21.5343V103.14C20.4423 103.019 19.5696 102.622 18.9163 101.95C18.263 101.278 17.9363 100.461 17.9363 99.5C17.9363 98.5387 18.263 97.722 18.9163 97.05C19.5696 96.378 20.4423 95.9813 21.5343 95.86V93.2H22.7383V95.86C23.8303 95.9813 24.703 96.378 25.3563 97.05ZM19.1403 99.5C19.1403 100.144 19.3503 100.69 19.7703 101.138C20.1996 101.586 20.7876 101.861 21.5343 101.964V97.036C20.7876 97.1293 20.1996 97.4 19.7703 97.848C19.3503 98.296 19.1403 98.8467 19.1403 99.5ZM22.7383 101.964C23.485 101.861 24.0683 101.586 24.4883 101.138C24.9083 100.69 25.1183 100.144 25.1183 99.5C25.1183 98.856 24.9083 98.31 24.4883 97.862C24.0683 97.414 23.485 97.1387 22.7383 97.036V101.964ZM33.6836 102.118C32.9649 102.827 32.0922 103.182 31.0656 103.182C30.0389 103.182 29.1662 102.827 28.4476 102.118C27.7382 101.409 27.3836 100.536 27.3836 99.5C27.3836 98.464 27.7382 97.5913 28.4476 96.882C29.1662 96.1727 30.0389 95.818 31.0656 95.818C32.0922 95.818 32.9649 96.1727 33.6836 96.882C34.4022 97.5913 34.7616 98.464 34.7616 99.5C34.7616 100.536 34.4022 101.409 33.6836 102.118ZM31.0656 101.992C31.7656 101.992 32.3536 101.754 32.8296 101.278C33.3056 100.802 33.5436 100.209 33.5436 99.5C33.5436 98.7907 33.3056 98.198 32.8296 97.722C32.3536 97.246 31.7656 97.008 31.0656 97.008C30.3749 97.008 29.7916 97.246 29.3156 97.722C28.8396 98.198 28.6016 98.7907 28.6016 99.5C28.6016 100.209 28.8396 100.802 29.3156 101.278C29.7916 101.754 30.3749 101.992 31.0656 101.992ZM40.0614 95.818C41.0414 95.818 41.8768 96.1773 42.5674 96.896C43.2581 97.6053 43.6034 98.4733 43.6034 99.5C43.6034 100.527 43.2581 101.399 42.5674 102.118C41.8768 102.827 41.0414 103.182 40.0614 103.182C38.9041 103.182 38.0221 102.72 37.4154 101.796V105.8H36.1974V96H37.4154V97.204C38.0221 96.28 38.9041 95.818 40.0614 95.818ZM39.9074 102.006C40.6074 102.006 41.1954 101.768 41.6714 101.292C42.1474 100.807 42.3854 100.209 42.3854 99.5C42.3854 98.7907 42.1474 98.198 41.6714 97.722C41.1954 97.2367 40.6074 96.994 39.9074 96.994C39.1981 96.994 38.6054 97.2367 38.1294 97.722C37.6534 98.198 37.4154 98.7907 37.4154 99.5C37.4154 100.209 37.6534 100.807 38.1294 101.292C38.6054 101.768 39.1981 102.006 39.9074 102.006ZM52.0568 96V103H50.8668V97.918L48.6408 101.502H48.4868L46.2608 97.918V103H45.0568V96H46.3588L48.5568 99.542L50.7548 96H52.0568ZM58.9982 96H59.9782V103H58.7742V98.086L54.8962 103H53.9162V96H55.1202V100.914L58.9982 96ZM65.6962 95.818C66.6762 95.818 67.5115 96.1773 68.2022 96.896C68.8929 97.6053 69.2382 98.4733 69.2382 99.5C69.2382 100.527 68.8929 101.399 68.2022 102.118C67.5115 102.827 66.6762 103.182 65.6962 103.182C64.5389 103.182 63.6569 102.72 63.0502 101.796V105.8H61.8322V96H63.0502V97.204C63.6569 96.28 64.5389 95.818 65.6962 95.818ZM65.5422 102.006C66.2422 102.006 66.8302 101.768 67.3062 101.292C67.7822 100.807 68.0202 100.209 68.0202 99.5C68.0202 98.7907 67.7822 98.198 67.3062 97.722C66.8302 97.2367 66.2422 96.994 65.5422 96.994C64.8329 96.994 64.2402 97.2367 63.7642 97.722C63.2882 98.198 63.0502 98.7907 63.0502 99.5C63.0502 100.209 63.2882 100.807 63.7642 101.292C64.2402 101.768 64.8329 102.006 65.5422 102.006ZM76.5996 102.118C75.8809 102.827 75.0082 103.182 73.9816 103.182C72.9549 103.182 72.0822 102.827 71.3636 102.118C70.6542 101.409 70.2996 100.536 70.2996 99.5C70.2996 98.464 70.6542 97.5913 71.3636 96.882C72.0822 96.1727 72.9549 95.818 73.9816 95.818C75.0082 95.818 75.8809 96.1727 76.5996 96.882C77.3182 97.5913 77.6776 98.464 77.6776 99.5C77.6776 100.536 77.3182 101.409 76.5996 102.118ZM73.9816 101.992C74.6816 101.992 75.2696 101.754 75.7456 101.278C76.2216 100.802 76.4596 100.209 76.4596 99.5C76.4596 98.7907 76.2216 98.198 75.7456 97.722C75.2696 97.246 74.6816 97.008 73.9816 97.008C73.2909 97.008 72.7076 97.246 72.2316 97.722C71.7556 98.198 71.5176 98.7907 71.5176 99.5C71.5176 100.209 71.7556 100.802 72.2316 101.278C72.7076 101.754 73.2909 101.992 73.9816 101.992ZM83.7755 99.402C84.4941 99.7007 84.8535 100.242 84.8535 101.026C84.8535 101.605 84.6575 102.081 84.2655 102.454C83.8828 102.818 83.3321 103 82.6135 103H79.1135V96H82.3335C83.0335 96 83.5748 96.1773 83.9575 96.532C84.3401 96.8773 84.5315 97.3347 84.5315 97.904C84.5315 98.576 84.2795 99.0753 83.7755 99.402ZM82.2775 97.092H80.3035V98.926H82.2775C82.9868 98.926 83.3415 98.6133 83.3415 97.988C83.3415 97.3907 82.9868 97.092 82.2775 97.092ZM82.5435 101.894C82.8981 101.894 83.1688 101.81 83.3555 101.642C83.5515 101.474 83.6495 101.236 83.6495 100.928C83.6495 100.639 83.5515 100.415 83.3555 100.256C83.1688 100.088 82.8981 100.004 82.5435 100.004H80.3035V101.894H82.5435ZM91.9641 96H93.1821V103H91.9641V101.796C91.3575 102.72 90.4755 103.182 89.3181 103.182C88.3381 103.182 87.5028 102.827 86.8121 102.118C86.1215 101.399 85.7761 100.527 85.7761 99.5C85.7761 98.4733 86.1215 97.6053 86.8121 96.896C87.5028 96.1773 88.3381 95.818 89.3181 95.818C90.4755 95.818 91.3575 96.28 91.9641 97.204V96ZM89.4721 102.006C90.1815 102.006 90.7741 101.768 91.2501 101.292C91.7261 100.807 91.9641 100.209 91.9641 99.5C91.9641 98.7907 91.7261 98.198 91.2501 97.722C90.7741 97.2367 90.1815 96.994 89.4721 96.994C88.7721 96.994 88.1841 97.2367 87.7081 97.722C87.2321 98.198 86.9941 98.7907 86.9941 99.5C86.9941 100.209 87.2321 100.807 87.7081 101.292C88.1841 101.768 88.7721 102.006 89.4721 102.006ZM99.8715 96H101.09V103H99.8715V100.074H96.2455V103H95.0275V96H96.2455V98.912H99.8715V96ZM108.026 96H109.006V103H107.802V98.086L103.924 103H102.944V96H104.148V100.914L108.026 96ZM111.714 100.06C111.835 100.685 112.12 101.171 112.568 101.516C113.025 101.861 113.585 102.034 114.248 102.034C115.172 102.034 115.844 101.693 116.264 101.012L117.3 101.6C116.618 102.655 115.592 103.182 114.22 103.182C113.109 103.182 112.204 102.837 111.504 102.146C110.813 101.446 110.468 100.564 110.468 99.5C110.468 98.4453 110.808 97.568 111.49 96.868C112.171 96.168 113.053 95.818 114.136 95.818C115.162 95.818 115.998 96.182 116.642 96.91C117.295 97.6287 117.622 98.4967 117.622 99.514C117.622 99.6913 117.608 99.8733 117.58 100.06H111.714ZM114.136 96.966C113.482 96.966 112.941 97.1527 112.512 97.526C112.082 97.89 111.816 98.38 111.714 98.996H116.39C116.287 98.3333 116.026 97.8293 115.606 97.484C115.186 97.1387 114.696 96.966 114.136 96.966ZM4.788 111.818C5.768 111.818 6.60333 112.177 7.294 112.896C7.98467 113.605 8.33 114.473 8.33 115.5C8.33 116.527 7.98467 117.399 7.294 118.118C6.60333 118.827 5.768 119.182 4.788 119.182C3.63067 119.182 2.74867 118.72 2.142 117.796V121.8H0.924V112H2.142V113.204C2.74867 112.28 3.63067 111.818 4.788 111.818ZM4.634 118.006C5.334 118.006 5.922 117.768 6.398 117.292C6.874 116.807 7.112 116.209 7.112 115.5C7.112 114.791 6.874 114.198 6.398 113.722C5.922 113.237 5.334 112.994 4.634 112.994C3.92467 112.994 3.332 113.237 2.856 113.722C2.38 114.198 2.142 114.791 2.142 115.5C2.142 116.209 2.38 116.807 2.856 117.292C3.332 117.768 3.92467 118.006 4.634 118.006ZM15.6914 118.118C14.9727 118.827 14.1 119.182 13.0734 119.182C12.0467 119.182 11.174 118.827 10.4554 118.118C9.74604 117.409 9.39138 116.536 9.39138 115.5C9.39138 114.464 9.74604 113.591 10.4554 112.882C11.174 112.173 12.0467 111.818 13.0734 111.818C14.1 111.818 14.9727 112.173 15.6914 112.882C16.41 113.591 16.7694 114.464 16.7694 115.5C16.7694 116.536 16.41 117.409 15.6914 118.118ZM13.0734 117.992C13.7734 117.992 14.3614 117.754 14.8374 117.278C15.3134 116.802 15.5514 116.209 15.5514 115.5C15.5514 114.791 15.3134 114.198 14.8374 113.722C14.3614 113.246 13.7734 113.008 13.0734 113.008C12.3827 113.008 11.7994 113.246 11.3234 113.722C10.8474 114.198 10.6094 114.791 10.6094 115.5C10.6094 116.209 10.8474 116.802 11.3234 117.278C11.7994 117.754 12.3827 117.992 13.0734 117.992ZM23.9518 117.838H24.9178V120.876H23.7138V119H18.4638V120.876H17.2598V117.838H18.1138C18.5618 117.222 18.7858 116.359 18.7858 115.248V112H23.9518V117.838ZM19.4998 117.838H22.7478V113.134H19.9898V115.248C19.9898 116.293 19.8265 117.157 19.4998 117.838ZM31.3126 112H32.2926V119H31.0886V114.086L27.2106 119H26.2306V112H27.4346V116.914L31.3126 112ZM39.3547 112V113.176H36.9747V119H35.7567V113.176H33.3627V112H39.3547ZM41.0026 116.06C41.1239 116.685 41.4086 117.171 41.8566 117.516C42.3139 117.861 42.8739 118.034 43.5366 118.034C44.4606 118.034 45.1326 117.693 45.5526 117.012L46.5886 117.6C45.9073 118.655 44.8806 119.182 43.5086 119.182C42.3979 119.182 41.4926 118.837 40.7926 118.146C40.1019 117.446 39.7566 116.564 39.7566 115.5C39.7566 114.445 40.0973 113.568 40.7786 112.868C41.4599 112.168 42.3419 111.818 43.4246 111.818C44.4513 111.818 45.2866 112.182 45.9306 112.91C46.5839 113.629 46.9106 114.497 46.9106 115.514C46.9106 115.691 46.8966 115.873 46.8686 116.06H41.0026ZM43.4246 112.966C42.7713 112.966 42.2299 113.153 41.8006 113.526C41.3713 113.89 41.1053 114.38 41.0026 114.996H45.6786C45.5759 114.333 45.3146 113.829 44.8946 113.484C44.4746 113.139 43.9846 112.966 43.4246 112.966ZM53.8753 112V119H52.6573V113.176H49.8993V116.032C49.8993 117.18 49.6659 117.983 49.1993 118.44C48.7419 118.888 48.0933 119.075 47.2533 119V117.852C47.7293 117.917 48.0839 117.815 48.3173 117.544C48.5599 117.264 48.6813 116.751 48.6813 116.004V112H53.8753ZM56.5749 116.06C56.6962 116.685 56.9809 117.171 57.4289 117.516C57.8862 117.861 58.4462 118.034 59.1089 118.034C60.0329 118.034 60.7049 117.693 61.1249 117.012L62.1609 117.6C61.4795 118.655 60.4529 119.182 59.0809 119.182C57.9702 119.182 57.0649 118.837 56.3649 118.146C55.6742 117.446 55.3289 116.564 55.3289 115.5C55.3289 114.445 55.6695 113.568 56.3509 112.868C57.0322 112.168 57.9142 111.818 58.9969 111.818C60.0235 111.818 60.8589 112.182 61.5029 112.91C62.1562 113.629 62.4829 114.497 62.4829 115.514C62.4829 115.691 62.4689 115.873 62.4409 116.06H56.5749ZM58.9969 112.966C58.3435 112.966 57.8022 113.153 57.3729 113.526C56.9435 113.89 56.6775 114.38 56.5749 114.996H61.2509C61.1482 114.333 60.8869 113.829 60.4669 113.484C60.0469 113.139 59.5569 112.966 58.9969 112.966ZM65.031 110.95V109.886H68.811V110.95H65.031ZM68.965 112H69.945V119H68.741V114.086L64.863 119H63.883V112H65.087V116.914L68.965 112ZM76.727 120.4C75.7003 118.347 75.187 116.247 75.187 114.1C75.187 111.953 75.7003 109.853 76.727 107.8H77.945C76.9183 109.853 76.405 111.953 76.405 114.1C76.405 116.247 76.9183 118.347 77.945 120.4H76.727ZM82.5128 119.182C81.4582 119.182 80.5808 118.832 79.8808 118.132C79.1808 117.423 78.8308 116.545 78.8308 115.5C78.8308 114.455 79.1808 113.582 79.8808 112.882C80.5808 112.173 81.4582 111.818 82.5128 111.818C83.2035 111.818 83.8242 111.986 84.3748 112.322C84.9255 112.649 85.3362 113.092 85.6068 113.652L84.5848 114.24C84.4075 113.867 84.1322 113.568 83.7588 113.344C83.3948 113.12 82.9795 113.008 82.5128 113.008C81.8128 113.008 81.2248 113.246 80.7488 113.722C80.2822 114.198 80.0488 114.791 80.0488 115.5C80.0488 116.2 80.2822 116.788 80.7488 117.264C81.2248 117.74 81.8128 117.978 82.5128 117.978C82.9795 117.978 83.3995 117.871 83.7728 117.656C84.1462 117.432 84.4308 117.133 84.6268 116.76L85.6628 117.362C85.3642 117.913 84.9348 118.356 84.3748 118.692C83.8148 119.019 83.1942 119.182 82.5128 119.182ZM90.3514 111.818C91.1727 111.818 91.8307 112.079 92.3254 112.602C92.8201 113.115 93.0674 113.815 93.0674 114.702V119H91.8494V114.772C91.8494 114.203 91.6954 113.764 91.3874 113.456C91.0794 113.139 90.6547 112.98 90.1134 112.98C89.5067 112.98 89.0167 113.171 88.6434 113.554C88.2701 113.927 88.0834 114.506 88.0834 115.29V119H86.8654V109.2H88.0834V113.008C88.5781 112.215 89.3341 111.818 90.3514 111.818ZM95.6218 116.06C95.7431 116.685 96.0278 117.171 96.4758 117.516C96.9331 117.861 97.4931 118.034 98.1558 118.034C99.0798 118.034 99.7518 117.693 100.172 117.012L101.208 117.6C100.526 118.655 99.4998 119.182 98.1278 119.182C97.0171 119.182 96.1118 118.837 95.4118 118.146C94.7211 117.446 94.3758 116.564 94.3758 115.5C94.3758 114.445 94.7164 113.568 95.3978 112.868C96.0791 112.168 96.9611 111.818 98.0438 111.818C99.0704 111.818 99.9058 112.182 100.55 112.91C101.203 113.629 101.53 114.497 101.53 115.514C101.53 115.691 101.516 115.873 101.488 116.06H95.6218ZM98.0438 112.966C97.3904 112.966 96.8491 113.153 96.4198 113.526C95.9904 113.89 95.7244 114.38 95.6218 114.996H100.298C100.195 114.333 99.9338 113.829 99.5138 113.484C99.0938 113.139 98.6038 112.966 98.0438 112.966ZM106.206 119.182C105.152 119.182 104.274 118.832 103.574 118.132C102.874 117.423 102.524 116.545 102.524 115.5C102.524 114.455 102.874 113.582 103.574 112.882C104.274 112.173 105.152 111.818 106.206 111.818C106.897 111.818 107.518 111.986 108.068 112.322C108.619 112.649 109.03 113.092 109.3 113.652L108.278 114.24C108.101 113.867 107.826 113.568 107.452 113.344C107.088 113.12 106.673 113.008 106.206 113.008C105.506 113.008 104.918 113.246 104.442 113.722C103.976 114.198 103.742 114.791 103.742 115.5C103.742 116.2 103.976 116.788 104.442 117.264C104.918 117.74 105.506 117.978 106.206 117.978C106.673 117.978 107.093 117.871 107.466 117.656C107.84 117.432 108.124 117.133 108.32 116.76L109.356 117.362C109.058 117.913 108.628 118.356 108.068 118.692C107.508 119.019 106.888 119.182 106.206 119.182ZM116.481 119H114.969L111.777 115.682V119H110.559V109.2H111.777V115.094L114.801 112H116.369L113.023 115.388L116.481 119ZM117.302 115.29V114.114H122.412V115.29H117.302ZM124.997 110.726C124.764 110.726 124.568 110.647 124.409 110.488C124.25 110.329 124.171 110.138 124.171 109.914C124.171 109.69 124.25 109.499 124.409 109.34C124.568 109.172 124.764 109.088 124.997 109.088C125.221 109.088 125.412 109.172 125.571 109.34C125.73 109.499 125.809 109.69 125.809 109.914C125.809 110.138 125.73 110.329 125.571 110.488C125.412 110.647 125.221 110.726 124.997 110.726ZM124.381 119V112H125.599V119H124.381ZM130.943 111.818C131.765 111.818 132.423 112.079 132.917 112.602C133.412 113.115 133.659 113.815 133.659 114.702V119H132.441V114.772C132.441 114.203 132.287 113.764 131.979 113.456C131.671 113.139 131.247 112.98 130.705 112.98C130.099 112.98 129.609 113.171 129.235 113.554C128.862 113.927 128.675 114.506 128.675 115.29V119H127.457V112H128.675V113.008C129.17 112.215 129.926 111.818 130.943 111.818ZM137.18 117.558L136.27 120.96H135.22L135.78 117.558H137.18ZM4.214 135.182C3.15933 135.182 2.282 134.832 1.582 134.132C0.882 133.423 0.532 132.545 0.532 131.5C0.532 130.455 0.882 129.582 1.582 128.882C2.282 128.173 3.15933 127.818 4.214 127.818C4.90467 127.818 5.52533 127.986 6.076 128.322C6.62667 128.649 7.03733 129.092 7.308 129.652L6.286 130.24C6.10867 129.867 5.83333 129.568 5.46 129.344C5.096 129.12 4.68067 129.008 4.214 129.008C3.514 129.008 2.926 129.246 2.45 129.722C1.98333 130.198 1.75 130.791 1.75 131.5C1.75 132.2 1.98333 132.788 2.45 133.264C2.926 133.74 3.514 133.978 4.214 133.978C4.68067 133.978 5.10067 133.871 5.474 133.656C5.84733 133.432 6.132 133.133 6.328 132.76L7.364 133.362C7.06533 133.913 6.636 134.356 6.076 134.692C5.516 135.019 4.89533 135.182 4.214 135.182ZM12.0526 127.818C12.8739 127.818 13.5319 128.079 14.0266 128.602C14.5212 129.115 14.7686 129.815 14.7686 130.702V135H13.5506V130.772C13.5506 130.203 13.3966 129.764 13.0886 129.456C12.7806 129.139 12.3559 128.98 11.8146 128.98C11.2079 128.98 10.7179 129.171 10.3446 129.554C9.97124 129.927 9.78458 130.506 9.78458 131.29V135H8.56658V125.2H9.78458V129.008C10.2792 128.215 11.0352 127.818 12.0526 127.818ZM17.3229 132.06C17.4443 132.685 17.7289 133.171 18.1769 133.516C18.6343 133.861 19.1943 134.034 19.8569 134.034C20.7809 134.034 21.4529 133.693 21.8729 133.012L22.9089 133.6C22.2276 134.655 21.2009 135.182 19.8289 135.182C18.7183 135.182 17.8129 134.837 17.1129 134.146C16.4223 133.446 16.0769 132.564 16.0769 131.5C16.0769 130.445 16.4176 129.568 17.0989 128.868C17.7803 128.168 18.6623 127.818 19.7449 127.818C20.7716 127.818 21.6069 128.182 22.2509 128.91C22.9043 129.629 23.2309 130.497 23.2309 131.514C23.2309 131.691 23.2169 131.873 23.1889 132.06H17.3229ZM19.7449 128.966C19.0916 128.966 18.5503 129.153 18.1209 129.526C17.6916 129.89 17.4256 130.38 17.3229 130.996H21.9989C21.8963 130.333 21.6349 129.829 21.2149 129.484C20.7949 129.139 20.3049 128.966 19.7449 128.966ZM27.9074 135.182C26.8527 135.182 25.9754 134.832 25.2754 134.132C24.5754 133.423 24.2254 132.545 24.2254 131.5C24.2254 130.455 24.5754 129.582 25.2754 128.882C25.9754 128.173 26.8527 127.818 27.9074 127.818C28.598 127.818 29.2187 127.986 29.7694 128.322C30.32 128.649 30.7307 129.092 31.0014 129.652L29.9794 130.24C29.802 129.867 29.5267 129.568 29.1534 129.344C28.7894 129.12 28.374 129.008 27.9074 129.008C27.2074 129.008 26.6194 129.246 26.1434 129.722C25.6767 130.198 25.4434 130.791 25.4434 131.5C25.4434 132.2 25.6767 132.788 26.1434 133.264C26.6194 133.74 27.2074 133.978 27.9074 133.978C28.374 133.978 28.794 133.871 29.1674 133.656C29.5407 133.432 29.8254 133.133 30.0214 132.76L31.0574 133.362C30.7587 133.913 30.3294 134.356 29.7694 134.692C29.2094 135.019 28.5887 135.182 27.9074 135.182ZM38.1819 135H36.6699L33.4779 131.682V135H32.2599V125.2H33.4779V131.094L36.5019 128H38.0699L34.7239 131.388L38.1819 135ZM39.0031 131.29V130.114H44.1131V131.29H39.0031ZM51.9902 134.118C51.2715 134.827 50.3989 135.182 49.3722 135.182C48.3455 135.182 47.4729 134.827 46.7542 134.118C46.0449 133.409 45.6902 132.536 45.6902 131.5C45.6902 130.464 46.0449 129.591 46.7542 128.882C47.4729 128.173 48.3455 127.818 49.3722 127.818C50.3989 127.818 51.2715 128.173 51.9902 128.882C52.7089 129.591 53.0682 130.464 53.0682 131.5C53.0682 132.536 52.7089 133.409 51.9902 134.118ZM49.3722 133.992C50.0722 133.992 50.6602 133.754 51.1362 133.278C51.6122 132.802 51.8502 132.209 51.8502 131.5C51.8502 130.791 51.6122 130.198 51.1362 129.722C50.6602 129.246 50.0722 129.008 49.3722 129.008C48.6815 129.008 48.0982 129.246 47.6222 129.722C47.1462 130.198 46.9082 130.791 46.9082 131.5C46.9082 132.209 47.1462 132.802 47.6222 133.278C48.0982 133.754 48.6815 133.992 49.3722 133.992ZM59.3341 128H60.5521V135H59.3341V133.992C58.8394 134.785 58.0834 135.182 57.0661 135.182C56.2447 135.182 55.5867 134.925 55.0921 134.412C54.5974 133.889 54.3501 133.185 54.3501 132.298V128H55.5681V132.228C55.5681 132.797 55.7221 133.241 56.0301 133.558C56.3381 133.866 56.7627 134.02 57.3041 134.02C57.9107 134.02 58.4007 133.833 58.7741 133.46C59.1474 133.077 59.3341 132.494 59.3341 131.71V128ZM66.2144 129.176H64.3524V132.97C64.3524 133.315 64.4178 133.563 64.5484 133.712C64.6884 133.852 64.8984 133.927 65.1784 133.936C65.4584 133.936 65.8038 133.927 66.2144 133.908V135C65.1504 135.14 64.3711 135.056 63.8764 134.748C63.3818 134.431 63.1344 133.838 63.1344 132.97V129.176H61.7484V128H63.1344V126.404L64.3524 126.04V128H66.2144V129.176ZM77.2594 128V135H76.0414V129.162H72.4154V135H71.1974V128H77.2594ZM85.0215 134.118C84.3028 134.827 83.4301 135.182 82.4035 135.182C81.3768 135.182 80.5041 134.827 79.7855 134.118C79.0761 133.409 78.7215 132.536 78.7215 131.5C78.7215 130.464 79.0761 129.591 79.7855 128.882C80.5041 128.173 81.3768 127.818 82.4035 127.818C83.4301 127.818 84.3028 128.173 85.0215 128.882C85.7401 129.591 86.0995 130.464 86.0995 131.5C86.0995 132.536 85.7401 133.409 85.0215 134.118ZM82.4035 133.992C83.1035 133.992 83.6915 133.754 84.1675 133.278C84.6435 132.802 84.8815 132.209 84.8815 131.5C84.8815 130.791 84.6435 130.198 84.1675 129.722C83.6915 129.246 83.1035 129.008 82.4035 129.008C81.7128 129.008 81.1295 129.246 80.6535 129.722C80.1775 130.198 79.9395 130.791 79.9395 131.5C79.9395 132.209 80.1775 132.802 80.6535 133.278C81.1295 133.754 81.7128 133.992 82.4035 133.992ZM90.8253 135.182C89.7707 135.182 88.8933 134.832 88.1933 134.132C87.4933 133.423 87.1433 132.545 87.1433 131.5C87.1433 130.455 87.4933 129.582 88.1933 128.882C88.8933 128.173 89.7707 127.818 90.8253 127.818C91.516 127.818 92.1367 127.986 92.6873 128.322C93.238 128.649 93.6487 129.092 93.9193 129.652L92.8973 130.24C92.72 129.867 92.4447 129.568 92.0713 129.344C91.7073 129.12 91.292 129.008 90.8253 129.008C90.1253 129.008 89.5373 129.246 89.0613 129.722C88.5947 130.198 88.3613 130.791 88.3613 131.5C88.3613 132.2 88.5947 132.788 89.0613 133.264C89.5373 133.74 90.1253 133.978 90.8253 133.978C91.292 133.978 91.712 133.871 92.0853 133.656C92.4587 133.432 92.7433 133.133 92.9393 132.76L93.9753 133.362C93.6767 133.913 93.2473 134.356 92.6873 134.692C92.1273 135.019 91.5067 135.182 90.8253 135.182ZM99.0556 127.818C100.036 127.818 100.871 128.177 101.562 128.896C102.252 129.605 102.598 130.473 102.598 131.5C102.598 132.527 102.252 133.399 101.562 134.118C100.871 134.827 100.036 135.182 99.0556 135.182C97.8982 135.182 97.0162 134.72 96.4096 133.796V137.8H95.1916V128H96.4096V129.204C97.0162 128.28 97.8982 127.818 99.0556 127.818ZM98.9016 134.006C99.6016 134.006 100.19 133.768 100.666 133.292C101.142 132.807 101.38 132.209 101.38 131.5C101.38 130.791 101.142 130.198 100.666 129.722C100.19 129.237 99.6016 128.994 98.9016 128.994C98.1922 128.994 97.5996 129.237 97.1236 129.722C96.6476 130.198 96.4096 130.791 96.4096 131.5C96.4096 132.209 96.6476 132.807 97.1236 133.292C97.5996 133.768 98.1922 134.006 98.9016 134.006ZM104.905 132.06C105.026 132.685 105.311 133.171 105.759 133.516C106.216 133.861 106.776 134.034 107.439 134.034C108.363 134.034 109.035 133.693 109.455 133.012L110.491 133.6C109.81 134.655 108.783 135.182 107.411 135.182C106.3 135.182 105.395 134.837 104.695 134.146C104.004 133.446 103.659 132.564 103.659 131.5C103.659 130.445 104 129.568 104.681 128.868C105.362 128.168 106.244 127.818 107.327 127.818C108.354 127.818 109.189 128.182 109.833 128.91C110.486 129.629 110.813 130.497 110.813 131.514C110.813 131.691 110.799 131.873 110.771 132.06H104.905ZM107.327 128.966C106.674 128.966 106.132 129.153 105.703 129.526C105.274 129.89 105.008 130.38 104.905 130.996H109.581C109.478 130.333 109.217 129.829 108.797 129.484C108.377 129.139 107.887 128.966 107.327 128.966ZM117.96 133.838H118.926V136.876H117.722V135H112.472V136.876H111.268V133.838H112.122C112.57 133.222 112.794 132.359 112.794 131.248V128H117.96V133.838ZM113.508 133.838H116.756V129.134H113.998V131.248C113.998 132.293 113.834 133.157 113.508 133.838ZM123.255 135.182C122.2 135.182 121.323 134.832 120.623 134.132C119.923 133.423 119.573 132.545 119.573 131.5C119.573 130.455 119.923 129.582 120.623 128.882C121.323 128.173 122.2 127.818 123.255 127.818C123.946 127.818 124.566 127.986 125.117 128.322C125.668 128.649 126.078 129.092 126.349 129.652L125.327 130.24C125.15 129.867 124.874 129.568 124.501 129.344C124.137 129.12 123.722 129.008 123.255 129.008C122.555 129.008 121.967 129.246 121.491 129.722C121.024 130.198 120.791 130.791 120.791 131.5C120.791 132.2 121.024 132.788 121.491 133.264C121.967 133.74 122.555 133.978 123.255 133.978C123.722 133.978 124.142 133.871 124.515 133.656C124.888 133.432 125.173 133.133 125.369 132.76L126.405 133.362C126.106 133.913 125.677 134.356 125.117 134.692C124.557 135.019 123.936 135.182 123.255 135.182ZM132.706 128V129.176H130.326V135H129.108V129.176H126.714V128H132.706ZM138.436 131.402C139.154 131.701 139.514 132.242 139.514 133.026C139.514 133.605 139.318 134.081 138.926 134.454C138.543 134.818 137.992 135 137.274 135H133.774V128H136.994C137.694 128 138.235 128.177 138.618 128.532C139 128.877 139.192 129.335 139.192 129.904C139.192 130.576 138.94 131.075 138.436 131.402ZM136.938 129.092H134.964V130.926H136.938C137.647 130.926 138.002 130.613 138.002 129.988C138.002 129.391 137.647 129.092 136.938 129.092ZM137.204 133.894C137.558 133.894 137.829 133.81 138.016 133.642C138.212 133.474 138.31 133.236 138.31 132.928C138.31 132.639 138.212 132.415 138.016 132.256C137.829 132.088 137.558 132.004 137.204 132.004H134.964V133.894H137.204ZM146.736 134.118C146.018 134.827 145.145 135.182 144.118 135.182C143.092 135.182 142.219 134.827 141.5 134.118C140.791 133.409 140.436 132.536 140.436 131.5C140.436 130.464 140.791 129.591 141.5 128.882C142.219 128.173 143.092 127.818 144.118 127.818C145.145 127.818 146.018 128.173 146.736 128.882C147.455 129.591 147.814 130.464 147.814 131.5C147.814 132.536 147.455 133.409 146.736 134.118ZM144.118 133.992C144.818 133.992 145.406 133.754 145.882 133.278C146.358 132.802 146.596 132.209 146.596 131.5C146.596 130.791 146.358 130.198 145.882 129.722C145.406 129.246 144.818 129.008 144.118 129.008C143.428 129.008 142.844 129.246 142.368 129.722C141.892 130.198 141.654 130.791 141.654 131.5C141.654 132.209 141.892 132.802 142.368 133.278C142.844 133.754 143.428 133.992 144.118 133.992ZM156.25 128V135H155.06V129.918L152.834 133.502H152.68L150.454 129.918V135H149.25V128H150.552L152.75 131.542L154.948 128H156.25ZM4.214 151.182C3.15933 151.182 2.282 150.832 1.582 150.132C0.882 149.423 0.532 148.545 0.532 147.5C0.532 146.455 0.882 145.582 1.582 144.882C2.282 144.173 3.15933 143.818 4.214 143.818C4.90467 143.818 5.52533 143.986 6.076 144.322C6.62667 144.649 7.03733 145.092 7.308 145.652L6.286 146.24C6.10867 145.867 5.83333 145.568 5.46 145.344C5.096 145.12 4.68067 145.008 4.214 145.008C3.514 145.008 2.926 145.246 2.45 145.722C1.98333 146.198 1.75 146.791 1.75 147.5C1.75 148.2 1.98333 148.788 2.45 149.264C2.926 149.74 3.514 149.978 4.214 149.978C4.68067 149.978 5.10067 149.871 5.474 149.656C5.84733 149.432 6.132 149.133 6.328 148.76L7.364 149.362C7.06533 149.913 6.636 150.356 6.076 150.692C5.516 151.019 4.89533 151.182 4.214 151.182ZM14.3789 150.118C13.6602 150.827 12.7875 151.182 11.7609 151.182C10.7342 151.182 9.86154 150.827 9.14288 150.118C8.43354 149.409 8.07888 148.536 8.07888 147.5C8.07888 146.464 8.43354 145.591 9.14288 144.882C9.86154 144.173 10.7342 143.818 11.7609 143.818C12.7875 143.818 13.6602 144.173 14.3789 144.882C15.0975 145.591 15.4569 146.464 15.4569 147.5C15.4569 148.536 15.0975 149.409 14.3789 150.118ZM11.7609 149.992C12.4609 149.992 13.0489 149.754 13.5249 149.278C14.0009 148.802 14.2389 148.209 14.2389 147.5C14.2389 146.791 14.0009 146.198 13.5249 145.722C13.0489 145.246 12.4609 145.008 11.7609 145.008C11.0702 145.008 10.4869 145.246 10.0109 145.722C9.53488 146.198 9.29688 146.791 9.29688 147.5C9.29688 148.209 9.53488 148.802 10.0109 149.278C10.4869 149.754 11.0702 149.992 11.7609 149.992ZM22.7728 149.838H23.9208V152.876H22.7168V151H16.8927V144H18.1108V149.838H21.5548V144H22.7728V149.838ZM30.3009 144H31.2809V151H30.0769V146.086L26.1989 151H25.2189V144H26.4229V148.914L30.3009 144ZM38.9309 144H40.1489V151H38.9309V149.796C38.3243 150.72 37.4423 151.182 36.2849 151.182C35.3049 151.182 34.4696 150.827 33.7789 150.118C33.0883 149.399 32.7429 148.527 32.7429 147.5C32.7429 146.473 33.0883 145.605 33.7789 144.896C34.4696 144.177 35.3049 143.818 36.2849 143.818C37.4423 143.818 38.3243 144.28 38.9309 145.204V144ZM36.4389 150.006C37.1483 150.006 37.7409 149.768 38.2169 149.292C38.6929 148.807 38.9309 148.209 38.9309 147.5C38.9309 146.791 38.6929 146.198 38.2169 145.722C37.7409 145.237 37.1483 144.994 36.4389 144.994C35.7389 144.994 35.1509 145.237 34.6749 145.722C34.1989 146.198 33.9609 146.791 33.9609 147.5C33.9609 148.209 34.1989 148.807 34.6749 149.292C35.1509 149.768 35.7389 150.006 36.4389 150.006ZM47.8323 144V151H46.6143V145.176H43.8563V148.032C43.8563 149.18 43.623 149.983 43.1563 150.44C42.699 150.888 42.0503 151.075 41.2103 151V149.852C41.6863 149.917 42.041 149.815 42.2743 149.544C42.517 149.264 42.6383 148.751 42.6383 148.004V144H47.8323ZM52.6319 146.52C53.3319 146.52 53.9106 146.73 54.3679 147.15C54.8346 147.561 55.0679 148.097 55.0679 148.76C55.0679 149.423 54.8346 149.964 54.3679 150.384C53.9106 150.795 53.3319 151 52.6319 151H49.6779V144H50.8959V146.52H52.6319ZM52.6319 149.866C52.9772 149.866 53.2666 149.768 53.4999 149.572C53.7426 149.367 53.8639 149.096 53.8639 148.76C53.8639 148.424 53.7426 148.153 53.4999 147.948C53.2666 147.743 52.9772 147.64 52.6319 147.64H50.8959V149.866H52.6319ZM61.2211 144H62.4391V151H61.2211V148.074H57.5951V151H56.3771V144H57.5951V146.912H61.2211V144ZM67.2471 146.52C67.9471 146.52 68.5258 146.73 68.9831 147.15C69.4498 147.561 69.6831 148.097 69.6831 148.76C69.6831 149.423 69.4498 149.964 68.9831 150.384C68.5258 150.795 67.9471 151 67.2471 151H64.2931V144H65.5111V146.52H67.2471ZM70.5931 144H71.8111V151H70.5931V144ZM67.2471 149.866C67.5925 149.866 67.8818 149.768 68.1151 149.572C68.3578 149.367 68.4791 149.096 68.4791 148.76C68.4791 148.424 68.3578 148.153 68.1151 147.948C67.8818 147.743 67.5925 147.64 67.2471 147.64H65.5111V149.866H67.2471ZM79.748 151H78.32L76.36 148.354L74.386 151H72.958L75.646 147.402L73.112 144H74.554L76.36 146.436L78.166 144H79.594L77.074 147.388L79.748 151ZM7.924 160V167H6.734V161.918L4.508 165.502H4.354L2.128 161.918V167H0.924V160H2.226L4.424 163.542L6.622 160H7.924ZM10.6374 164.06C10.7587 164.685 11.0434 165.171 11.4914 165.516C11.9487 165.861 12.5087 166.034 13.1714 166.034C14.0954 166.034 14.7674 165.693 15.1874 165.012L16.2234 165.6C15.542 166.655 14.5154 167.182 13.1434 167.182C12.0327 167.182 11.1274 166.837 10.4274 166.146C9.73671 165.446 9.39138 164.564 9.39138 163.5C9.39138 162.445 9.73204 161.568 10.4134 160.868C11.0947 160.168 11.9767 159.818 13.0594 159.818C14.086 159.818 14.9214 160.182 15.5654 160.91C16.2187 161.629 16.5454 162.497 16.5454 163.514C16.5454 163.691 16.5314 163.873 16.5034 164.06H10.6374ZM13.0594 160.966C12.406 160.966 11.8647 161.153 11.4354 161.526C11.006 161.89 10.74 162.38 10.6374 162.996H15.3134C15.2107 162.333 14.9494 161.829 14.5294 161.484C14.1094 161.139 13.6194 160.966 13.0594 160.966ZM21.2218 167.182C20.1671 167.182 19.2898 166.832 18.5898 166.132C17.8898 165.423 17.5398 164.545 17.5398 163.5C17.5398 162.455 17.8898 161.582 18.5898 160.882C19.2898 160.173 20.1671 159.818 21.2218 159.818C21.9125 159.818 22.5331 159.986 23.0838 160.322C23.6345 160.649 24.0451 161.092 24.3158 161.652L23.2938 162.24C23.1165 161.867 22.8411 161.568 22.4678 161.344C22.1038 161.12 21.6885 161.008 21.2218 161.008C20.5218 161.008 19.9338 161.246 19.4578 161.722C18.9911 162.198 18.7578 162.791 18.7578 163.5C18.7578 164.2 18.9911 164.788 19.4578 165.264C19.9338 165.74 20.5218 165.978 21.2218 165.978C21.6885 165.978 22.1085 165.871 22.4818 165.656C22.8551 165.432 23.1398 165.133 23.3358 164.76L24.3718 165.362C24.0731 165.913 23.6438 166.356 23.0838 166.692C22.5238 167.019 21.9031 167.182 21.2218 167.182ZM28.7687 167.182C27.714 167.182 26.8367 166.832 26.1367 166.132C25.4367 165.423 25.0867 164.545 25.0867 163.5C25.0867 162.455 25.4367 161.582 26.1367 160.882C26.8367 160.173 27.714 159.818 28.7687 159.818C29.4594 159.818 30.08 159.986 30.6307 160.322C31.1814 160.649 31.592 161.092 31.8627 161.652L30.8407 162.24C30.6634 161.867 30.388 161.568 30.0147 161.344C29.6507 161.12 29.2354 161.008 28.7687 161.008C28.0687 161.008 27.4807 161.246 27.0047 161.722C26.538 162.198 26.3047 162.791 26.3047 163.5C26.3047 164.2 26.538 164.788 27.0047 165.264C27.4807 165.74 28.0687 165.978 28.7687 165.978C29.2354 165.978 29.6554 165.871 30.0287 165.656C30.402 165.432 30.6867 165.133 30.8827 164.76L31.9187 165.362C31.62 165.913 31.1907 166.356 30.6307 166.692C30.0707 167.019 29.45 167.182 28.7687 167.182ZM33.8796 164.06C34.0009 164.685 34.2856 165.171 34.7336 165.516C35.1909 165.861 35.7509 166.034 36.4136 166.034C37.3376 166.034 38.0096 165.693 38.4296 165.012L39.4656 165.6C38.7842 166.655 37.7576 167.182 36.3856 167.182C35.2749 167.182 34.3696 166.837 33.6696 166.146C32.9789 165.446 32.6336 164.564 32.6336 163.5C32.6336 162.445 32.9742 161.568 33.6556 160.868C34.3369 160.168 35.2189 159.818 36.3016 159.818C37.3282 159.818 38.1636 160.182 38.8076 160.91C39.4609 161.629 39.7876 162.497 39.7876 163.514C39.7876 163.691 39.7736 163.873 39.7456 164.06H33.8796ZM36.3016 160.966C35.6482 160.966 35.1069 161.153 34.6776 161.526C34.2482 161.89 33.9822 162.38 33.8796 162.996H38.5556C38.4529 162.333 38.1916 161.829 37.7716 161.484C37.3516 161.139 36.8616 160.966 36.3016 160.966ZM46.0317 160H47.2497V167H46.0317V164.074H42.4057V167H41.1877V160H42.4057V162.912H46.0317V160ZM55.1237 165.838H56.0897V168.876H54.8857V167H49.6357V168.876H48.4317V165.838H49.2857C49.7337 165.222 49.9577 164.359 49.9577 163.248V160H55.1237V165.838ZM50.6717 165.838H53.9197V161.134H51.1617V163.248C51.1617 164.293 50.9984 165.157 50.6717 165.838ZM66.0125 167H64.5845L61.9665 163.682V167H60.7625V163.682L58.1445 167H56.7305L59.6565 163.388L56.8705 160H58.2845L60.7625 163.094V160H61.9665V163.094L64.4445 160H65.8725L63.0725 163.388L66.0125 167ZM67.4714 164.06C67.5927 164.685 67.8774 165.171 68.3254 165.516C68.7827 165.861 69.3427 166.034 70.0054 166.034C70.9294 166.034 71.6014 165.693 72.0214 165.012L73.0574 165.6C72.376 166.655 71.3494 167.182 69.9774 167.182C68.8667 167.182 67.9614 166.837 67.2614 166.146C66.5707 165.446 66.2254 164.564 66.2254 163.5C66.2254 162.445 66.566 161.568 67.2474 160.868C67.9287 160.168 68.8107 159.818 69.8934 159.818C70.92 159.818 71.7554 160.182 72.3994 160.91C73.0527 161.629 73.3794 162.497 73.3794 163.514C73.3794 163.691 73.3654 163.873 73.3374 164.06H67.4714ZM69.8934 160.966C69.24 160.966 68.6987 161.153 68.2694 161.526C67.84 161.89 67.574 162.38 67.4714 162.996H72.1474C72.0447 162.333 71.7834 161.829 71.3634 161.484C70.9434 161.139 70.4534 160.966 69.8934 160.966ZM78.6435 159.818C79.6235 159.818 80.4588 160.177 81.1495 160.896C81.8401 161.605 82.1855 162.473 82.1855 163.5C82.1855 164.527 81.8401 165.399 81.1495 166.118C80.4588 166.827 79.6235 167.182 78.6435 167.182C77.4861 167.182 76.6041 166.72 75.9975 165.796V169.8H74.7795V160H75.9975V161.204C76.6041 160.28 77.4861 159.818 78.6435 159.818ZM78.4895 166.006C79.1895 166.006 79.7775 165.768 80.2535 165.292C80.7295 164.807 80.9675 164.209 80.9675 163.5C80.9675 162.791 80.7295 162.198 80.2535 161.722C79.7775 161.237 79.1895 160.994 78.4895 160.994C77.7801 160.994 77.1875 161.237 76.7115 161.722C76.2355 162.198 75.9975 162.791 75.9975 163.5C75.9975 164.209 76.2355 164.807 76.7115 165.292C77.1875 165.768 77.7801 166.006 78.4895 166.006ZM89.5468 166.118C88.8282 166.827 87.9555 167.182 86.9288 167.182C85.9022 167.182 85.0295 166.827 84.3108 166.118C83.6015 165.409 83.2468 164.536 83.2468 163.5C83.2468 162.464 83.6015 161.591 84.3108 160.882C85.0295 160.173 85.9022 159.818 86.9288 159.818C87.9555 159.818 88.8282 160.173 89.5468 160.882C90.2655 161.591 90.6248 162.464 90.6248 163.5C90.6248 164.536 90.2655 165.409 89.5468 166.118ZM86.9288 165.992C87.6288 165.992 88.2168 165.754 88.6928 165.278C89.1688 164.802 89.4068 164.209 89.4068 163.5C89.4068 162.791 89.1688 162.198 88.6928 161.722C88.2168 161.246 87.6288 161.008 86.9288 161.008C86.2382 161.008 85.6548 161.246 85.1788 161.722C84.7028 162.198 84.4648 162.791 84.4648 163.5C84.4648 164.209 84.7028 164.802 85.1788 165.278C85.6548 165.754 86.2382 165.992 86.9288 165.992ZM96.7227 163.402C97.4414 163.701 97.8007 164.242 97.8007 165.026C97.8007 165.605 97.6047 166.081 97.2127 166.454C96.8301 166.818 96.2794 167 95.5607 167H92.0607V160H95.2807C95.9807 160 96.5221 160.177 96.9047 160.532C97.2874 160.877 97.4787 161.335 97.4787 161.904C97.4787 162.576 97.2267 163.075 96.7227 163.402ZM95.2247 161.092H93.2507V162.926H95.2247C95.9341 162.926 96.2887 162.613 96.2887 161.988C96.2887 161.391 95.9341 161.092 95.2247 161.092ZM95.4907 165.894C95.8454 165.894 96.1161 165.81 96.3027 165.642C96.4987 165.474 96.5967 165.236 96.5967 164.928C96.5967 164.639 96.4987 164.415 96.3027 164.256C96.1161 164.088 95.8454 164.004 95.4907 164.004H93.2507V165.894H95.4907ZM99.7594 168.4H98.5414C99.5681 166.347 100.081 164.247 100.081 162.1C100.081 159.953 99.5681 157.853 98.5414 155.8H99.7594C100.786 157.853 101.299 159.953 101.299 162.1C101.299 164.247 100.786 166.347 99.7594 168.4Z" fill="white"/>
<line x1="50" y1="46" y2="46" stroke="#2CBF56" stroke-width="2"/>
<circle cx="55" cy="45" r="45" fill="url(#paint0_radial)"/>
<circle cx="55" cy="44" r="30" fill="#212121" fill-opacity="0.5"/>
<circle cx="55" cy="44" r="25" fill="#2CBF56"/>
<path d="M50.1536 36.2627L49.0486 36.1986C48.6903 36.1665 48.3618 36.2947 48.0931 36.5511C47.5555 37.0638 46.6895 38.0252 46.4506 39.2749C46.0624 41.1656 46.6597 43.4409 48.2424 45.7482C49.8251 48.0554 52.7516 51.7086 57.9177 53.2789C59.59 53.7916 60.904 53.4391 61.9193 52.7341C62.7255 52.1893 63.2631 51.292 63.4721 50.2986L63.6513 49.4014C63.711 49.1129 63.5617 48.8245 63.3228 48.7284L59.59 46.8697C59.3511 46.7416 59.0525 46.8377 58.9032 47.062L57.4399 49.1129C57.3205 49.2732 57.1413 49.3373 56.9621 49.2732C55.9468 48.8886 52.6023 47.3825 50.7508 43.5691C50.6612 43.4088 50.6911 43.2166 50.8105 43.0563L52.214 41.3259C52.3634 41.1336 52.3932 40.9093 52.3036 40.6849L50.6911 36.6472C50.5716 36.4229 50.3626 36.2627 50.1536 36.2627Z" stroke="white" stroke-width="2" stroke-miterlimit="10" stroke-linecap="round" stroke-linejoin="round"/>
<path d="M39.8376 60.0204L41.9601 52.4922C40.607 50.186 39.8642 47.5353 39.8642 44.8315C39.8642 36.4815 46.6561 29.6955 55.0134 29.6955C63.3706 29.6955 70.1625 36.4815 70.1625 44.8315C70.1625 53.1814 63.3706 59.9674 55.0134 59.9674C52.4133 59.9674 49.8663 59.3047 47.6112 58.0323L39.8376 60.0204Z" stroke="white" stroke-width="2" stroke-miterlimit="10" stroke-linecap="round" stroke-linejoin="round"/>
<defs>
<radialGradient id="paint0_radial" cx="0" cy="0" r="1" gradientUnits="userSpaceOnUse" gradientTransform="translate(55 45) rotate(90) scale(45)">
<stop stop-color="#2CBF56"/>
<stop offset="1" stop-color="#2CBF56" stop-opacity="0"/>
</radialGradient>
</defs>
</svg>
