<svg width="80" height="84" viewBox="0 0 80 84" fill="none" xmlns="http://www.w3.org/2000/svg">
<g filter="url(#filter0_d_23:4342)">
<path d="M20 42C20 29.8497 29.8497 20 42 20C54.1503 20 64 29.8497 64 42V64H42C29.8497 64 20 54.1503 20 42Z" fill="#3474D3"/>
</g>
<path d="M51.178 41.0607C51.1052 36.0421 47.0212 32 41.9805 32C36.9411 32 32.8557 36.0404 32.7829 41.0607C32.7803 41.1466 32.7823 41.1263 32.7812 44.1217C32.7812 45.2999 33.7397 46.2584 34.9178 46.2584H34.9181C36.0962 46.2584 37.0546 45.2999 37.0546 44.1217V41.1264C37.0546 39.9483 36.0962 38.9899 34.9178 38.9899C34.8323 38.9899 34.7481 38.9955 34.6651 39.0053C35.6096 35.8605 38.5314 33.5625 41.9805 33.5625C45.4294 33.5625 48.3513 35.8605 49.2958 39.0053C49.2128 38.9955 49.1284 38.9899 49.0428 38.9899C47.8649 38.9899 46.9063 39.9483 46.9063 41.1264V44.1217C46.9063 45.2999 47.8649 46.2584 49.0428 46.2584H49.0432C49.0639 46.2584 49.0844 46.2574 49.1049 46.2567C48.3248 47.7843 46.7353 48.8327 44.9054 48.8327H44.2345C43.9101 47.8997 43.0226 47.228 41.9805 47.228C40.6649 47.228 39.5945 48.2982 39.5945 49.614C39.5945 50.9296 40.6649 52 41.9805 52C43.0226 52 43.9101 51.3283 44.2345 50.3952H44.9054C48.3651 50.3952 51.1797 47.5811 51.1797 44.1219V44.1217V41.1264C51.1797 41.1043 51.1786 41.0826 51.178 41.0607ZM34.9181 40.5524C35.2347 40.5524 35.4921 40.8098 35.4921 41.1264V44.1217C35.4921 44.4384 35.2347 44.6958 34.9181 44.6958H34.9178C34.6013 44.6958 34.3438 44.4384 34.3438 44.1217C34.3444 42.1378 34.3424 41.3138 34.345 41.1025C34.3576 40.7971 34.6093 40.5524 34.9181 40.5524ZM41.9805 50.4375C41.5264 50.4375 41.157 50.0681 41.157 49.614C41.157 49.1599 41.5264 48.7905 41.9805 48.7905C42.4346 48.7905 42.804 49.1599 42.804 49.614C42.804 50.0681 42.4346 50.4375 41.9805 50.4375ZM49.6172 44.1217C49.6172 44.4384 49.3596 44.6958 49.0432 44.6958H49.0428C48.7264 44.6958 48.4688 44.4384 48.4688 44.1217V41.1264C48.4688 40.8098 48.7264 40.5524 49.0432 40.5524C49.3517 40.5524 49.6033 40.7971 49.616 41.1025C49.6183 41.2899 49.6163 41.0622 49.6172 44.1217Z" fill="white"/>
<defs>
<filter id="filter0_d_23:4342" x="0" y="0" width="84" height="84" filterUnits="userSpaceOnUse" color-interpolation-filters="sRGB">
<feFlood flood-opacity="0" result="BackgroundImageFix"/>
<feColorMatrix in="SourceAlpha" type="matrix" values="0 0 0 0 0 0 0 0 0 0 0 0 0 0 0 0 0 0 127 0" result="hardAlpha"/>
<feOffset/>
<feGaussianBlur stdDeviation="10"/>
<feComposite in2="hardAlpha" operator="out"/>
<feColorMatrix type="matrix" values="0 0 0 0 0 0 0 0 0 0.228092 0 0 0 0 0.566667 0 0 0 0.3 0"/>
<feBlend mode="normal" in2="BackgroundImageFix" result="effect1_dropShadow_23:4342"/>
<feBlend mode="normal" in="SourceGraphic" in2="effect1_dropShadow_23:4342" result="shape"/>
</filter>
</defs>
</svg>
