<svg width="195" height="50" viewBox="0 0 195 50" fill="none" xmlns="http://www.w3.org/2000/svg">
<path fill-rule="evenodd" clip-rule="evenodd" d="M37.792 3.30576C37.792 3.30576 37.915 10.461 43.7547 12.3055C43.7547 12.3055 40.9885 17.74 41.7876 23.5088C42.5867 29.2775 41.1237 40.8893 21.8712 50.0005C2.61864 40.8893 1.15564 29.2775 1.95476 23.5088C2.76617 17.74 0 12.3179 0 12.3179C5.83969 10.4734 5.96264 3.31814 5.96264 3.31814C10.384 3.44844 13.6618 2.29188 16.4476 1.30892C18.4258 0.610938 20.1559 0.000488281 21.8712 0.000488281C23.5835 0.000488281 25.3106 0.608833 27.2854 1.30443C30.0746 2.28692 33.3581 3.44347 37.792 3.30576ZM6.23295 24.3752C6.23295 24.2613 6.26253 24.133 6.30687 24.0191C6.31587 23.9497 6.34677 23.8803 6.37624 23.8141C6.39518 23.7716 6.41352 23.7304 6.42509 23.6913C7.94737 21.0555 10.046 18.9611 12.7359 17.4081C15.4997 15.798 18.5294 15.0002 21.7809 15.0002C25.1802 15.0002 28.2691 15.8693 31.1215 17.5648C33.8409 19.2603 35.9396 21.5257 37.4028 24.3467C35.9544 27.1963 33.8557 29.4617 31.1215 31.1287C28.3134 32.8812 25.2098 33.7503 21.84 33.7503C20.3917 33.7503 18.9728 33.5793 17.5835 33.2516C16.2386 32.9524 14.9528 32.4537 13.7261 31.8411C13.534 31.7983 13.3566 31.6843 13.2384 31.5134C13.1202 31.3709 13.0463 31.1857 13.0463 30.972C13.0463 30.7155 13.1497 30.5018 13.3419 30.3166C13.534 30.1313 13.7557 30.0316 14.0217 30.0316C14.2286 30.0316 14.3616 30.0743 14.539 30.1741C15.6474 30.744 16.7855 31.1857 18.0122 31.4706C19.2536 31.7413 20.5247 31.9123 21.8253 31.9123C24.6629 31.9123 27.2937 31.2284 29.7175 29.8321C32.097 28.4928 33.9444 26.6691 35.3189 24.3895C33.9148 22.1098 32.0674 20.2861 29.7175 18.9468C27.2789 17.5506 24.6629 16.8666 21.8253 16.8666C19.0172 16.8666 16.3569 17.6218 13.8148 19.1463C11.391 20.5853 9.48444 22.466 8.09517 24.7742C8.02127 24.9309 7.90302 25.0734 7.75523 25.1731C7.60743 25.2729 7.43007 25.3156 7.23794 25.3156C6.97191 25.3156 6.72069 25.2159 6.52855 25.0306C6.33642 24.8454 6.23295 24.6317 6.23295 24.3752ZM11.0806 28.1224C10.8146 28.1224 10.5929 28.2221 10.4008 28.4074C10.2086 28.5641 10.1052 28.8063 10.1052 29.0627C10.1052 29.3192 10.2086 29.533 10.4008 29.7182C10.5929 29.9034 10.8146 30.0031 11.0806 30.0031C11.3466 30.0031 11.5683 29.9034 11.7604 29.7182C11.9526 29.533 12.0561 29.3192 12.0561 29.0627C12.0561 28.8063 11.9526 28.5926 11.7604 28.4074C11.5683 28.2221 11.3466 28.1224 11.0806 28.1224ZM25.2393 21.9958C24.9733 21.9958 24.7516 21.8961 24.5595 21.7109C24.3525 21.5257 24.2639 21.3119 24.2639 21.0555C24.2639 20.8275 24.3673 20.5853 24.5595 20.4001C24.7516 20.2149 24.9733 20.1151 25.2393 20.1151C25.5054 20.1151 25.727 20.2149 25.9192 20.4001C26.1113 20.5568 26.2147 20.799 26.2147 21.0555C26.2147 21.3119 26.1113 21.5257 25.9192 21.7109C25.727 21.8961 25.5054 21.9958 25.2393 21.9958ZM22.7712 19.6592C22.7712 19.4313 22.6677 19.189 22.4755 19.0038C22.2982 18.8471 22.0913 18.7473 21.84 18.7331V18.6903C21.0863 18.6903 20.3473 18.8328 19.6379 19.1178C18.8989 19.4028 18.2634 19.8302 17.7018 20.3716C16.549 21.4545 15.9874 22.7937 15.9874 24.3467C15.9874 25.8997 16.549 27.2106 17.7018 28.3219C18.8398 29.4332 20.2143 29.9746 21.8253 29.9746C23.4362 29.9746 24.7959 29.4332 25.9487 28.3219C26.5103 27.7805 26.9537 27.1678 27.2493 26.4554C27.5154 25.7858 27.6631 25.0876 27.6631 24.3325C27.6631 24.076 27.5597 23.8623 27.3676 23.6771C27.1754 23.4919 26.9537 23.3921 26.6877 23.3921C26.4217 23.3921 26.2 23.4919 26.0079 23.6771C25.8157 23.8623 25.7122 24.076 25.7122 24.361C25.7122 24.8597 25.6088 25.3156 25.4167 25.7573C25.2246 26.2275 24.9437 26.6549 24.5595 27.0111C23.8057 27.7519 22.8746 28.1224 21.7957 28.1224C20.7168 28.1224 19.7857 27.7377 19.032 27.0111C18.2634 26.2559 17.8792 25.3868 17.8792 24.3467C17.8792 23.3066 18.2782 22.409 19.032 21.6824C19.4014 21.3262 19.8448 21.0413 20.303 20.856C20.7611 20.6993 21.2489 20.5995 21.7662 20.5995C22.0617 20.5995 22.2834 20.4998 22.4755 20.3146C22.6677 20.1294 22.7712 19.9157 22.7712 19.6592Z" fill="white"/>
<path fill-rule="evenodd" clip-rule="evenodd" d="M90.8173 17.5929C91.1722 17.6609 91.4839 17.8309 91.7003 18.1113C91.9081 18.4258 92.0206 18.7317 91.9427 19.0801C91.8735 19.4286 91.7003 19.7005 91.4146 19.9469C91.1289 20.1509 90.7827 20.2614 90.4277 20.1849C90.142 20.1509 89.865 20.1169 89.5793 20.1169C88.1336 20.1169 86.8696 20.6353 85.8481 21.6381C84.8265 22.6409 84.2984 23.8476 84.2984 25.3008C84.2984 26.72 84.7919 27.9607 85.8481 28.9635C86.8696 29.9663 88.0989 30.4847 89.5793 30.4847C91.0597 30.4847 92.289 29.9663 93.3105 28.9635C94.1936 28.0627 94.7217 27.0259 94.8256 25.8532V25.8192C94.8602 25.6492 94.8602 25.4708 94.8602 25.3008C94.8602 25.2668 94.8602 25.2328 94.8602 25.1988C94.8256 24.8504 94.9294 24.5105 95.1459 24.23C95.3883 23.9496 95.6739 23.7796 96.0635 23.7456C96.4185 23.7117 96.7301 23.8136 97.0505 24.0261C97.3361 24.23 97.5093 24.5445 97.5439 24.8929C97.5785 25.0289 97.5785 25.1309 97.5785 25.2753C97.5785 25.5558 97.5439 25.8277 97.5439 26.1081V26.0741C97.3708 27.8673 96.6262 29.4564 95.2584 30.8076C93.7088 32.3288 91.8475 33.0852 89.6226 33.0852C87.3977 33.0852 85.5364 32.3288 83.9954 30.8076C82.4458 29.2865 81.6753 27.4254 81.6753 25.2753C81.6753 23.1338 82.4458 21.2982 83.9954 19.7855C85.545 18.2643 87.4063 17.508 89.6226 17.508C89.9689 17.4825 90.3931 17.525 90.8173 17.5929Z" fill="white"/>
<path fill-rule="evenodd" clip-rule="evenodd" d="M93.3081 20.4391C93.3081 19.871 93.5924 19.4224 94.1711 19.1035C94.3741 19.0238 94.5874 18.9839 94.7904 18.9839H94.8716C95.4503 18.9839 95.8666 19.263 96.1915 19.871C96.2727 20.0703 96.3133 20.2796 96.3133 20.479C96.3133 21.0471 96.029 21.5355 95.4503 21.8146C95.2473 21.8943 95.0341 21.9342 94.8716 21.9342H94.7092C94.2523 21.9342 93.8462 21.695 93.4706 21.2066C93.3893 20.9275 93.3081 20.6783 93.3081 20.4391Z" fill="white"/>
<path fill-rule="evenodd" clip-rule="evenodd" d="M194.928 29.9743C194.643 29.4899 194.262 29.252 193.768 29.252C193.561 29.252 193.31 29.32 193.102 29.4219C192.115 30.1783 191.059 30.5607 189.933 30.5607C189.016 30.5607 188.141 30.3228 187.293 29.8723C187.007 29.7364 186.661 29.4559 186.237 29.0395C185.284 28.0027 184.826 26.898 184.826 25.6572C184.826 25.1389 184.929 24.5865 185.111 24.0001C185.432 22.9633 186.064 22.1305 186.973 21.5101C187.431 21.2297 187.674 20.8898 187.674 20.4394C187.674 20.2694 187.639 20.0909 187.57 19.887C187.284 19.4366 186.903 19.1986 186.444 19.1986H186.341C186.055 19.1986 185.674 19.4026 185.18 19.819C184.938 19.955 184.618 20.2694 184.228 20.6858C183.804 21.1702 183.492 21.5866 183.276 21.9605C182.644 23.1673 182.324 24.3825 182.324 25.6572C182.324 26.762 182.609 27.8328 183.129 28.9036C184.116 30.7307 185.484 31.9799 187.25 32.6003C188.167 32.8807 188.868 33.0167 189.327 33.0167H190.453C190.773 33.0167 191.266 32.9147 191.933 32.7363C192.288 32.6343 192.634 32.4983 193.024 32.3198C193.344 32.1839 193.725 31.9374 194.115 31.6655C194.677 31.351 194.963 30.9431 194.963 30.4247C195.032 30.3228 194.998 30.1528 194.928 29.9743ZM190.245 17.9239C190.669 17.9239 191.059 18.1278 191.336 18.5103C191.474 18.7482 191.578 18.9947 191.578 19.2666C191.578 19.751 191.336 20.1674 190.842 20.4394C190.635 20.5413 190.418 20.5753 190.21 20.5753C189.682 20.5753 189.258 20.2949 188.946 19.7765C188.877 19.5725 188.842 19.3941 188.842 19.2241C188.842 18.7397 189.085 18.3233 189.578 18.0514C189.786 17.9494 190.003 17.9154 190.176 17.9154H190.245V17.9239ZM63.1489 28.6316C63.1489 28.1472 62.9758 27.6968 62.5862 27.2804C62.2312 26.898 61.7378 26.728 61.1058 26.728H57.4092V30.5267H61.1404C62.0581 30.5267 62.6901 30.0763 63.045 29.1755C63.1143 28.98 63.1489 28.8016 63.1489 28.6316ZM64.0319 25.4193C64.9496 26.2521 65.4084 27.3229 65.4084 28.5976C65.4084 29.9488 64.8457 31.1216 63.6856 32.0564C63.2961 32.3368 62.9498 32.5408 62.5948 32.6768C62.0321 32.8807 61.6079 32.9912 61.3309 32.9912H55.5566C55.3488 32.9912 55.1324 32.8552 54.8553 32.6088C54.6129 32.3283 54.5004 32.0564 54.5004 31.742V25.3513C54.5004 24.9009 54.7428 24.5185 55.2362 24.2465C55.444 24.1446 55.6258 24.1106 55.7643 24.1106C55.9721 24.1106 56.0847 24.1106 56.1193 24.1106H60.9759C61.2963 24.1106 61.6426 23.9746 62.0668 23.7282C62.5602 23.2777 62.8026 22.7594 62.8026 22.173C62.8026 21.7226 62.6295 21.2722 62.2745 20.8558C61.8849 20.4733 61.4261 20.2694 60.8634 20.2694H55.0891C54.4917 20.2694 54.0675 19.9889 53.8251 19.4366C53.7559 19.3006 53.7559 19.1561 53.7559 19.0202V18.9862C53.7559 18.5358 53.9636 18.1958 54.3878 17.9154C54.5956 17.7794 54.8467 17.7114 55.0891 17.7114H60.8288C62.1274 17.7114 63.2614 18.1958 64.2051 19.1986C64.9756 20.0654 65.3651 21.0682 65.3651 22.173C65.3651 23.4817 64.9063 24.5185 64.0319 25.4193ZM74.4465 17.9919C74.6197 17.9239 74.7668 17.9239 74.8707 17.9239H74.9746C75.4334 17.9239 75.823 18.1278 76.1347 18.5782C76.2386 18.7822 76.2732 18.9947 76.2732 19.1646V31.8099C76.2732 32.3623 75.9875 32.7447 75.4248 32.9827C75.2863 33.0167 75.217 33.0507 75.1391 33.0507H74.6456C74.4379 33.0507 74.1522 32.9147 73.8751 32.6343C73.6674 32.3963 73.5548 32.0819 73.5548 31.7675V19.1901C73.6068 18.6462 73.8838 18.2298 74.4465 17.9919ZM103.206 18.3318C103.413 18.2298 103.63 18.1958 103.838 18.1958H103.872C104.331 18.1958 104.686 18.3998 105.032 18.8162C105.136 18.9862 106.617 20.8218 109.465 24.3485L110.131 25.1814C112.209 22.6574 113.967 20.4478 115.412 18.6547C115.733 18.3828 116.01 18.2383 116.365 18.2383H116.468C116.927 18.2383 117.317 18.4763 117.629 18.8927C117.767 19.0966 117.836 19.3431 117.836 19.547C117.836 19.9295 117.663 20.3459 117.274 20.7198L111.153 28.3512C110.867 28.6316 110.556 28.7336 110.166 28.7336C109.673 28.7336 109.248 28.4956 108.937 28.0452L105.309 23.5497V31.6655C105.309 32.3198 104.989 32.8042 104.357 33.0507C104.288 33.0847 104.219 33.0847 104.149 33.0847H103.69C103.483 33.0847 103.197 32.9487 102.92 32.7023C102.643 32.4218 102.53 32.0819 102.53 31.6995V19.955L102.461 19.6065C102.461 19.0287 102.712 18.6122 103.206 18.3318ZM157.685 19.3006C157.685 18.8162 157.893 18.3998 158.352 18.1278C158.594 17.9919 158.811 17.9239 159.053 17.9239H159.192C159.72 17.9239 160.179 18.2383 160.568 18.8587C161.2 19.7935 161.52 20.8303 161.52 21.935V21.969C161.52 23.3542 161.062 24.561 160.109 25.6657C159.616 26.1501 159.296 26.4221 159.122 26.4986C158.837 26.7025 158.56 26.847 158.274 26.983C160.101 29.2945 161.122 30.5777 161.304 30.8157C161.443 31.0536 161.512 31.3001 161.512 31.504V31.674C161.512 32.1584 161.269 32.5748 160.741 32.9147C160.499 33.0167 160.317 33.0847 160.213 33.0847H159.685C159.399 33.0507 159.122 32.9147 158.837 32.6683C156.092 29.2095 154.716 27.4504 154.647 27.3824C154.543 27.1444 154.473 26.898 154.473 26.66V26.5241C154.473 25.9717 154.759 25.4533 155.287 25.0369C155.642 24.7989 155.954 24.6885 156.274 24.6885C156.56 24.6545 156.768 24.5865 156.975 24.4845C157.607 24.2041 158.066 23.7281 158.387 23.0993C158.525 22.7169 158.594 22.4109 158.594 22.1305V22.0965V22.0285V21.9265C158.594 21.4421 158.421 20.9238 158.066 20.4394V20.4054C157.832 20.0654 157.685 19.717 157.685 19.3006ZM147.799 17.9239C148.223 17.9239 148.569 18.1278 148.855 18.5443C148.959 18.7482 149.028 18.9947 149.028 19.1986C149.028 19.649 148.82 20.0314 148.327 20.3034C148.119 20.4054 147.937 20.4394 147.764 20.4394H147.66C147.201 20.4394 146.846 20.2354 146.569 19.785C146.466 19.581 146.396 19.3686 146.396 19.1646C146.396 18.7142 146.604 18.3318 147.063 18.0599C147.271 17.9579 147.453 17.9239 147.66 17.9239H147.799ZM172.827 17.9919C172.965 17.9239 173.147 17.9239 173.251 17.9239H173.355C173.814 17.9239 174.203 18.1278 174.515 18.5782C174.619 18.7822 174.653 18.9947 174.653 19.1646V31.8099C174.653 32.3623 174.368 32.7447 173.805 32.9827C173.666 33.0167 173.597 33.0507 173.519 33.0507H173.026C172.818 33.0507 172.532 32.9147 172.255 32.6343C172.048 32.3963 171.935 32.0819 171.935 31.7675V19.1901C171.944 18.6462 172.221 18.2298 172.827 17.9919ZM123.515 17.9239H131.047H131.082H131.116C131.575 17.9239 131.965 18.1618 132.242 18.6122C132.346 18.7822 132.38 18.9947 132.38 19.1986C132.38 19.683 132.138 20.0654 131.645 20.3374C131.471 20.4054 131.29 20.4394 131.116 20.4394H123.446C123.091 20.4394 122.78 20.2694 122.494 19.955C122.321 19.717 122.208 19.4706 122.208 19.2326V19.1306C122.208 18.7482 122.416 18.4083 122.806 18.1278C123.013 17.9919 123.23 17.9239 123.437 17.9239H123.472H123.515ZM123.481 24.2465H127.385C127.671 24.2465 127.913 24.3825 128.234 24.629C128.476 24.9094 128.589 25.1813 128.589 25.4958C128.589 25.9462 128.381 26.2946 127.957 26.5665C127.749 26.6685 127.532 26.7365 127.359 26.7365H123.42C123.031 26.7365 122.719 26.5666 122.433 26.1501C122.295 25.9462 122.225 25.7337 122.225 25.5298V25.4278C122.225 25.0114 122.433 24.6715 122.857 24.391C123.057 24.3145 123.264 24.2465 123.481 24.2465ZM136.146 19.1646C136.146 18.7142 136.354 18.3743 136.744 18.0938C136.951 17.9579 137.168 17.9239 137.376 17.9239H142.622C143.046 17.9239 143.436 18.1278 143.713 18.5782C143.816 18.7822 143.851 18.9947 143.851 19.1646V31.8439C143.851 32.2943 143.609 32.6768 143.115 32.9487C142.942 33.0167 142.83 33.0507 142.76 33.0507H142.336C142.128 33.0507 141.877 32.9147 141.635 32.7023C141.392 32.4643 141.245 32.1159 141.245 31.6995V20.4394H137.341C136.951 20.4394 136.57 20.2354 136.285 19.819C136.215 19.581 136.146 19.3686 136.146 19.1646ZM129.775 25.5213C129.775 25.0369 130.017 24.6545 130.51 24.3825C130.684 24.3145 130.865 24.2805 131.039 24.2805H131.108C131.601 24.2805 131.991 24.5185 132.233 25.0369C132.302 25.2068 132.337 25.3853 132.337 25.5553C132.337 26.0397 132.095 26.4561 131.601 26.694C131.428 26.762 131.246 26.796 131.108 26.796H130.969C130.58 26.796 130.233 26.5921 129.913 26.1756C129.852 25.9377 129.775 25.7252 129.775 25.5213ZM131.324 30.6032C131.645 30.6712 131.887 30.8072 132.025 31.0196C132.233 31.2576 132.346 31.538 132.346 31.8524C132.346 32.3368 132.103 32.7193 131.61 32.9912C131.437 33.0592 131.324 33.0592 131.29 33.0592H123.23C123.022 33.0592 122.771 32.9232 122.494 32.6428C122.321 32.3623 122.208 32.1244 122.208 31.8864V31.8184C122.208 31.368 122.416 31.0196 122.875 30.7477C123.013 30.6797 123.23 30.6117 123.507 30.5777H131.039C131.047 30.5692 131.151 30.5692 131.324 30.6032Z" fill="white"/>
</svg>
