<svg width="343" height="138" viewBox="0 0 343 138" fill="none" xmlns="http://www.w3.org/2000/svg">
<rect y="30" width="343" height="108" rx="54" fill="#F1D742"/>
<path d="M102.586 77.932C103.09 78.1467 103.482 78.4593 103.762 78.87C104.042 79.2807 104.182 79.766 104.182 80.326C104.182 81.166 103.865 81.852 103.23 82.384C102.605 82.916 101.774 83.182 100.738 83.182C99.7957 83.182 99.035 82.972 98.4564 82.552C97.887 82.132 97.4857 81.5907 97.2524 80.928L98.3584 80.298C98.6477 81.3993 99.441 81.95 100.738 81.95C101.42 81.95 101.947 81.8007 102.32 81.502C102.694 81.194 102.88 80.788 102.88 80.284C102.88 79.78 102.703 79.374 102.348 79.066C102.003 78.758 101.518 78.604 100.892 78.604H99.7444V77.414H100.57C101.168 77.414 101.644 77.2693 101.998 76.98C102.353 76.6813 102.53 76.294 102.53 75.818C102.53 75.3513 102.362 74.9733 102.026 74.684C101.7 74.3853 101.242 74.236 100.654 74.236C99.5717 74.236 98.8484 74.7167 98.4844 75.678L97.3924 75.048C97.9804 73.6947 99.0677 73.018 100.654 73.018C101.597 73.018 102.358 73.2793 102.936 73.802C103.524 74.3247 103.818 74.9873 103.818 75.79C103.818 76.7233 103.408 77.4373 102.586 77.932ZM112.183 83L111.385 80.802H106.975L106.177 83H104.791L108.445 73.2H109.915L113.569 83H112.183ZM107.423 79.584H110.937L109.173 74.754L107.423 79.584ZM125.897 81.768H126.947V84.876H125.645V83H114.725V73.2H116.027V81.768H119.667V73.2H120.955V81.768H124.595V73.2H125.897V81.768ZM134.541 83V75.692L129.501 83H128.451V73.2H129.753V80.522L134.793 73.2H135.843V83H134.541ZM144.212 73.2V74.432H141.314V83H140.026V74.432H137.142V73.2H144.212ZM151.243 83L150.445 80.802H146.035L145.237 83H143.851L147.505 73.2H148.975L152.629 83H151.243ZM146.483 79.584H149.997L148.233 74.754L146.483 79.584ZM162.899 73.2H164.215L161.065 80.676C160.711 81.516 160.258 82.1273 159.707 82.51C159.157 82.8833 158.485 83.0467 157.691 83V81.796C158.233 81.852 158.671 81.7727 159.007 81.558C159.343 81.3433 159.623 80.9747 159.847 80.452L159.945 80.228L156.627 73.2H157.943L160.547 78.8L162.899 73.2ZM170.796 73.2H172.098V83H170.796V79.052C170.031 79.416 169.228 79.598 168.388 79.598C167.436 79.598 166.666 79.332 166.078 78.8C165.49 78.2587 165.196 77.5587 165.196 76.7V73.2H166.498V76.616C166.498 77.148 166.666 77.5727 167.002 77.89C167.338 78.2073 167.805 78.366 168.402 78.366C169.242 78.366 170.04 78.184 170.796 77.82V73.2ZM180.651 83L179.853 80.802H175.443L174.645 83H173.259L176.913 73.2H178.383L182.037 83H180.651ZM175.891 79.584H179.405L177.641 74.754L175.891 79.584ZM194.366 81.768H195.416V84.876H194.114V83H183.194V73.2H184.496V81.768H188.136V73.2H189.424V81.768H193.064V73.2H194.366V81.768ZM203.01 83V75.692L197.97 83H196.92V73.2H198.222V80.522L203.262 73.2H204.312V83H203.01ZM213.38 83H211.896L209.488 79.136L207.08 83H205.61L208.76 77.96L205.792 73.2H207.262L209.488 76.77L211.714 73.2H213.184L210.23 77.946L213.38 83ZM218.807 83.182C217.323 83.182 216.096 82.692 215.125 81.712C214.164 80.732 213.683 79.528 213.683 78.1C213.683 76.672 214.164 75.468 215.125 74.488C216.096 73.508 217.323 73.018 218.807 73.018C219.703 73.018 220.525 73.2327 221.271 73.662C222.027 74.0913 222.615 74.67 223.035 75.398L221.901 76.056C221.621 75.5147 221.201 75.0853 220.641 74.768C220.091 74.4413 219.479 74.278 218.807 74.278C217.678 74.278 216.754 74.642 216.035 75.37C215.326 76.098 214.971 77.008 214.971 78.1C214.971 79.1827 215.326 80.088 216.035 80.816C216.754 81.544 217.678 81.908 218.807 81.908C219.479 81.908 220.091 81.7493 220.641 81.432C221.201 81.1053 221.621 80.676 221.901 80.144L223.035 80.788C222.625 81.516 222.041 82.0993 221.285 82.538C220.529 82.9673 219.703 83.182 218.807 83.182ZM230.967 73.2V83H229.679V79.248H227.733L225.199 83H223.729L226.333 79.164C225.661 79.0053 225.106 78.6507 224.667 78.1C224.229 77.5493 224.009 76.9287 224.009 76.238C224.009 75.398 224.303 74.684 224.891 74.096C225.489 73.4987 226.207 73.2 227.047 73.2H230.967ZM227.047 78.072H229.679V74.418H227.047C226.571 74.418 226.161 74.5953 225.815 74.95C225.47 75.3047 225.297 75.734 225.297 76.238C225.297 76.742 225.47 77.176 225.815 77.54C226.161 77.8947 226.571 78.072 227.047 78.072ZM236.569 79.29V78.114H241.679V79.29H236.569ZM96.9813 89.2V99H95.6793V90.432H91.1713V99H89.8693V89.2H96.9813ZM102.64 89.2C103.546 89.2 104.297 89.5033 104.894 90.11C105.501 90.7073 105.804 91.454 105.804 92.35C105.804 93.2367 105.501 93.9833 104.894 94.59C104.297 95.1967 103.546 95.5 102.64 95.5H100.386V99H99.0842V89.2H102.64ZM102.64 94.282C103.182 94.282 103.63 94.1 103.984 93.736C104.339 93.3627 104.516 92.9007 104.516 92.35C104.516 91.79 104.339 91.328 103.984 90.964C103.63 90.6 103.182 90.418 102.64 90.418H100.386V94.282H102.64ZM113.432 99V91.692L108.392 99H107.342V89.2H108.644V96.522L113.684 89.2H114.734V99H113.432ZM124.978 97.698C123.998 98.6873 122.799 99.182 121.38 99.182C119.962 99.182 118.762 98.6873 117.782 97.698C116.802 96.7087 116.312 95.5093 116.312 94.1C116.312 92.6813 116.802 91.482 117.782 90.502C118.762 89.5127 119.962 89.018 121.38 89.018C122.799 89.018 123.998 89.5127 124.978 90.502C125.968 91.482 126.462 92.6813 126.462 94.1C126.462 95.5093 125.968 96.7087 124.978 97.698ZM118.678 96.816C119.406 97.544 120.307 97.908 121.38 97.908C122.454 97.908 123.35 97.544 124.068 96.816C124.796 96.0787 125.16 95.1733 125.16 94.1C125.16 93.0173 124.796 92.112 124.068 91.384C123.35 90.6467 122.454 90.278 121.38 90.278C120.307 90.278 119.406 90.6467 118.678 91.384C117.96 92.112 117.6 93.0173 117.6 94.1C117.6 95.1733 117.96 96.0787 118.678 96.816ZM131.584 89.2C132.489 89.2 133.24 89.5033 133.838 90.11C134.444 90.7073 134.748 91.454 134.748 92.35C134.748 93.2367 134.444 93.9833 133.838 94.59C133.24 95.1967 132.489 95.5 131.584 95.5H129.33V99H128.028V89.2H131.584ZM131.584 94.282C132.125 94.282 132.573 94.1 132.928 93.736C133.282 93.3627 133.46 92.9007 133.46 92.35C133.46 91.79 133.282 91.328 132.928 90.964C132.573 90.6 132.125 90.418 131.584 90.418H129.33V94.282H131.584ZM142.375 99V91.692L137.335 99H136.285V89.2H137.587V96.522L142.627 89.2H143.677V99H142.375ZM152.046 89.2V90.432H149.148V99H147.86V90.432H144.976V89.2H152.046ZM154.636 97.768H159.186V99H153.334V89.2H159.116V90.432H154.636V93.442H158.766V94.66H154.636V97.768ZM167.03 89.2V90.432H164.132V99H162.844V90.432H159.96V89.2H167.03ZM174.381 89.2H175.669V99H174.381V94.59H169.621V99H168.319V89.2H169.621V93.358H174.381V89.2ZM184.22 99L183.422 96.802H179.012L178.214 99H176.828L180.482 89.2H181.952L185.606 99H184.22ZM179.46 95.584H182.974L181.21 90.754L179.46 95.584ZM193.397 89.2V99H192.109V95.248H190.163L187.629 99H186.159L188.763 95.164C188.091 95.0053 187.536 94.6507 187.097 94.1C186.658 93.5493 186.439 92.9287 186.439 92.238C186.439 91.398 186.733 90.684 187.321 90.096C187.918 89.4987 188.637 89.2 189.477 89.2H193.397ZM189.477 94.072H192.109V90.418H189.477C189.001 90.418 188.59 90.5953 188.245 90.95C187.9 91.3047 187.727 91.734 187.727 92.238C187.727 92.742 187.9 93.176 188.245 93.54C188.59 93.8947 189.001 94.072 189.477 94.072ZM203.758 93.932C204.262 94.1467 204.654 94.4593 204.934 94.87C205.214 95.2807 205.354 95.766 205.354 96.326C205.354 97.166 205.037 97.852 204.402 98.384C203.777 98.916 202.946 99.182 201.91 99.182C200.968 99.182 200.207 98.972 199.628 98.552C199.059 98.132 198.658 97.5907 198.424 96.928L199.53 96.298C199.82 97.3993 200.613 97.95 201.91 97.95C202.592 97.95 203.119 97.8007 203.492 97.502C203.866 97.194 204.052 96.788 204.052 96.284C204.052 95.78 203.875 95.374 203.52 95.066C203.175 94.758 202.69 94.604 202.064 94.604H200.916V93.414H201.742C202.34 93.414 202.816 93.2693 203.17 92.98C203.525 92.6813 203.702 92.294 203.702 91.818C203.702 91.3513 203.534 90.9733 203.198 90.684C202.872 90.3853 202.414 90.236 201.826 90.236C200.744 90.236 200.02 90.7167 199.656 91.678L198.564 91.048C199.152 89.6947 200.24 89.018 201.826 89.018C202.769 89.018 203.53 89.2793 204.108 89.802C204.696 90.3247 204.99 90.9873 204.99 91.79C204.99 92.7233 204.58 93.4373 203.758 93.932ZM213.355 99L212.557 96.802H208.147L207.349 99H205.963L209.617 89.2H211.087L214.741 99H213.355ZM208.595 95.584H212.109L210.345 90.754L208.595 95.584ZM223.092 97.768H224.142V100.876H222.84V99H216.372V100.876H215.07V97.768H215.924C216.531 97.012 216.834 95.864 216.834 94.324V89.2H223.092V97.768ZM217.394 97.768H221.79V90.418H218.136V94.352C218.136 95.836 217.889 96.9747 217.394 97.768ZM232.112 99L231.314 96.802H226.904L226.106 99H224.72L228.374 89.2H229.844L233.498 99H232.112ZM227.352 95.584H230.866L229.102 90.754L227.352 95.584ZM239.334 89.2H240.636V99H239.334V95.052C238.568 95.416 237.766 95.598 236.926 95.598C235.974 95.598 235.204 95.332 234.616 94.8C234.028 94.2587 233.734 93.5587 233.734 92.7V89.2H235.036V92.616C235.036 93.148 235.204 93.5727 235.54 93.89C235.876 94.2073 236.342 94.366 236.94 94.366C237.78 94.366 238.578 94.184 239.334 93.82V89.2ZM249.189 99L248.391 96.802H243.981L243.183 99H241.797L245.451 89.2H246.921L250.575 99H249.189ZM244.429 95.584H247.943L246.179 90.754L244.429 95.584ZM58.4245 115V113.824C59.0685 113.917 59.5492 113.74 59.8665 113.292C60.1932 112.835 60.3565 111.99 60.3565 110.758V105.2H66.8245V115H65.5225V106.432H61.6585V110.758C61.6585 111.635 61.5745 112.373 61.4065 112.97C61.2478 113.558 61.0145 114.001 60.7065 114.3C60.4078 114.599 60.0718 114.804 59.6985 114.916C59.3345 115.019 58.9098 115.047 58.4245 115ZM76.9109 105.018C78.3295 105.018 79.5289 105.513 80.5089 106.502C81.4982 107.482 81.9929 108.681 81.9929 110.1C81.9929 111.509 81.4982 112.709 80.5089 113.698C79.5289 114.687 78.3295 115.182 76.9109 115.182C75.5855 115.182 74.4515 114.743 73.5089 113.866C72.5662 112.979 72.0342 111.883 71.9129 110.576H70.2329V115H68.9309V105.2H70.2329V109.344H71.9549C72.1322 108.103 72.6829 107.071 73.6069 106.25C74.5309 105.429 75.6322 105.018 76.9109 105.018ZM74.2089 112.816C74.9369 113.544 75.8375 113.908 76.9109 113.908C77.9842 113.908 78.8802 113.544 79.5989 112.816C80.3269 112.079 80.6909 111.173 80.6909 110.1C80.6909 109.017 80.3269 108.112 79.5989 107.384C78.8802 106.647 77.9842 106.278 76.9109 106.278C75.8375 106.278 74.9369 106.647 74.2089 107.384C73.4902 108.112 73.1309 109.017 73.1309 110.1C73.1309 111.173 73.4902 112.079 74.2089 112.816ZM87.2418 109.05C88.0911 109.05 88.8098 109.339 89.3978 109.918C89.9858 110.487 90.2798 111.187 90.2798 112.018C90.2798 112.867 89.9858 113.577 89.3978 114.146C88.8191 114.715 88.1004 115 87.2418 115H83.5598V105.2H89.4398V106.432H84.8618V109.05H87.2418ZM87.2418 113.782C87.7271 113.782 88.1378 113.614 88.4738 113.278C88.8191 112.942 88.9918 112.522 88.9918 112.018C88.9918 111.523 88.8191 111.108 88.4738 110.772C88.1378 110.436 87.7271 110.268 87.2418 110.268H84.8618V113.782H87.2418ZM99.8289 113.698C98.8489 114.687 97.6495 115.182 96.2309 115.182C94.8122 115.182 93.6129 114.687 92.6329 113.698C91.6529 112.709 91.1629 111.509 91.1629 110.1C91.1629 108.681 91.6529 107.482 92.6329 106.502C93.6129 105.513 94.8122 105.018 96.2309 105.018C97.6495 105.018 98.8489 105.513 99.8289 106.502C100.818 107.482 101.313 108.681 101.313 110.1C101.313 111.509 100.818 112.709 99.8289 113.698ZM93.5289 112.816C94.2569 113.544 95.1575 113.908 96.2309 113.908C97.3042 113.908 98.2002 113.544 98.9189 112.816C99.6469 112.079 100.011 111.173 100.011 110.1C100.011 109.017 99.6469 108.112 98.9189 107.384C98.2002 106.647 97.3042 106.278 96.2309 106.278C95.1575 106.278 94.2569 106.647 93.5289 107.384C92.8102 108.112 92.4509 109.017 92.4509 110.1C92.4509 111.173 92.8102 112.079 93.5289 112.816ZM108.38 105.2V106.432H104.18V115H102.878V105.2H108.38ZM117.151 113.698C116.171 114.687 114.972 115.182 113.553 115.182C112.134 115.182 110.935 114.687 109.955 113.698C108.975 112.709 108.485 111.509 108.485 110.1C108.485 108.681 108.975 107.482 109.955 106.502C110.935 105.513 112.134 105.018 113.553 105.018C114.972 105.018 116.171 105.513 117.151 106.502C118.14 107.482 118.635 108.681 118.635 110.1C118.635 111.509 118.14 112.709 117.151 113.698ZM110.851 112.816C111.579 113.544 112.48 113.908 113.553 113.908C114.626 113.908 115.522 113.544 116.241 112.816C116.969 112.079 117.333 111.173 117.333 110.1C117.333 109.017 116.969 108.112 116.241 107.384C115.522 106.647 114.626 106.278 113.553 106.278C112.48 106.278 111.579 106.647 110.851 107.384C110.132 108.112 109.773 109.017 109.773 110.1C109.773 111.173 110.132 112.079 110.851 112.816ZM129.314 105.2H130.63L127.48 112.676C127.126 113.516 126.673 114.127 126.122 114.51C125.572 114.883 124.9 115.047 124.106 115V113.796C124.648 113.852 125.086 113.773 125.422 113.558C125.758 113.343 126.038 112.975 126.262 112.452L126.36 112.228L123.042 105.2H124.358L126.962 110.8L129.314 105.2ZM137.211 105.2H138.513V115H137.211V111.052C136.446 111.416 135.643 111.598 134.803 111.598C133.851 111.598 133.081 111.332 132.493 110.8C131.905 110.259 131.611 109.559 131.611 108.7V105.2H132.913V108.616C132.913 109.148 133.081 109.573 133.417 109.89C133.753 110.207 134.22 110.366 134.817 110.366C135.657 110.366 136.455 110.184 137.211 109.82V105.2ZM141.915 113.768H146.465V115H140.613V105.2H146.395V106.432H141.915V109.442H146.045V110.66H141.915V113.768ZM151.718 109.05C152.568 109.05 153.286 109.339 153.874 109.918C154.462 110.487 154.756 111.187 154.756 112.018C154.756 112.867 154.462 113.577 153.874 114.146C153.296 114.715 152.577 115 151.718 115H148.036V105.2H153.916V106.432H149.338V109.05H151.718ZM151.718 113.782C152.204 113.782 152.614 113.614 152.95 113.278C153.296 112.942 153.468 112.522 153.468 112.018C153.468 111.523 153.296 111.108 152.95 110.772C152.614 110.436 152.204 110.268 151.718 110.268H149.338V113.782H151.718ZM162.288 105.2H163.576V115H162.288V110.59H157.528V115H156.226V105.2H157.528V109.358H162.288V105.2ZM173.821 113.698C172.841 114.687 171.642 115.182 170.223 115.182C168.804 115.182 167.605 114.687 166.625 113.698C165.645 112.709 165.155 111.509 165.155 110.1C165.155 108.681 165.645 107.482 166.625 106.502C167.605 105.513 168.804 105.018 170.223 105.018C171.642 105.018 172.841 105.513 173.821 106.502C174.81 107.482 175.305 108.681 175.305 110.1C175.305 111.509 174.81 112.709 173.821 113.698ZM167.521 112.816C168.249 113.544 169.15 113.908 170.223 113.908C171.296 113.908 172.192 113.544 172.911 112.816C173.639 112.079 174.003 111.173 174.003 110.1C174.003 109.017 173.639 108.112 172.911 107.384C172.192 106.647 171.296 106.278 170.223 106.278C169.15 106.278 168.249 106.647 167.521 107.384C166.802 108.112 166.443 109.017 166.443 110.1C166.443 111.173 166.802 112.079 167.521 112.816ZM182.372 105.2V106.432H178.172V115H176.87V105.2H182.372ZM191.143 113.698C190.163 114.687 188.964 115.182 187.545 115.182C186.127 115.182 184.927 114.687 183.947 113.698C182.967 112.709 182.477 111.509 182.477 110.1C182.477 108.681 182.967 107.482 183.947 106.502C184.927 105.513 186.127 105.018 187.545 105.018C188.964 105.018 190.163 105.513 191.143 106.502C192.133 107.482 192.627 108.681 192.627 110.1C192.627 111.509 192.133 112.709 191.143 113.698ZM184.843 112.816C185.571 113.544 186.472 113.908 187.545 113.908C188.619 113.908 189.515 113.544 190.233 112.816C190.961 112.079 191.325 111.173 191.325 110.1C191.325 109.017 190.961 108.112 190.233 107.384C189.515 106.647 188.619 106.278 187.545 106.278C186.472 106.278 185.571 106.647 184.843 107.384C184.125 108.112 183.765 109.017 183.765 110.1C183.765 111.173 184.125 112.079 184.843 112.816ZM202.453 109.932C202.957 110.147 203.349 110.459 203.629 110.87C203.909 111.281 204.049 111.766 204.049 112.326C204.049 113.166 203.731 113.852 203.097 114.384C202.471 114.916 201.641 115.182 200.605 115.182C199.662 115.182 198.901 114.972 198.323 114.552C197.753 114.132 197.352 113.591 197.119 112.928L198.225 112.298C198.514 113.399 199.307 113.95 200.605 113.95C201.286 113.95 201.813 113.801 202.187 113.502C202.56 113.194 202.747 112.788 202.747 112.284C202.747 111.78 202.569 111.374 202.215 111.066C201.869 110.758 201.384 110.604 200.759 110.604H199.611V109.414H200.437C201.034 109.414 201.51 109.269 201.865 108.98C202.219 108.681 202.397 108.294 202.397 107.818C202.397 107.351 202.229 106.973 201.893 106.684C201.566 106.385 201.109 106.236 200.521 106.236C199.438 106.236 198.715 106.717 198.351 107.678L197.259 107.048C197.847 105.695 198.934 105.018 200.521 105.018C201.463 105.018 202.224 105.279 202.803 105.802C203.391 106.325 203.685 106.987 203.685 107.79C203.685 108.723 203.274 109.437 202.453 109.932ZM212.049 115L211.251 112.802H206.841L206.043 115H204.657L208.311 105.2H209.781L213.435 115H212.049ZM207.289 111.584H210.803L209.039 106.754L207.289 111.584ZM220.191 109.918C220.639 110.133 220.994 110.441 221.255 110.842C221.526 111.243 221.661 111.705 221.661 112.228C221.661 113.012 221.386 113.67 220.835 114.202C220.284 114.734 219.612 115 218.819 115H214.591V105.2H218.511C219.276 105.2 219.925 105.457 220.457 105.97C220.989 106.483 221.255 107.118 221.255 107.874C221.255 108.742 220.9 109.423 220.191 109.918ZM218.511 106.418H215.893V109.414H218.511C218.922 109.414 219.267 109.269 219.547 108.98C219.827 108.691 219.967 108.336 219.967 107.916C219.967 107.505 219.822 107.155 219.533 106.866C219.253 106.567 218.912 106.418 218.511 106.418ZM218.819 113.782C219.258 113.782 219.626 113.628 219.925 113.32C220.224 113.012 220.373 112.634 220.373 112.186C220.373 111.747 220.219 111.374 219.911 111.066C219.612 110.758 219.248 110.604 218.819 110.604H215.893V113.782H218.819ZM224.506 113.768H229.056V115H223.204V105.2H228.986V106.432H224.506V109.442H228.636V110.66H224.506V113.768ZM237.81 113.768H238.86V116.876H237.558V115H231.09V116.876H229.788V113.768H230.642C231.249 113.012 231.552 111.864 231.552 110.324V105.2H237.81V113.768ZM232.112 113.768H236.508V106.418H232.854V110.352C232.854 111.836 232.607 112.975 232.112 113.768ZM241.665 113.768H246.215V115H240.363V105.2H246.145V106.432H241.665V109.442H245.795V110.66H241.665V113.768ZM253.848 105.2H255.136V115H253.848V110.59H249.088V115H247.786V105.2H249.088V109.358H253.848V105.2ZM263.324 115V107.692L258.284 115H257.234V105.2H258.536V112.522L263.576 105.2H264.626V115H263.324ZM273.316 105.2V115H272.028V111.248H270.082L267.548 115H266.078L268.682 111.164C268.01 111.005 267.455 110.651 267.016 110.1C266.577 109.549 266.358 108.929 266.358 108.238C266.358 107.398 266.652 106.684 267.24 106.096C267.837 105.499 268.556 105.2 269.396 105.2H273.316ZM269.396 110.072H272.028V106.418H269.396C268.92 106.418 268.509 106.595 268.164 106.95C267.819 107.305 267.646 107.734 267.646 108.238C267.646 108.742 267.819 109.176 268.164 109.54C268.509 109.895 268.92 110.072 269.396 110.072ZM275.599 112.13L275.333 108V105.2H276.803V108L276.537 112.13H275.599ZM276.061 115.154C275.809 115.154 275.595 115.065 275.417 114.888C275.24 114.711 275.151 114.496 275.151 114.244C275.151 113.992 275.24 113.777 275.417 113.6C275.595 113.423 275.809 113.334 276.061 113.334C276.323 113.334 276.537 113.423 276.705 113.6C276.883 113.777 276.971 113.992 276.971 114.244C276.971 114.496 276.883 114.711 276.705 114.888C276.537 115.065 276.323 115.154 276.061 115.154Z" fill="#333333"/>
<circle cx="172" cy="35" r="35" fill="#F1D742"/>
<circle cx="172" cy="35" r="27.2222" fill="#9C860C"/>
<path d="M177.683 44.7428C180.974 45.3159 184.264 46.1756 184.264 46.1756C184.264 46.1756 186.957 46.7487 187.555 51.0469" stroke="#F1D742" stroke-width="2" stroke-miterlimit="10" stroke-linecap="round" stroke-linejoin="round"/>
<path d="M165.718 29.2693C165.718 29.2693 172.897 29.8424 174.393 26.6903C174.393 26.6903 175.889 29.2693 177.983 29.2693" stroke="#F1D742" stroke-width="2" stroke-miterlimit="10" stroke-linecap="round" stroke-linejoin="round"/>
<path d="M177.684 45.0292C177.086 47.8947 174.992 50.1872 172 50.1872C168.709 50.1872 166.615 47.8947 166.316 45.0292C163.026 45.6023 159.735 46.462 159.735 46.462C159.735 46.462 157.043 47.0351 156.444 51.3334" stroke="#F1D742" stroke-width="2" stroke-miterlimit="10" stroke-linecap="round" stroke-linejoin="round"/>
<path d="M172 22.392C165.12 22.392 164.82 26.4037 165.419 31.5617C166.017 36.433 169.009 40.7313 172 40.7313C174.992 40.7313 178.282 36.7196 178.581 31.5617C179.18 26.4037 178.581 22.392 172 22.392Z" stroke="#F1D742" stroke-width="2" stroke-miterlimit="10" stroke-linejoin="round"/>
<path d="M159.436 20.9591V18.6667H162.428" stroke="#F1D742" stroke-width="2" stroke-miterlimit="10" stroke-linecap="round" stroke-linejoin="round"/>
<path d="M162.129 41.0176L159.735 41.0176L159.735 38.1521" stroke="#F1D742" stroke-width="2" stroke-miterlimit="10" stroke-linecap="round" stroke-linejoin="round"/>
<path d="M182.171 18.6667H184.564V20.9591" stroke="#F1D742" stroke-width="2" stroke-miterlimit="10" stroke-linecap="round" stroke-linejoin="round"/>
<path d="M184.564 38.7253V41.0177H181.573" stroke="#F1D742" stroke-width="2" stroke-miterlimit="10" stroke-linecap="round" stroke-linejoin="round"/>
</svg>
