<svg width="117" height="100" viewBox="0 0 117 100" fill="none" xmlns="http://www.w3.org/2000/svg">
<path d="M37 50H117" stroke="#828282"/>
<g clip-path="url(#clip0)">
<path fill-rule="evenodd" clip-rule="evenodd" d="M86.7234 20.8916C86.7251 23.2553 85.8688 25.2615 84.4046 26.7309C82.7975 28.3438 80.9395 29.0615 78.5807 29.0632C76.2218 29.065 74.3627 28.3501 72.6101 26.5965C69.57 23.5546 66.0658 21.1936 62.276 19.4773C58.3434 17.9045 54.0181 17.0123 49.6578 17.0155C40.6513 17.0223 32.7909 20.2514 26.4339 26.631C20.0412 33.0465 17.009 40.7488 16.8729 49.9172C16.8796 58.9423 20.1021 66.819 26.4686 73.1891C32.8708 79.595 40.7003 82.7766 49.7068 82.7698C54.2102 82.9097 58.4268 81.9039 62.4642 80.146C66.3944 78.5672 69.7166 76.3801 72.7879 73.2978C74.5379 71.5416 76.3958 70.8238 78.7547 70.8221C81.1136 70.8203 82.9726 71.5352 84.5821 73.1456C86.1916 74.7561 86.9079 76.6179 86.9097 78.9817C86.9114 81.3454 86.198 83.2082 84.5908 84.821C79.9481 89.4803 74.7326 92.994 69.0518 95.4694C62.9422 98.0884 56.5456 99.275 49.8979 99.28C36.2452 99.2902 24.7332 94.4998 15.1477 84.9088C5.56217 75.3178 0.764348 63.7892 0.754154 50.1083C0.743961 36.4274 5.52462 24.8919 15.0958 15.2866C24.6671 5.68126 36.2788 0.69437 49.8245 0.863305C56.4721 0.858332 62.9064 1.99962 68.9842 4.6453C74.9546 7.112 80.1753 10.6179 84.6819 15.127L84.3962 15.4138C85.9699 16.9884 86.6861 18.8502 86.7234 20.8916Z" fill="#F1D742"/>
</g>
<path d="M69.4867 39.5585C64.2577 37.9111 64.1476 31.5205 64.1476 31.5205C57.3663 31.7306 53.5904 28.5685 49.8915 28.5685C46.1927 28.5685 42.4167 31.7306 35.6465 31.5316C35.6465 31.5316 35.5364 37.9221 30.3074 39.5695C30.3074 39.5695 32.7843 44.4122 32.0577 49.5644C31.3422 54.7167 32.6522 65.0875 49.8915 73.2249C67.1309 65.0875 68.4409 54.7167 67.7253 49.5644C67.0098 44.4122 69.4867 39.5585 69.4867 39.5585Z" fill="#A39232" fill-opacity="0.9"/>
<path d="M69.4862 39.558C67.3286 38.8726 66.0406 37.3799 65.27 35.8652C64.6535 37.4131 63.971 38.9389 63.2994 40.4536C61.7472 43.9142 60.096 47.3417 58.4997 50.7802C55.1421 58.0221 51.5644 65.1424 48.0967 72.3179C48.6801 72.6164 49.2746 72.9149 49.9021 73.2135C67.1414 65.076 68.4514 54.7052 67.7359 49.553C67.0203 44.4007 69.4862 39.558 69.4862 39.558Z" fill="#74640B" fill-opacity="0.8"/>
<path d="M31.5183 42.1899C36.1749 41.04 58.269 35.8214 64.676 34.4283C64.1586 32.8362 64.1366 31.5205 64.1366 31.5205C57.3663 31.7306 53.5904 28.5685 49.8915 28.5685C46.1927 28.5685 42.4167 31.7306 35.6465 31.5316C35.6465 31.5316 35.5364 37.9221 30.3074 39.5695C30.3074 39.5695 30.8358 40.6199 31.3422 42.2451C31.3972 42.223 31.4633 42.212 31.5183 42.1899Z" fill="#74640B" fill-opacity="0.8"/>
<path d="M68.5726 41.8467C67.1525 43.7815 49.5829 69.7749 48.0417 72.2958C48.6362 72.6053 49.2527 72.9149 49.9022 73.2134C67.1415 65.076 68.4515 54.7052 67.736 49.5529C67.3177 46.6009 67.9562 43.7484 68.5726 41.8467Z" fill="#FFE655" fill-opacity="0.9"/>
<path d="M67.8787 51.6868C67.8787 50.9018 67.8237 50.1942 67.7356 49.553C67.0201 44.4007 69.486 39.558 69.486 39.558C64.2569 37.9107 64.1468 31.5201 64.1468 31.5201C63.1781 31.5533 62.2754 31.509 61.4277 31.4206C61.813 32.3493 67.2512 49.7188 67.8787 51.6868Z" fill="#B19A13" fill-opacity="0.9"/>
<path opacity="0.5" d="M69.4862 39.5581C68.8366 39.3591 68.2752 39.0827 67.7798 38.751C67.8459 38.6072 61.0536 62.0024 59.0391 67.6522C67.6147 60.7973 68.2972 53.5775 67.7358 49.553C67.0092 44.4007 69.4862 39.5581 69.4862 39.5581Z" fill="white" fill-opacity="0.9"/>
<path d="M41.1282 67.9507C43.451 69.7529 46.3352 71.5329 49.891 73.2135C52.2578 72.0968 54.3164 70.9359 56.1218 69.7639C53.9311 69.587 43.9243 68.3819 41.1282 67.9507Z" fill="#74640B" fill-opacity="0.8"/>
<path d="M34.7436 37.6343C34.5564 37.2473 34.3803 36.8604 34.2041 36.4623C33.4115 37.767 32.1896 38.9721 30.3071 39.5581C30.3071 39.5581 32.784 44.4008 32.0575 49.553C31.397 54.252 32.4428 63.3071 45.7411 71.0354C44.5852 67.608 35.4371 39.1048 34.7436 37.6343Z" fill="white" fill-opacity="0.9"/>
<path d="M34.3142 43.4389C37.2975 38.9942 40.3579 34.6049 43.4843 30.2708C41.3267 30.9784 38.8167 31.6197 35.6463 31.5312C35.6463 31.5312 35.5362 37.9218 30.3071 39.5692C30.3071 39.5692 31.9254 42.7423 32.1676 46.6894C32.8721 45.5949 33.5877 44.5224 34.3142 43.4389Z" fill="#B19A13" fill-opacity="0.9"/>
<path d="M37.5062 31.4981C36.9117 31.5313 36.2953 31.5423 35.6568 31.5202C35.6568 31.5202 35.5467 37.9108 30.3176 39.5582C30.3176 39.5582 32.7945 44.4008 32.068 49.5531C31.4515 53.9977 32.3432 62.3231 43.66 69.753C42.7022 64.6781 37.5062 31.4981 37.5062 31.4981Z" fill="#917E4F" fill-opacity="0.9"/>
<path d="M32.4319 55.7777C33.7749 61.0516 38.1123 67.6522 49.8914 73.2135C53.293 71.6104 56.0672 69.9187 58.3349 68.1939C57.0469 67.5748 33.3456 56.1978 32.4319 55.7777Z" fill="#74640B" fill-opacity="0.8"/>
<path d="M68.2864 42.8087C68.8258 40.8517 69.4863 39.5582 69.4863 39.5582C64.2573 37.9108 64.1472 31.5202 64.1472 31.5202C57.3659 31.7303 53.59 28.5682 49.8911 28.5682C47.6344 28.5682 45.3446 29.7512 42.3723 30.6136C43.6053 31.2106 67.0975 42.2338 68.2864 42.8087Z" fill="#74640B" fill-opacity="0.8"/>
<path d="M32.0577 49.5534C31.8926 50.7032 31.8376 52.1184 32.0357 53.7106C35.4814 51.7646 38.9711 49.9072 42.3727 47.8949C48.5375 44.2463 54.7463 40.6862 60.9771 37.1482C62.2651 36.4185 63.5531 35.6777 64.8411 34.9369C64.1586 33.1347 64.1255 31.5205 64.1255 31.5205C57.3663 31.7306 53.5904 28.5685 49.8915 28.5685C46.1927 28.5685 42.4167 31.7306 35.6465 31.5316C35.6465 31.5316 35.5364 37.9221 30.3074 39.5695C30.3074 39.5585 32.7843 44.4011 32.0577 49.5534Z" fill="#74640B" fill-opacity="0.8"/>
<path d="M48.5149 72.539C48.9662 72.7601 49.4176 72.9923 49.891 73.2134C60.1399 68.3818 64.7635 62.7541 66.6679 57.9004C63.6736 60.178 49.7919 71.5881 48.5149 72.539Z" fill="#F1D742" fill-opacity="0.5"/>
<path opacity="0.5" d="M69.4865 39.5582C64.2575 37.9108 64.1474 31.5202 64.1474 31.5202C57.3661 31.7303 53.5902 28.5682 49.8914 28.5682V73.2136C67.1307 65.0761 68.4407 54.7053 67.7252 49.5531C67.0096 44.4008 69.4865 39.5582 69.4865 39.5582Z" fill="white" fill-opacity="0.9"/>
<path d="M32.0575 49.5531C31.9694 50.2165 31.9034 50.9573 31.9144 51.7754C33.3345 48.4585 40.1267 32.0509 40.501 31.0891C39.0589 31.3876 37.4627 31.5755 35.6463 31.5202C35.6463 31.5202 35.5362 37.9108 30.3071 39.5582C30.3071 39.5582 32.784 44.4009 32.0575 49.5531Z" fill="#F1D742" fill-opacity="0.5"/>
<path fill-rule="evenodd" clip-rule="evenodd" d="M41.7376 50.2301C41.7132 50.2951 41.697 50.3682 41.697 50.4332C41.697 50.5794 41.7538 50.7012 41.8591 50.8068C41.9645 50.9124 42.1023 50.9693 42.2482 50.9693C42.3536 50.9693 42.4508 50.9449 42.5319 50.888C42.6129 50.8312 42.6778 50.75 42.7183 50.6606C43.4802 49.3448 44.5258 48.2727 45.8551 47.4524C47.2492 46.5833 48.7082 46.1528 50.2483 46.1528C51.8045 46.1528 53.2392 46.5427 54.5766 47.3387C55.8653 48.1021 56.8785 49.1418 57.6485 50.4413C56.8947 51.7408 55.8815 52.7805 54.5766 53.544C53.2473 54.3399 51.8045 54.7298 50.2483 54.7298C49.535 54.7298 48.8379 54.6323 48.1571 54.478C47.4843 54.3156 46.8602 54.0638 46.2523 53.7389C46.155 53.682 46.0821 53.6577 45.9686 53.6577C45.8227 53.6577 45.7011 53.7145 45.5957 53.8201C45.4904 53.9257 45.4336 54.0476 45.4336 54.1938C45.4336 54.3156 45.4741 54.4212 45.539 54.5024C45.6038 54.5998 45.7011 54.6648 45.8065 54.6892C46.4792 55.0385 47.1844 55.3227 47.922 55.4933C48.6839 55.6801 49.462 55.7776 50.2564 55.7776C52.1044 55.7776 53.8065 55.2821 55.3466 54.2831C56.8461 53.3328 57.997 52.0414 58.7914 50.4169C57.9889 48.8088 56.838 47.5173 55.3466 46.5508C53.7822 45.5843 52.0882 45.0888 50.2239 45.0888C48.4407 45.0888 46.7791 45.5436 45.2634 46.4615C43.7882 47.3468 42.6373 48.5407 41.8024 50.0433C41.7862 50.1002 41.7457 50.1652 41.7376 50.2301ZM43.9828 52.7318C44.0881 52.6262 44.2097 52.5693 44.3556 52.5693C44.5015 52.5693 44.6231 52.6262 44.7284 52.7318C44.8338 52.8373 44.8906 52.9592 44.8906 53.1054C44.8906 53.2516 44.8338 53.3734 44.7284 53.479C44.6231 53.5846 44.5015 53.6414 44.3556 53.6414C44.2097 53.6414 44.0881 53.5846 43.9828 53.479C43.8774 53.3734 43.8206 53.2516 43.8206 53.1054C43.8206 52.9592 43.8774 52.8211 43.9828 52.7318ZM51.7478 48.9144C51.8531 49.0199 51.9747 49.0768 52.1206 49.0768C52.2665 49.0768 52.3881 49.0199 52.4935 48.9144C52.5988 48.8088 52.6556 48.6869 52.6556 48.5407C52.6556 48.3945 52.5988 48.2565 52.4935 48.1671C52.3881 48.0615 52.2665 48.0047 52.1206 48.0047C51.9747 48.0047 51.8531 48.0615 51.7478 48.1671C51.6424 48.2727 51.5857 48.4108 51.5857 48.5407C51.5857 48.6869 51.6343 48.8088 51.7478 48.9144ZM50.6049 47.3711C50.7103 47.4767 50.767 47.6148 50.767 47.7448C50.767 47.891 50.7103 48.0128 50.6049 48.1184C50.4995 48.224 50.378 48.2808 50.2158 48.2808C49.9322 48.2808 49.6647 48.3377 49.4134 48.427C49.1621 48.5326 48.919 48.695 48.7163 48.8981C48.303 49.3123 48.0841 49.824 48.0841 50.4169C48.0841 51.0099 48.2948 51.5053 48.7163 51.9358C49.1297 52.35 49.6403 52.5693 50.232 52.5693C50.8237 52.5693 51.3344 52.3581 51.7478 51.9358C51.9585 51.7327 52.1125 51.4891 52.2179 51.221C52.3233 50.9693 52.38 50.7093 52.38 50.4251C52.38 50.2626 52.4367 50.1408 52.5421 50.0352C52.6475 49.9296 52.769 49.8728 52.9149 49.8728C53.0608 49.8728 53.1824 49.9296 53.2878 50.0352C53.3932 50.1408 53.4499 50.2626 53.4499 50.4088C53.4499 50.8393 53.3688 51.2373 53.223 51.619C53.0608 52.0251 52.8177 52.3744 52.5097 52.683C51.8774 53.3166 51.1318 53.6252 50.2483 53.6252C49.3648 53.6252 48.611 53.3166 47.9868 52.683C47.3546 52.0495 47.0466 51.3023 47.0466 50.4169C47.0466 49.5316 47.3546 48.7682 47.9868 48.1509C48.2949 47.8422 48.6434 47.5986 49.0487 47.4361C49.4377 47.2737 49.843 47.1924 50.2564 47.1924V47.2168C50.3942 47.2249 50.5076 47.2818 50.6049 47.3711Z" fill="white"/>
<defs>
<clipPath id="clip0">
<rect width="87" height="100" fill="white"/>
</clipPath>
</defs>
</svg>
