<svg width="264" height="353" viewBox="0 0 264 353" fill="none" xmlns="http://www.w3.org/2000/svg">
<path fill-rule="evenodd" clip-rule="evenodd" d="M262.983 81.0388C262.99 90.5766 259.528 98.6718 253.607 104.601C247.109 111.109 239.597 114.005 230.059 114.012C220.521 114.019 213.004 111.135 205.917 104.059C193.624 91.7843 179.455 82.2574 164.132 75.3322C148.231 68.9855 130.742 65.3854 113.111 65.3986C76.6938 65.4258 44.9107 78.4556 19.2065 104.198C-6.64199 130.085 -18.9023 161.165 -19.4528 198.16C-19.4256 234.578 -6.39573 266.361 19.3468 292.065C45.2339 317.914 76.8918 330.752 113.309 330.724C131.518 331.289 148.568 327.23 164.893 320.137C180.784 313.766 194.217 304.941 206.636 292.503C213.712 285.417 221.224 282.521 230.762 282.514C240.3 282.507 247.817 285.391 254.325 291.89C260.833 298.388 263.729 305.901 263.736 315.439C263.743 324.976 260.859 332.493 254.36 339.001C235.588 357.802 214.499 371.98 191.529 381.968C166.825 392.536 140.961 397.325 114.082 397.345C58.8778 397.386 12.33 378.056 -26.4284 339.355C-65.1868 300.655 -84.5865 254.136 -84.6277 198.932C-84.6689 143.728 -65.3387 97.1804 -26.6381 58.4219C12.0625 19.6635 59.0139 -0.459136 113.785 0.222533C140.664 0.202462 166.681 4.80767 191.256 15.4833C215.397 25.4367 235.351 40.7402 253.573 58.9353C259.936 65.2891 262.832 72.8016 262.983 81.0388Z" fill="#333333" fill-opacity="0.05"/>
</svg>
